<?xml version="1.0" encoding="UTF-8"?>
<svg width="35px" height="22px" viewBox="0 0 35 22" version="1.1" xmlns="http://www.w3.org/2000/svg" xmlns:xlink="http://www.w3.org/1999/xlink">
    <!-- Generator: Sketch 49.3 (51167) - http://www.bohemiancoding.com/sketch -->
    <title>payment-methods/1-icon</title>
    <desc>Created with Sketch.</desc>
    <defs>
        <path d="M2,0 L26,0 C27.1045695,-2.02906125e-16 28,0.8954305 28,2 L28,14 C28,15.1045695 27.1045695,16 26,16 L2,16 C0.8954305,16 1.3527075e-16,15.1045695 0,14 L0,2 C-1.3527075e-16,0.8954305 0.8954305,2.02906125e-16 2,0 Z" id="path-1"></path>
        <path d="M2,0 L26,0 C27.1045695,-2.02906125e-16 28,0.8954305 28,2 L28,14 C28,15.1045695 27.1045695,16 26,16 L2,16 C0.8954305,16 1.3527075e-16,15.1045695 0,14 L0,2 C-1.3527075e-16,0.8954305 0.8954305,2.02906125e-16 2,0 Z" id="path-3"></path>
    </defs>
    <g id="payment-methods/1-icon" stroke="none" stroke-width="1" fill="none" fill-rule="evenodd">
        <g id="Group-19" transform="translate(1.000000, 5.000000)">
            <mask id="mask-2" fill="white">
                <use xlink:href="#path-1"></use>
            </mask>
            <path stroke="#222222" stroke-width="3" d="M2,1.5 C1.72385763,1.5 1.5,1.72385763 1.5,2 L1.5,14 C1.5,14.2761424 1.72385763,14.5 2,14.5 L26,14.5 C26.2761424,14.5 26.5,14.2761424 26.5,14 L26.5,2 C26.5,1.72385763 26.2761424,1.5 26,1.5 L2,1.5 Z"></path>
            <path d="M28,4.06086347 L28,14 C28,15.1045695 27.1045695,16 26,16 L25.372023,16 C25.1415187,16.0518597 24.9017453,16.079228 24.6555798,16.079228 C24.4094143,16.079228 24.1696409,16.0518597 23.9391365,16 L2,16 C0.8954305,16 1.38777878e-16,15.1045695 0,14 L0,13.372023 C-0.0518597216,13.1415187 -0.0792279653,12.9017453 -0.0792279653,12.6555798 C-0.0792279653,12.4094143 -0.0518597216,12.1696409 -3.75532938e-13,11.9391365 L0,2 C-1.38777878e-16,0.8954305 0.8954305,2.08166817e-16 2,0 L2.62797695,0 C2.85848133,-0.0518597216 3.09825468,-0.0792279653 3.34442021,-0.0792279653 C3.59058575,-0.0792279653 3.83035909,-0.0518597216 4.06086347,-3.75560694e-13 L26,0 C27.1045695,-2.08166817e-16 28,0.8954305 28,2 L28,2.62797695 C28.0518597,2.85848133 28.079228,3.09825468 28.079228,3.34442021 C28.079228,3.59058575 28.0518597,3.83035909 28,4.06086347 Z M21.5972618,3 L6.59001062,3 C6.59293827,3.05655372 6.59442021,3.11348981 6.59442021,3.17077203 C6.59442021,4.96569747 5.13934565,6.42077203 3.34442021,6.42077203 C3.22808461,6.42077203 3.11317666,6.41465955 3,6.40273823 L3,9.40998938 C3.05655372,9.40706173 3.11348981,9.40557979 3.17077203,9.40557979 C4.96569747,9.40557979 6.42077203,10.8606544 6.42077203,12.6555798 C6.42077203,12.7719154 6.41465955,12.8868233 6.40273823,13 L21.4099894,13 C21.4070617,12.9434463 21.4055798,12.8865102 21.4055798,12.829228 C21.4055798,11.0343025 22.8606544,9.57922797 24.6555798,9.57922797 C24.7719154,9.57922797 24.8868233,9.58534045 25,9.59726177 L25,6.59001062 C24.9434463,6.59293827 24.8865102,6.59442021 24.829228,6.59442021 C23.0343025,6.59442021 21.579228,5.13934565 21.579228,3.34442021 C21.579228,3.22808461 21.5853404,3.11317666 21.5972618,3 Z M14,12.5 C11.5147186,12.5 9.5,10.4852814 9.5,8 C9.5,5.51471863 11.5147186,3.5 14,3.5 C16.4852814,3.5 18.5,5.51471863 18.5,8 C18.5,10.4852814 16.4852814,12.5 14,12.5 Z" id="Combined-Shape" fill="#222222" fill-rule="nonzero" mask="url(#mask-2)"></path>
        </g>
        <g id="Group-19" transform="translate(6.000000, 1.000000)">
            <mask id="mask-4" fill="white">
                <use xlink:href="#path-3"></use>
            </mask>
            <g id="Rectangle-44"></g>
            <path d="M22,16 L22,10.9551597 C22.5885232,10.1227354 23.55858,9.57922797 24.6555798,9.57922797 C24.7719154,9.57922797 24.8868233,9.58534045 25,9.59726177 L25,6.59001062 C24.9434463,6.59293827 24.8865102,6.59442021 24.829228,6.59442021 C23.0343025,6.59442021 21.579228,5.13934565 21.579228,3.34442021 C21.579228,3.22808461 21.5853404,3.11317666 21.5972618,3 L6.59001062,3 C6.59293827,3.05655372 6.59442021,3.11348981 6.59442021,3.17077203 C6.59442021,4.38380876 5.92985083,5.441627 4.94493881,6 L0,6 L0,2 C-1.38777878e-16,0.8954305 0.8954305,2.08166817e-16 2,0 L2.62797695,0 C2.85848133,-0.0518597216 3.09825468,-0.0792279653 3.34442021,-0.0792279653 C3.59058575,-0.0792279653 3.83035909,-0.0518597216 4.06086347,-3.75560694e-13 L26,0 C27.1045695,-2.08166817e-16 28,0.8954305 28,2 L28,2.62797695 C28.0518597,2.85848133 28.079228,3.09825468 28.079228,3.34442021 C28.079228,3.59058575 28.0518597,3.83035909 28,4.06086347 L28,14 C28,15.1045695 27.1045695,16 26,16 L25.372023,16 C25.1415187,16.0518597 24.9017453,16.079228 24.6555798,16.079228 C24.4094143,16.079228 24.1696409,16.0518597 23.9391365,16 L22,16 Z M-3.75477427e-13,13.372023 C-0.0518597216,13.1415187 -0.0792279653,12.9017453 -0.0792279653,12.6555798 C-0.0792279653,12.4094143 -0.0518597216,12.1696409 -3.75532938e-13,11.9391365 L0,13.372023 Z M9.96775982,6 C10.7041111,4.51828152 12.2331394,3.5 14,3.5 C15.7668606,3.5 17.2958889,4.51828152 18.0322402,6 L9.96775982,6 Z" id="Combined-Shape" fill="#222222" fill-rule="nonzero" mask="url(#mask-4)"></path>
        </g>
    </g>
</svg>