<?xml version="1.0" encoding="UTF-8"?>
<svg width="40px" height="35px" viewBox="0 0 40 35" version="1.1" xmlns="http://www.w3.org/2000/svg" xmlns:xlink="http://www.w3.org/1999/xlink">
    <!-- Generator: Sketch 50.2 (55047) - http://www.bohemiancoding.com/sketch -->
    <title>payment-methods/10-icon</title>
    <desc>Created with Sketch.</desc>
    <defs></defs>
    <g id="Icons" stroke="none" stroke-width="1" fill="none" fill-rule="evenodd">
        <g id="payment-methods/10-icon">
            <path d="M22.9741488,0.00159392789 L0,0.00159392789 L0,35 L22.9741488,35 L22.9741488,34.9933586 C27.9925289,34.9246869 31.9680661,33.6723909 34.7892893,31.2613093 C38.2203636,28.3290133 39.9600661,23.6992505 39.9600661,17.500797 C39.9600661,14.5378178 39.5024793,11.8800759 38.6000661,9.60148956 C37.7367273,7.42172676 36.4608926,5.5683871 34.8081322,4.09287476 C31.8971901,1.49424099 27.8110413,0.0891271347 22.9741488,0.00929791271 C22.9741488,0.00923149905 22.9741488,0.00159392789 22.9741488,0.00159392789 Z" id="Fill-4" fill="#0A0B09"></path>
            <path d="M22.539438,2.32607211 C26.9919339,2.32607211 30.7028099,3.53785579 33.2709421,5.83045541 C36.1740165,8.42204934 37.6460165,12.3484915 37.6460165,17.500797 C37.6460165,27.7117647 32.704595,32.6755218 22.539438,32.6755218 C21.7494215,32.6755218 4.34552066,32.6755218 2.31404959,32.6755218 C2.31404959,30.5931879 2.31404959,4.40833966 2.31404959,2.32607211 C4.34552066,2.32607211 21.7494215,2.32607211 22.539438,2.32607211 Z" id="Path" fill="#ffffff"></path>
            <path d="M11.328595,14.3614896 C11.328595,16.3722296 9.70565289,18.0032163 7.70393388,18.0032163 C5.70228099,18.0032163 4.07927273,16.3722296 4.07927273,14.3614896 C4.07927273,12.3507495 5.70228099,10.7204934 7.70393388,10.7204934 C9.70565289,10.7204934 11.328595,12.3507495 11.328595,14.3614896" id="Fill-2" fill="#0A0B09"></path>
            <polygon id="Fill-1" fill="#0A0B09" points="4.44178512 30.3818596 10.845157 30.3818596 10.845157 19.7014137 4.44178512 19.7014137"></polygon>
            <path d="M21.9073719,30.393814 L13.785124,30.393814 L13.785124,5.15589184 L21.9073719,5.15589184 L21.5795702,5.15589184 C28.3532562,5.15589184 35.5633719,7.84119545 35.5633719,17.8080266 C35.5633719,28.3447533 28.3532562,30.393814 21.5795702,30.393814 L21.9073719,30.393814" id="Fill-6" fill="#CC0066"></path>
            <path d="M13.6041653,12.7002182 L13.6041653,16.7140607 L14.5174215,16.7140607 C14.8589752,16.7140607 15.1055207,16.6948008 15.2570579,16.6562144 C15.455405,16.6066034 15.6199669,16.5225237 15.750876,16.4040417 C15.8816529,16.2855598 15.9884959,16.0905693 16.0711405,15.8191366 C16.1537851,15.547704 16.1951074,15.1777135 16.1951074,14.7092315 C16.1951074,14.2407495 16.1537851,13.8811195 16.0711405,13.6302751 C15.9884959,13.3795636 15.8727934,13.1839089 15.7240331,13.0433776 C15.5752727,12.9027799 15.3865124,12.8077419 15.1578843,12.7580645 C14.9870413,12.7195446 14.6523636,12.7002182 14.1537851,12.7002182 L13.6041653,12.7002182 Z M12.3851901,11.6708065 L14.6152066,11.6708065 C15.1181488,11.6708065 15.5014876,11.7094592 15.7653554,11.7867647 C16.1198017,11.8916983 16.4234711,12.0781214 16.6762975,12.3460342 C16.929124,12.6138805 17.1214545,12.9418311 17.2534215,13.3298197 C17.3853223,13.7178083 17.4513058,14.1962524 17.4513058,14.7650854 C17.4513058,15.264981 17.3894215,15.69574 17.2657851,16.0574953 C17.1146446,16.4994118 16.8989091,16.8569829 16.6186446,17.130408 C16.4070083,17.3375522 16.1211901,17.4990702 15.7611901,17.6150285 C15.4918347,17.7007021 15.1319008,17.7434725 14.6811901,17.7434725 L12.3851901,17.7434725 L12.3851901,11.6708065 Z" id="Fill-7" fill="#FFFFFE"></path>
            <path d="M14.6152066,11.8368406 C15.1000992,11.8368406 15.4714711,11.8735674 15.7190083,11.9461575 C16.0430413,12.0420588 16.3249587,12.2150664 16.5563636,12.4602657 C16.7914711,12.7093833 16.9733554,13.02 17.0969917,13.383482 C17.2224132,13.7524099 17.2860165,14.2172391 17.2860165,14.7650854 C17.2860165,15.2441935 17.2265785,15.6608729 17.1094215,16.0035674 C16.9675372,16.4184535 16.7636364,16.7574953 16.5034711,17.0112619 C16.3110744,17.199611 16.0444298,17.3494402 15.7107438,17.4569639 C15.4593719,17.5368596 15.1127934,17.5774383 14.6811901,17.5774383 C14.6811901,17.5774383 12.8351736,17.5774383 12.5504793,17.5774383 C12.5504793,17.2721347 12.5504793,12.1421442 12.5504793,11.8368406 C12.8338512,11.8368406 14.6152066,11.8368406 14.6152066,11.8368406 Z M12.2199008,11.5047723 L12.2199008,17.9095066 L14.6811901,17.9095066 C15.1466446,17.9095066 15.5268099,17.8636812 15.8110413,17.7733586 C16.1945124,17.6498292 16.5048595,17.4736338 16.7340165,17.2492884 C17.0316033,16.9590607 17.2631405,16.576186 17.4220826,16.1114896 C17.5511405,15.7339279 17.616595,15.2809203 17.616595,14.7650854 C17.616595,14.1806452 17.5469752,13.6796869 17.4097851,13.2761575 C17.2707438,12.8671157 17.0643306,12.5157875 16.7962314,12.2317362 C16.5242314,11.9436338 16.193124,11.7402751 15.8120331,11.6275047 C15.5301157,11.5448861 15.1387107,11.5047723 14.6152066,11.5047723 L12.2199008,11.5047723 Z" id="Fill-8" fill="#FFFFFE"></path>
            <path d="M14.1537851,12.8662524 C14.7564959,12.8662524 15.0128264,12.8955408 15.1216529,12.9200474 C15.3207934,12.9633491 15.4848926,13.04537 15.6107769,13.1643169 C15.7385785,13.2850569 15.8406612,13.4593928 15.9142479,13.6824763 C15.990876,13.9152562 16.0298182,14.2606736 16.0298182,14.7092315 C16.0298182,15.1590512 15.9904793,15.5160911 15.9130579,15.7705882 C15.8397355,16.0114706 15.7479008,16.1831499 15.6401983,16.280778 C15.530314,16.3802657 15.3879669,16.4523909 15.217124,16.4950949 C15.0789421,16.5302941 14.8437686,16.5480266 14.5174215,16.5480266 C14.5174215,16.5480266 13.9912066,16.5480266 13.7694545,16.5480266 C13.7694545,16.2560721 13.7694545,13.1582068 13.7694545,12.8662524 C13.9311074,12.8662524 14.1537851,12.8662524 14.1537851,12.8662524 Z M13.438876,12.5341841 L13.438876,16.8800949 L14.5174215,16.8800949 C14.8760992,16.8800949 15.1313719,16.8595066 15.2976529,16.8171347 C15.5209917,16.7613472 15.710876,16.6637192 15.8615537,16.5273719 C16.0165289,16.3869734 16.1367934,16.1711954 16.229157,15.8676186 C16.3174876,15.577723 16.3603967,15.1987666 16.3603967,14.7092315 C16.3603967,14.2183681 16.3170909,13.8483776 16.2280331,13.5781404 C16.1370579,13.3020588 16.0055537,13.0814326 15.8372893,12.9224383 C15.6670413,12.7615844 15.4502479,12.6517362 15.1928595,12.5957495 C15.0094545,12.5543738 14.669157,12.5341841 14.1537851,12.5341841 L13.438876,12.5341841 Z" id="Fill-9" fill="#FFFFFE"></path>
            <polyline id="Fill-10" fill="#FFFFFE" points="18.8305455 17.7434725 18.8305455 11.6708065 23.3057851 11.6708065 23.3057851 12.7002182 20.0495868 12.7002182 20.0495868 14.0450949 23.0784793 14.0450949 23.0784793 15.0745066 20.0495868 15.0745066 20.0495868 16.7140607 23.4214876 16.7140607 23.4214876 17.7434725 18.8305455 17.7434725"></polyline>
            <path d="M23.1404959,11.8368406 C23.1404959,12.0254554 23.1404959,12.3455028 23.1404959,12.5341841 C22.8426446,12.5341841 19.8842975,12.5341841 19.8842975,12.5341841 L19.8842975,14.211129 C19.8842975,14.211129 22.617719,14.211129 22.9131901,14.211129 C22.9131901,14.3997438 22.9131901,14.7197913 22.9131901,14.9084725 C22.617719,14.9084725 19.8842975,14.9084725 19.8842975,14.9084725 L19.8842975,16.8800949 C19.8842975,16.8800949 22.9572231,16.8800949 23.2561983,16.8800949 C23.2561983,17.0687761 23.2561983,17.3887571 23.2561983,17.5774383 C22.9604628,17.5774383 19.2915702,17.5774383 18.9958347,17.5774383 C18.9958347,17.2721347 18.9958347,12.1421442 18.9958347,11.8368406 C19.2907107,11.8368406 22.8456198,11.8368406 23.1404959,11.8368406 Z M18.6652562,11.5047723 L18.6652562,17.9095066 L23.5867769,17.9095066 L23.5867769,16.5480266 C23.5867769,16.5480266 20.5137851,16.5480266 20.214876,16.5480266 C20.214876,16.3100664 20.214876,15.4785009 20.214876,15.2405408 C20.510281,15.2405408 23.2437686,15.2405408 23.2437686,15.2405408 L23.2437686,13.8790607 C23.2437686,13.8790607 20.510281,13.8790607 20.214876,13.8790607 C20.214876,13.6598292 20.214876,13.0854175 20.214876,12.8662524 C20.5126612,12.8662524 23.4710744,12.8662524 23.4710744,12.8662524 L23.4710744,11.5047723 L18.6652562,11.5047723 Z" id="Fill-11" fill="#FFFFFE"></path>
            <path d="M28.0007934,15.3359772 L27.1674711,13.0862144 L26.350876,15.3359772 L28.0007934,15.3359772 Z M30.248,17.7434725 L28.9200661,17.7434725 L28.3925289,16.365389 L25.9773223,16.365389 L25.4769587,17.7434725 L24.1818843,17.7434725 L26.5311736,11.6708065 L27.8304132,11.6708065 L30.248,17.7434725 Z" id="Fill-12" fill="#FFFFFE"></path>
            <path d="M27.7185455,11.8368406 C27.7957686,12.0307685 29.8389421,17.1630835 30.0039008,17.5774383 C29.7127934,17.5774383 29.1852562,17.5774383 29.0335207,17.5774383 C28.9641653,17.3961954 28.5060496,16.1993548 28.5060496,16.1993548 L25.861686,16.1993548 C25.861686,16.1993548 25.4284959,17.3923435 25.3613223,17.5774383 C25.2087934,17.5774383 24.7080331,17.5774383 24.4234711,17.5774383 C24.5827438,17.16574 26.5681322,12.0335579 26.6442975,11.8368406 C26.8150083,11.8368406 27.5493554,11.8368406 27.7185455,11.8368406 Z M26.4180496,11.5047723 L23.9403636,17.9095066 L25.592595,17.9095066 C25.592595,17.9095066 26.0257851,16.716518 26.0929587,16.5314231 C26.2922975,16.5314231 28.0831074,16.5314231 28.2790083,16.5314231 C28.3483636,16.7127324 28.8065455,17.9095066 28.8065455,17.9095066 L30.4921653,17.9095066 L27.942281,11.5047723 L26.4180496,11.5047723 Z" id="Fill-13" fill="#FFFFFE"></path>
            <path d="M27.1689917,13.5665844 C27.3501488,14.0556546 27.6564628,14.8825047 27.7629752,15.1699431 C27.4727934,15.1699431 26.8755702,15.1699431 26.5870413,15.1699431 C26.6909752,14.8837002 26.9912066,14.0565844 27.1689917,13.5665844 Z M26.1147107,15.5020114 L28.2386777,15.5020114 L27.1658843,12.6058444 L26.1147107,15.5020114 Z" id="Fill-14" fill="#FFFFFE"></path>
            <polyline id="Fill-15" fill="#FFFFFE" points="31.2677686 17.7434725 31.2677686 11.7206167 32.4868099 11.7206167 32.4868099 16.7140607 35.5239669 16.7140607 35.5239669 17.7434725 31.2677686 17.7434725"></polyline>
            <path d="M32.3215207,11.8866509 C32.3215207,12.1969355 32.3215207,16.8800949 32.3215207,16.8800949 C32.3215207,16.8800949 35.0631405,16.8800949 35.3586777,16.8800949 C35.3586777,17.0687761 35.3586777,17.3887571 35.3586777,17.5774383 C35.0656529,17.5774383 31.7261488,17.5774383 31.4330579,17.5774383 C31.4330579,17.272334 31.4330579,12.1917552 31.4330579,11.8866509 C31.6413884,11.8866509 32.1131901,11.8866509 32.3215207,11.8866509 Z M31.1024793,11.5545825 L31.1024793,17.9095066 L35.6892562,17.9095066 L35.6892562,16.5480266 C35.6892562,16.5480266 32.9476364,16.5480266 32.6520992,16.5480266 C32.6520992,16.2376755 32.6520992,11.5545825 32.6520992,11.5545825 L31.1024793,11.5545825 Z" id="Fill-16" fill="#FFFFFE"></path>
        </g>
    </g>
</svg>