<?xml version="1.0" encoding="UTF-8"?>
<svg xmlns="http://www.w3.org/2000/svg" xmlns:xlink="http://www.w3.org/1999/xlink" width="87pt" height="15pt" viewBox="0 0 87 15" version="1.1">
<g id="surface1">
<path style=" stroke:none;fill-rule:evenodd;fill:rgb(96.078431%,56.862745%,0%);fill-opacity:1;" d="M 0 0.859375 L 13.667969 0.859375 L 13.667969 14.671875 L 0 14.671875 Z M 0 0.859375 "/>
<path style=" stroke:none;fill-rule:evenodd;fill:rgb(100%,100%,100%);fill-opacity:1;" d="M 5.425781 7.746094 C 5.425781 8.457031 5.273438 9.003906 4.480469 9.003906 C 3.597656 9.003906 3.503906 8.363281 3.503906 7.839844 L 3.503906 3.757812 L 2.367188 4.011719 L 2.367188 8.007812 C 2.367188 9.527344 3.414062 10.105469 4.429688 10.105469 C 5.753906 10.105469 6.5625 9.25 6.5625 8.171875 L 6.5625 3.757812 L 5.425781 4.011719 Z M 9.421875 5.421875 C 8.964844 5.421875 8.546875 5.5625 8.195312 5.8125 L 8.195312 5.160156 L 7.101562 5.429688 L 7.101562 11.53125 L 8.195312 11.277344 L 8.195312 9.71875 C 8.554688 9.972656 8.980469 10.105469 9.421875 10.105469 C 10.652344 10.105469 11.648438 9.058594 11.648438 7.765625 C 11.648438 6.472656 10.652344 5.421875 9.421875 5.421875 M 9.351562 9.097656 C 8.621094 9.097656 8.089844 8.484375 8.089844 7.761719 C 8.089844 7.042969 8.621094 6.425781 9.351562 6.425781 C 10.082031 6.425781 10.617188 7.042969 10.617188 7.761719 C 10.617188 8.484375 10.082031 9.097656 9.351562 9.097656 "/>
<path style=" stroke:none;fill-rule:evenodd;fill:rgb(30.980392%,36.470588%,35.686275%);fill-opacity:1;" d="M 17.089844 14.671875 L 19.636719 0.542969 L 24.117188 9.800781 L 28.5625 0.542969 L 31.207031 14.671875 L 28.617188 14.996094 L 27.523438 7.96875 L 24.136719 14.996094 L 20.691406 7.96875 L 19.617188 14.996094 Z M 37.320312 4.125 C 40.308594 4.125 42.9375 6.480469 42.9375 9.558594 C 42.9375 12.636719 40.308594 14.996094 37.320312 14.996094 C 34.332031 14.996094 31.707031 12.636719 31.707031 9.558594 C 31.707031 6.480469 34.332031 4.125 37.320312 4.125 M 37.320312 12.660156 C 39.035156 12.660156 40.546875 11.3125 40.546875 9.558594 C 40.546875 7.808594 39.035156 6.460938 37.320312 6.460938 C 35.609375 6.460938 34.09375 7.808594 34.09375 9.558594 C 34.09375 11.3125 35.609375 12.660156 37.320312 12.660156 M 44.3125 4.449219 L 46.703125 4.207031 L 46.703125 5.613281 L 46.738281 5.613281 C 47.597656 4.449219 48.433594 4.125 49.847656 4.125 C 51.941406 4.125 53.332031 5.472656 53.332031 7.644531 L 53.332031 14.667969 L 50.804688 14.832031 L 50.804688 8.332031 C 50.804688 7.246094 50.308594 6.339844 49.171875 6.339844 C 47.578125 6.339844 46.84375 7.566406 46.84375 8.855469 L 46.84375 14.671875 L 44.3125 14.832031 Z M 58.210938 1.710938 L 56.5 3.421875 L 54.785156 1.710938 L 56.5 0 Z M 55.1875 4.449219 L 57.714844 4.207031 L 57.714844 14.671875 L 55.1875 14.832031 Z M 59.824219 4.449219 L 67.152344 4.449219 L 62.511719 12.457031 L 67.152344 12.457031 L 66.714844 14.671875 L 58.710938 14.671875 L 63.351562 6.660156 L 59.308594 6.660156 Z M 68.546875 4.449219 L 75.878906 4.449219 L 71.234375 12.457031 L 75.878906 12.457031 L 75.4375 14.671875 L 67.433594 14.671875 L 72.070312 6.660156 L 68.03125 6.660156 Z M 86.253906 13.644531 C 85.015625 14.511719 83.503906 14.996094 82.011719 14.996094 C 79.023438 14.996094 76.394531 12.636719 76.394531 9.558594 C 76.394531 6.480469 79.023438 4.125 82.011719 4.125 C 84.101562 4.125 85.933594 5.394531 86.828125 7.285156 L 79.902344 11.628906 C 80.097656 12.050781 80.65625 12.660156 81.871094 12.660156 C 83.164062 12.660156 84.121094 12.15625 85.175781 11.453125 Z M 83.644531 6.921875 C 83.164062 6.441406 82.550781 6.257812 81.871094 6.257812 C 80.277344 6.257812 79.003906 7.566406 78.863281 9.136719 C 78.863281 9.355469 78.863281 9.582031 78.902344 9.820312 Z M 83.644531 6.921875 "/>
</g>
</svg>
