<?xml version="1.0" encoding="UTF-8"?>
<svg width="39px" height="18px" viewBox="0 0 39 18" version="1.1" xmlns="http://www.w3.org/2000/svg" xmlns:xlink="http://www.w3.org/1999/xlink">
    <!-- Generator: Sketch 49.3 (51167) - http://www.bohemiancoding.com/sketch -->
    <title>payment-methods/10001-icon</title>
    <desc>Created with Sketch.</desc>
    <defs></defs>
    <g id="Icons" stroke="none" stroke-width="1" fill="none" fill-rule="evenodd">
        <g id="payment-methods/10001-icon">
            <g id="Group-32" transform="translate(0.000000, 0.219782)">
                <g id="Group-31">
                    <path d="M37.1870562,4.11913725 C36.2494235,2.66653595 34.9313217,1.55380392 33.3823659,0.884941176 C32.8664987,0.66130719 32.3242288,0.487973856 31.7623261,0.367660131 C29.5140385,-0.112235294 27.2136226,0.312601307 25.190773,1.63265359 L24.6911535,1.99291503 L17.1230695,7.45461438 L11.040304,11.8450458 C10.9394323,11.9259346 10.8338217,12.0027451 10.7241491,12.0741176 C10.5244367,12.2039477 10.3166004,12.3093072 10.1047022,12.3976732 C8.55980841,13.0441046 6.74885708,12.6104314 5.66228628,11.3073725 C5.56276858,11.1877386 5.46731283,11.0626667 5.38065796,10.9287582 L1.40130398,13.5185621 C2.65102965,15.455817 4.57774646,16.7881046 6.82603407,17.2700392 C6.97564912,17.3019869 7.12594115,17.3298562 7.27623319,17.3536471 C7.42246327,17.3774379 7.56937035,17.3964706 7.71627743,17.4121046 C7.7189854,17.4127843 7.72169336,17.4127843 7.72507832,17.4134641 C8.0249854,17.4454118 8.32489248,17.4617255 8.62479956,17.4617255 C10.276658,17.4617255 11.9102376,16.9750327 13.3942022,16.0077647 C13.3982642,16.0050458 13.4016491,16.0016471 13.4057111,15.9989281 L13.8944987,15.6468235 L21.4700296,10.1790065 L27.8642111,5.56290196 C27.9616978,5.49968627 28.0612155,5.44326797 28.1620872,5.38956863 C28.1911978,5.37393464 28.2209854,5.35898039 28.250096,5.34470588 C28.329304,5.30528105 28.4098659,5.26857516 28.4904279,5.23458824 C28.5161535,5.22371242 28.5418792,5.21215686 28.5676049,5.20264052 C28.6745695,5.16049673 28.7828881,5.12243137 28.8925606,5.09048366 C28.9027155,5.08776471 28.9128704,5.08572549 28.9230252,5.08300654 C29.0238969,5.05445752 29.1261226,5.03066667 29.2290252,5.01027451 C29.2540739,5.00551634 29.2791226,5.00143791 29.3041712,4.99667974 C29.4057199,4.97900654 29.5072686,4.96541176 29.6101712,4.95589542 C29.6223571,4.95453595 29.6345429,4.95249673 29.6467288,4.95181699 C29.7496314,4.94298039 29.8532111,4.93822222 29.9574677,4.93822222 C29.9682996,4.93822222 29.9798084,4.9395817 29.9906403,4.9395817 C30.0657863,4.94026144 30.1402553,4.94637908 30.2154013,4.95181699 C30.2702376,4.95521569 30.3257509,4.95657516 30.3805872,4.96269281 C30.5112465,4.97628758 30.6419058,4.99667974 30.7718881,5.02454902 C30.8978084,5.05173856 31.0216978,5.08436601 31.1435562,5.12311111 C31.2572907,5.15981699 31.3696712,5.20264052 31.4793438,5.24886275 C31.5138704,5.26381699 31.5477199,5.2814902 31.5822465,5.29780392 C31.6560385,5.33179085 31.7291535,5.36645752 31.8002376,5.40520261 C31.8395031,5.42627451 31.8774146,5.44938562 31.9160031,5.47181699 C31.9803173,5.50988235 32.0439544,5.54862745 32.1062376,5.5900915 C32.1441491,5.61592157 32.1813836,5.64243137 32.2192951,5.66894118 C32.2795473,5.71312418 32.3384456,5.75798693 32.3959898,5.80488889 C32.4305164,5.83343791 32.4650429,5.86198693 32.4988925,5.89121569 C32.5577907,5.94287582 32.615335,5.9972549 32.6708482,6.05231373 C32.6992819,6.08086275 32.7290695,6.10873203 32.7568261,6.13796078 C32.8197863,6.20457516 32.8793615,6.27458824 32.9382597,6.34528105 C32.9558615,6.36703268 32.9748173,6.38742484 32.991742,6.40849673 C33.067565,6.50501961 33.1400031,6.60426144 33.2077022,6.70894118 L37.1870562,4.11981699 L37.1870562,4.11913725" id="Fill-16" fill="#C40041"></path>
                    <path d="M6.52111726,5.56419346 C7.1683208,5.14207582 7.89608628,4.94019346 8.61572788,4.94019346 C9.88305531,4.94019346 11.1253341,5.56419346 11.8646084,6.71023268 C12.4258341,7.57757908 12.6167456,8.61418039 12.4007854,9.62767059 C12.2125819,10.5133699 11.7353031,11.2869124 11.0400332,11.8449778 L17.1234757,7.45522614 C16.9366261,6.27995817 16.5080907,5.14683399 15.8439624,4.11906928 C14.5942367,2.18181438 12.6668429,0.849526797 10.4192323,0.367592157 C8.16891372,-0.113662745 5.86917478,0.311173856 3.94042699,1.5686902 L6.52111726,5.56283399 L6.52111726,5.56419346 Z" id="Fill-26" fill="#FF4785"></path>
                    <path d="M29.1593628,12.6128784 C28.150646,12.3967216 27.2854513,11.7978719 26.7235487,10.9284863 C25.5658938,9.13397647 26.0770221,6.72770196 27.8649558,5.5633098 L21.4700973,10.1787346 C21.651531,11.3356497 22.0699115,12.473532 22.7441947,13.5182902 C24.3906372,16.0686693 27.1575,17.4573752 29.9791991,17.4573752 C31.5836681,17.4573752 33.204385,17.008068 34.6470531,16.0707085 L32.0670398,12.073166 C31.2011681,12.6387085 30.1714646,12.8283556 29.1593628,12.6128784" id="Fill-27" fill="#FF4785"></path>
                    <path d="M6.52111726,5.56290196 L3.94042699,1.56807843 C-0.0409579646,4.16060131 -1.17965708,9.52101961 1.40103319,13.5178824 L5.38106416,10.9287582 C5.16307301,10.5922876 5.00465708,10.2340654 4.90243142,9.86700654 C4.80020575,9.49926797 4.75417035,9.12269281 4.76094027,8.74951634 C4.78531195,7.50423529 5.40408186,6.29090196 6.52111726,5.56290196" id="Fill-29" fill="#D62560"></path>
                    <path d="M33.7438792,9.62739869 C33.528596,10.6415686 32.9335208,11.5095948 32.0676491,12.073098 L34.6476624,16.0706405 C36.5764102,14.8138039 37.9033128,12.8799477 38.3826226,10.6218562 C38.4503217,10.3023791 38.4983881,9.98154248 38.5302066,9.66138562 C38.5525473,9.4370719 38.5667642,9.21275817 38.5715031,8.98980392 C38.5721801,8.96805229 38.5735341,8.94698039 38.5742111,8.92522876 C38.5985827,7.23335948 38.1253659,5.57139869 37.1877332,4.11947712 L33.2077022,6.70860131 C33.7689279,7.57866667 33.9598394,8.61458824 33.7438792,9.62739869 Z" id="Fill-30" fill="#D62560"></path>
                </g>
            </g>
        </g>
    </g>
</svg>