<svg width="128" height="36" viewBox="0 0 128 36" fill="none" xmlns="http://www.w3.org/2000/svg">
<g clip-path="url(#clip0)">
<path d="M42.0438 21.0568H42.2462C43.4607 21.3315 44.6077 21.4689 45.6872 21.4689C47.3064 21.4689 48.5209 21.0568 48.5209 19.7516C48.5209 17.2788 42.0438 18.2404 42.0438 14.119C42.0438 11.8521 44.2028 10.6844 46.9691 10.6844C48.0486 10.6844 49.1281 10.8218 50.1402 11.1652V13.0199H49.9378C48.7908 12.6764 47.8462 12.5391 46.9691 12.5391C45.6872 12.5391 44.3378 12.8138 44.3378 14.119C44.3378 16.4545 50.8149 15.5615 50.8149 19.5456C50.8149 22.4306 48.386 23.3236 45.6872 23.3236C44.3378 23.3236 43.0559 23.1175 42.1113 22.9114V21.0568H42.0438Z" fill="#F94C43"/>
<path d="M72.5401 22.8428C71.7979 23.1175 70.9208 23.3236 69.9087 23.3236C68.6268 23.3236 66.5353 23.0488 66.5353 20.1638V12.8138H64.916V11.0278H66.5353V8.2115L68.4244 7.79935H68.6268V11.0278H72.7425V12.8138H68.6268V20.0951C68.6268 21.4002 69.7738 21.4689 70.3136 21.4689C70.8533 21.4689 71.663 21.2629 72.3376 21.0568L72.5401 22.8428Z" fill="#F94C43"/>
<path d="M80.2991 21.0568H80.5015C81.7159 21.3315 82.8629 21.4689 83.9424 21.4689C85.5617 21.4689 86.7761 21.0568 86.7761 19.7516C86.7761 17.2788 80.2991 18.2404 80.2991 14.119C80.2991 11.8521 82.4581 10.6844 85.2243 10.6844C86.3038 10.6844 87.3833 10.8218 88.3954 11.1652V13.0199H88.193C87.046 12.6764 86.1014 12.5391 85.2243 12.5391C83.9424 12.5391 82.593 12.8138 82.593 14.119C82.593 16.4545 89.0701 15.5615 89.0701 19.5456C89.0701 22.4306 86.6412 23.3236 83.9424 23.3236C82.593 23.3236 81.3111 23.1175 80.3665 22.9114V21.0568H80.2991Z" fill="#F94C43"/>
<path d="M91.8363 11.0965L93.7255 10.6844H93.9954V12.2643C95.2098 11.3713 96.6267 10.6844 98.4484 10.6844C101.215 10.6844 103.306 12.5391 103.306 16.5232C103.306 20.4386 101.215 23.3236 96.7616 23.3236C95.7496 23.3236 94.8725 23.1862 93.9954 23.0488V28.8876L92.1062 29.2997H91.8363V11.0965ZM93.9279 21.1942C94.7375 21.3315 95.6147 21.4689 96.7616 21.4689C99.3929 21.4689 101.012 19.889 101.012 16.7979C101.012 13.9816 100 12.5391 97.9086 12.5391C96.6942 12.5391 95.2773 13.0199 93.9279 14.1876V21.1942Z" fill="#F94C43"/>
<path d="M120.848 22.8428L116.598 11.0965H119.027L122.063 20.3012H122.265L125.571 11.0965H128L123.345 23.461C122.198 26.4834 120.848 27.9946 118.554 29.3684L117.34 27.9259C119.634 26.346 120.241 25.453 121.118 23.3923" fill="#F94C43"/>
<path d="M114.709 22.9114L112.954 23.2549H112.684V21.6063H112.617C111.47 22.4306 110.121 23.2549 108.299 23.2549C106.68 23.2549 104.993 22.1558 104.993 19.9577C104.993 17.004 107.759 16.5918 109.244 16.3858L112.55 15.9736V15.1493C112.55 13.0886 111.537 12.5391 109.716 12.5391C109.041 12.5391 107.287 12.7451 105.87 13.3633L105.6 11.5087C106.747 11.0965 108.569 10.7531 110.053 10.7531C112.684 10.7531 114.641 11.7834 114.641 15.1493V22.9114H114.709ZM112.55 17.4161L109.109 17.897C108.231 18.0344 107.219 18.3778 107.219 19.7516C107.219 20.7133 107.962 21.4002 109.041 21.4002C110.188 21.4002 111.537 20.7133 112.55 19.9577V17.4161Z" fill="#F94C43"/>
<path d="M62.4196 15.1493C62.4196 11.7834 60.463 10.7531 57.8317 10.7531C56.3474 10.7531 54.5257 11.0965 53.3787 11.5087L53.6486 13.3633C55.0654 12.7451 56.7522 12.5391 57.4943 12.5391C59.316 12.5391 60.3281 13.0886 60.3281 15.1493V15.9736L57.0221 16.3858C55.5377 16.5918 52.7715 17.004 52.7715 19.9577C52.7715 22.1558 54.4582 23.2549 56.0775 23.2549C57.8992 23.2549 59.2485 22.4306 60.3955 21.6063H60.463V23.2549H60.7329L62.4871 22.9114V15.1493H62.4196ZM60.3281 20.0264C59.316 20.7133 57.9666 21.4689 56.8197 21.4689C55.7401 21.4689 54.998 20.782 54.998 19.8203C54.998 18.4465 56.01 18.1031 56.8871 17.9657L60.3281 17.4848V20.0264Z" fill="#F94C43"/>
<path d="M76.993 10.6844L75.1039 11.0965V23.2549H75.3738L77.2629 22.8428V10.6844H76.993Z" fill="#F94C43"/>
<path d="M76.993 6.63159L75.1039 6.97505V9.10448H75.3738L77.2629 8.76103V6.63159H76.993Z" fill="#F94C43"/>
<path d="M17.9387 35.7632C27.6654 35.7632 35.5504 27.7679 35.5504 17.9053C35.5504 8.04261 27.6654 0.0473633 17.9387 0.0473633C8.21204 0.0473633 0.327026 8.04261 0.327026 17.9053C0.327026 27.7679 8.21204 35.7632 17.9387 35.7632Z" fill="#F94C43"/>
<path d="M24.3854 7.24738C24.5722 7.0579 24.4321 6.67896 24.1518 6.67896H19.2L22.0963 9.6158L24.3854 7.24738Z" fill="white"/>
<path d="M17.4715 14.2579L13.9212 10.6579L10.7445 13.9263L7.42774 17.2895C7.2876 17.4316 7.2876 17.6211 7.42774 17.7632L10.7445 21.1263L13.9212 24.3474L17.4715 20.7474L14.5285 17.7632L14.2949 17.5263L14.5285 17.2895L17.4715 14.2579Z" fill="white"/>
<path d="M22.0963 25.3895L19.2467 28.2789H24.1518C24.4321 28.2789 24.619 27.9 24.3854 27.7105L22.0963 25.3895Z" fill="white"/>
<path d="M28.5898 17.2895L25.273 13.9263L21.5358 10.1369L18.219 6.77369C18.1723 6.72632 18.0789 6.67896 17.9855 6.67896H11.8657C11.5855 6.67896 11.3986 7.0579 11.6322 7.24738L14.4818 10.1369L18.0322 13.7368L21.5358 17.2895L21.7694 17.5263L21.4891 17.7632L17.9855 21.3158L14.4818 24.8684L11.6322 27.7579C11.3986 27.9474 11.5855 28.3263 11.8657 28.3263H17.9855C18.0789 28.3263 18.1723 28.279 18.219 28.2316L21.5358 24.8684L25.273 21.079L28.5898 17.7158C28.6833 17.6211 28.6833 17.3842 28.5898 17.2895Z" fill="white"/>
</g>
<defs>
<clipPath id="clip0">
<rect width="128" height="36" fill="white"/>
</clipPath>
</defs>
</svg>
