<svg width="115" height="32" viewBox="0 0 115 32" fill="none" xmlns="http://www.w3.org/2000/svg">
<g clip-path="url(#clip0)">
<path d="M31.8638 7.76653H28.9527V6.19392H36.6465L36.4256 7.76653H33.7223V15.3694H31.8638V7.76653Z" fill="#071A57"/>
<path d="M38.9852 8.52028V15.3694H37.2436V8.52028H38.9852ZM38.9852 6.19392V7.57159H37.2436V6.19392H38.9852" fill="#071A57"/>
<path d="M44.6126 15.2004C44.1837 15.3954 43.6249 15.4993 43.1051 15.4993C40.9735 15.4993 39.531 14.1087 39.531 11.9513C39.531 9.83283 40.9735 8.42929 43.1051 8.42929C43.8718 8.42929 44.4826 8.58524 45.0934 8.88414L44.5606 10.2227C44.2487 10.0278 43.8067 9.87181 43.3389 9.87181C42.1563 9.87181 41.3505 10.6647 41.3505 11.9513C41.3505 13.186 42.1173 14.0828 43.456 14.0567C43.9888 14.0567 44.4306 13.9007 44.7555 13.7319L44.6126 15.2004Z" fill="#071A57"/>
<path d="M47.4194 6.19392V11.3146H47.6533L49.7457 8.52028H51.6562L49.3299 11.4054H49.4988C50.3827 11.4054 50.6294 11.8344 50.8894 12.6012L51.2534 13.7969C51.4093 14.2648 51.6952 14.9795 51.9421 15.3694H50.0576C49.9667 15.1615 49.7847 14.7456 49.6418 14.3036L49.3169 13.264C49.1479 12.7181 48.966 12.4842 48.4332 12.4842H47.4194V15.3694H45.6908V6.19392H47.4194" fill="#071A57"/>
<path d="M53.4624 11.1715H56.9455C56.8155 10.2358 56.1786 9.68987 55.2559 9.68987C54.2941 9.68987 53.6573 10.3008 53.4624 11.1715V11.1715ZM57.2314 15.1744C56.7244 15.3954 56.0746 15.4993 55.4119 15.4993C53.1765 15.4993 51.6039 14.1217 51.6039 11.8994C51.6039 9.8978 53.0595 8.42929 55.2169 8.42929C57.5953 8.42929 58.83 10.0018 58.7909 12.3672H53.4884C53.6443 13.6408 54.7361 14.1736 55.7887 14.1736C56.3607 14.1736 56.8674 14.0437 57.3483 13.7969L57.2314 15.1744Z" fill="#071A57"/>
<path d="M59.1932 6.92168L60.9218 6.23291V8.52028H62.3124L62.0654 9.85883H60.9218V11.8474C60.9218 13.4979 61.7016 14.6416 62.2344 15.3694H60.3498C60.0121 14.8106 59.1802 13.7058 59.1932 11.7954V6.92168Z" fill="#071A57"/>
<path d="M1.85854 20.296C1.85854 20.803 2.15744 21.1279 2.91124 21.1279H4.44478C5.47148 21.1279 5.92643 20.5169 5.92643 19.7112C5.92643 18.6325 5.35457 18.2687 4.41883 18.2687H1.85854V20.296ZM5.02968 16.748C7.03111 16.748 7.92787 18.1647 7.92787 19.5163C7.92787 20.9849 6.88816 22.1027 5.65347 22.1545C6.99213 22.4926 7.16107 23.5063 7.61597 24.598C7.81091 25.0398 8.1228 25.6376 8.35678 25.9236H6.18634C6.0174 25.7676 5.77043 25.3387 5.60154 24.8708C5.13359 23.6102 4.95165 22.6096 3.58707 22.6096L2.91124 22.5964C2.07946 22.5964 2.01448 22.2455 1.85854 21.9466V25.9236H0V16.748H5.02968Z" fill="#071A57"/>
<path d="M10.1496 21.7257H13.6326C13.5026 20.79 12.8659 20.2442 11.9431 20.2442C10.9813 20.2442 10.3445 20.855 10.1496 21.7257ZM13.9186 25.7286C13.4117 25.9496 12.7619 26.0535 12.0991 26.0535C9.86361 26.0535 8.29108 24.6759 8.29108 22.4536C8.29108 20.452 9.7467 18.9835 11.9041 18.9835C14.2825 18.9835 15.5171 20.5559 15.4781 22.9213H10.1756C10.3316 24.195 11.4232 24.728 12.476 24.728C13.0478 24.728 13.5546 24.598 14.0355 24.351L13.9186 25.7286Z" fill="#071A57"/>
<path d="M16.1664 24.1691C16.7901 24.5199 17.4531 24.7409 18.1418 24.7409C18.6617 24.7409 19.0905 24.572 19.0905 24.0391C19.0905 23.5453 18.5577 23.3243 17.8819 23.0124L17.4401 22.8045C16.5432 22.4015 15.6985 21.9466 15.6985 20.868C15.6985 19.5163 16.9072 18.9835 18.2978 18.9835C19.1036 18.9835 19.9614 19.1524 20.7541 19.5163L20.2083 20.855C19.6495 20.4781 18.9606 20.2832 18.4147 20.2832C17.9209 20.2832 17.479 20.4002 17.479 20.8418C17.479 21.2319 18.0509 21.4268 18.6487 21.6997L19.0905 21.9078C20.0523 22.3497 20.897 22.8695 20.897 24.0261C20.897 25.4557 19.6105 26.0535 18.1678 26.0535C17.3491 26.0535 16.4653 25.9106 15.6595 25.5337L16.1664 24.1691" fill="#071A57"/>
<path d="M21.3125 17.4758L23.0411 16.7871V19.0744H24.4317L24.1848 20.4131H23.0411V22.4015C23.0411 24.0522 23.8208 25.1958 24.3536 25.9236H22.4691C22.1312 25.3647 21.2995 24.26 21.3125 22.3496V17.4758Z" fill="#071A57"/>
<path d="M28.1224 20.4781C26.9138 20.4781 26.1209 21.3878 26.1209 22.5186C26.1209 23.7012 26.8877 24.559 28.1224 24.559C29.3311 24.559 30.1368 23.7273 30.1368 22.5186C30.1368 21.3098 29.3311 20.4781 28.1224 20.4781V20.4781ZM31.9694 25.9236H30.2798V24.9619C29.708 25.6377 28.8111 26.0277 27.8235 26.0277C25.848 26.0277 24.3274 24.6759 24.3274 22.5576C24.3274 20.4781 25.874 18.9835 28.1354 18.9835C30.5007 18.9835 31.9694 20.4391 31.9694 22.6614V25.9236" fill="#071A57"/>
<path d="M37.3883 19.0744H39.1038V23.2464C39.1038 25.1568 37.7653 26.0535 35.9068 26.0535C34.0483 26.0535 32.7096 25.1568 32.7096 23.2464V19.0744H34.4251V22.8825C34.4251 23.9222 34.88 24.559 35.9068 24.559C36.9334 24.559 37.3883 23.9222 37.3883 22.8825V19.0744" fill="#071A57"/>
<path d="M43.6522 20.6469C43.5482 20.5951 43.2103 20.4909 42.8723 20.4909C41.8717 20.4909 41.6118 21.1279 41.6118 22.1545V25.9236H39.8962V21.7907C39.8962 19.7112 41.1569 18.9834 42.8333 18.9834C43.2883 18.9834 43.8341 19.1264 44.0031 19.1524L43.6522 20.6469" fill="#071A57"/>
<path d="M47.4468 20.4781C46.2382 20.4781 45.4453 21.3878 45.4453 22.5186C45.4453 23.7012 46.2122 24.559 47.4468 24.559C48.6555 24.559 49.4613 23.7273 49.4613 22.5186C49.4613 21.3098 48.6555 20.4781 47.4468 20.4781V20.4781ZM51.2938 25.9236H49.6042V24.9619C49.0324 25.6377 48.1356 26.0277 47.1479 26.0277C45.1724 26.0277 43.6519 24.6759 43.6519 22.5576C43.6519 20.4781 45.1984 18.9835 47.4598 18.9835C49.8251 18.9835 51.2938 20.4391 51.2938 22.6614V25.9236" fill="#071A57"/>
<path d="M56.7127 22.1545C56.7127 21.1149 56.2579 20.4781 55.2312 20.4781C54.2046 20.4781 53.7496 21.1149 53.7496 22.1545V25.9236H52.0341V21.7907C52.0341 19.8802 53.3727 18.9964 55.2312 18.9964C57.0897 18.9964 58.4284 19.8802 58.4284 21.7907V25.9236H56.7127V22.1545" fill="#071A57"/>
<path d="M59.1948 17.4758L60.9232 16.7871V19.0744H62.3139L62.0669 20.4131H60.9232V22.4015C60.9232 24.0522 61.7029 25.1958 62.2358 25.9236H60.3514C60.0134 25.3647 59.1816 24.26 59.1948 22.3496V17.4758Z" fill="#071A57"/>
<path d="M84.3961 14.0455C83.5202 14.0455 82.9627 14.6161 82.7902 15.3726H85.9092C85.8031 14.5366 85.2191 14.0455 84.3961 14.0455" fill="#D62525"/>
<path d="M76.0613 14.3772C74.9464 14.3772 74.2431 15.1471 74.2431 16.2223C74.2431 17.284 74.9598 18.0801 76.0613 18.0801C77.1628 18.0801 77.9062 17.3238 77.9062 16.2223C77.9062 15.1205 77.1628 14.3772 76.0613 14.3772Z" fill="#D62525"/>
<path d="M85.073 18.306C85.6703 18.306 86.2237 18.1336 86.7414 17.8946L86.5729 19.5005C85.9888 19.7394 85.2854 19.8324 84.5819 19.8324C82.2461 19.8324 80.6002 18.4652 80.6002 16.1425C80.6002 14.1251 82.0734 12.612 84.3298 12.612C86.8783 12.612 88.1524 14.2312 88.0992 16.7265H82.8432C83.0423 17.8681 84.1307 18.306 85.073 18.306ZM79.9503 15.8107C79.9503 18.3457 78.4504 19.8324 75.9684 19.8324C73.6722 19.8324 72.1194 18.2926 72.1194 16.2223C72.1194 14.0588 73.5925 12.612 75.796 12.612C76.8045 12.612 77.5478 13.0102 77.9196 13.4083V10.3292H79.9503V15.8107ZM98.5694 12.612C96.8955 12.612 95.5911 13.281 95.3784 15.0168C95.3628 15.0177 95.3886 15.0162 95.373 15.0171C94.8467 7.14898 88.6392 0.928605 80.6388 0.928605C74.3159 0.928605 68.9036 4.81561 66.6527 10.3292H72.0133L71.7347 12.1343H67.5272V14.0455H71.3365L71.0443 15.7841H67.5272V16.8991C67.5272 17.5759 67.8193 17.8946 68.3767 17.8946H71.9737L71.6818 19.6996H67.6998C67.5058 19.6996 67.3213 19.6819 67.1459 19.6501V19.6513C67.1459 19.6513 66.4564 19.5762 66.0297 19.0213C66.0192 19.0084 65.8454 18.8018 65.7598 18.4619C65.7374 18.373 65.736 18.367 65.7179 18.2983C65.7461 18.5232 65.7944 18.8244 65.8159 18.9366C65.9368 19.5661 66.0909 20.0994 66.1046 20.137C67.8933 26.4828 73.7207 31.1357 80.6388 31.1357C87.7153 31.1357 93.6931 26.2685 95.332 19.6996H93.302V16.0098C93.302 15.0144 92.917 14.3772 91.9348 14.3772C90.9527 14.3772 90.5679 15.0144 90.5679 16.0098V19.6996H88.537V15.5053C88.537 13.5013 89.997 12.612 91.9348 12.612C93.8727 12.612 95.3327 13.5013 95.3327 15.5053L95.332 19.6996H97.375V16.0098C97.375 15.0144 97.6405 14.3772 98.6092 14.3772C98.9145 14.3772 99.2863 14.4701 99.419 14.5366L99.8038 12.758C99.5783 12.7314 99.0075 12.612 98.5694 12.612" fill="#D42B1E"/>
<path d="M101.635 15.3726C101.808 14.6161 102.365 14.0455 103.241 14.0455C104.064 14.0455 104.648 14.5366 104.754 15.3726H101.635ZM103.175 12.612C100.919 12.612 99.4452 14.125 99.4452 16.1425C99.4452 18.4652 101.091 19.8323 103.427 19.8323C104.131 19.8323 104.834 19.7394 105.418 19.5004L105.586 17.8946C105.069 18.1334 104.515 18.306 103.918 18.306C102.976 18.306 101.887 17.8679 101.688 16.7264H106.944C106.998 14.2312 105.723 12.612 103.175 12.612" fill="#D42B1E"/>
<path d="M111.111 18.0801C110.01 18.0801 109.293 17.284 109.293 16.2222C109.293 15.1472 109.997 14.3772 111.111 14.3772C112.213 14.3772 112.956 15.1205 112.956 16.2222C112.956 17.3237 112.213 18.0801 111.111 18.0801V18.0801ZM112.97 10.3291V13.4083C112.598 13.0101 111.855 12.612 110.846 12.612C108.643 12.612 107.17 14.0588 107.17 16.2222C107.17 18.2926 108.722 19.8323 111.019 19.8323C113.501 19.8323 115 18.3456 115 15.8107V10.3291H112.97Z" fill="#D42B1E"/>
</g>
<defs>
<clipPath id="clip0">
<rect width="115" height="30.2071" fill="white" transform="translate(0 0.928589)"/>
</clipPath>
</defs>
</svg>
