<?xml version="1.0" encoding="UTF-8"?>
<svg xmlns="http://www.w3.org/2000/svg" xmlns:xlink="http://www.w3.org/1999/xlink" width="61pt" height="26pt" viewBox="0 0 61 26" version="1.1">
<g id="surface1">
<path style=" stroke:none;fill-rule:nonzero;fill:rgb(0%,0%,0%);fill-opacity:1;" d="M 11.191406 3.308594 C 10.476562 4.171875 9.332031 4.859375 8.1875 4.761719 C 8.046875 3.589844 8.605469 2.34375 9.261719 1.574219 C 9.976562 0.683594 11.230469 0.046875 12.242188 0 C 12.359375 1.21875 11.898438 2.417969 11.191406 3.308594 M 12.230469 4.992188 C 10.574219 4.894531 9.152344 5.957031 8.367188 5.957031 C 7.566406 5.957031 6.363281 5.042969 5.050781 5.066406 C 3.347656 5.089844 1.757812 6.078125 0.890625 7.652344 C -0.898438 10.800781 0.421875 15.464844 2.152344 18.027344 C 3 19.300781 4.011719 20.691406 5.347656 20.644531 C 6.613281 20.589844 7.117188 19.800781 8.640625 19.800781 C 10.179688 19.800781 10.625 20.644531 11.957031 20.617188 C 13.339844 20.589844 14.210938 19.347656 15.058594 18.078125 C 16.019531 16.636719 16.414062 15.234375 16.441406 15.15625 C 16.414062 15.136719 13.769531 14.097656 13.746094 10.976562 C 13.722656 8.363281 15.832031 7.117188 15.929688 7.042969 C 14.734375 5.234375 12.875 5.042969 12.230469 4.992188 M 21.804688 1.453125 L 21.804688 20.484375 L 24.695312 20.484375 L 24.695312 13.976562 L 28.691406 13.976562 C 32.339844 13.976562 34.90625 11.414062 34.90625 7.699219 C 34.90625 3.992188 32.386719 1.453125 28.785156 1.453125 Z M 24.695312 3.945312 L 28.019531 3.945312 C 30.527344 3.945312 31.960938 5.308594 31.960938 7.714844 C 31.960938 10.121094 30.527344 11.5 28.011719 11.5 L 24.695312 11.5 Z M 40.175781 20.628906 C 41.992188 20.628906 43.671875 19.6875 44.433594 18.199219 L 44.492188 18.199219 L 44.492188 20.484375 L 47.167969 20.484375 L 47.167969 11.007812 C 47.167969 8.261719 45.019531 6.496094 41.710938 6.496094 C 38.648438 6.496094 36.382812 8.289062 36.300781 10.753906 L 38.898438 10.753906 C 39.113281 9.582031 40.175781 8.8125 41.632812 8.8125 C 43.398438 8.8125 44.386719 9.65625 44.386719 11.207031 L 44.386719 12.253906 L 40.78125 12.476562 C 37.433594 12.683594 35.621094 14.089844 35.621094 16.527344 C 35.621094 18.992188 37.492188 20.628906 40.175781 20.628906 Z M 40.953125 18.371094 C 39.414062 18.371094 38.4375 17.617188 38.4375 16.453125 C 38.4375 15.257812 39.378906 14.5625 41.175781 14.453125 L 44.386719 14.246094 L 44.386719 15.316406 C 44.386719 17.101562 42.90625 18.371094 40.953125 18.371094 Z M 50.734375 25.65625 C 53.546875 25.65625 54.871094 24.558594 56.027344 21.226562 L 61.097656 6.679688 L 58.164062 6.679688 L 54.761719 17.917969 L 54.707031 17.917969 L 51.304688 6.679688 L 48.285156 6.679688 L 53.175781 20.53125 L 52.914062 21.371094 C 52.476562 22.800781 51.757812 23.347656 50.484375 23.347656 C 50.253906 23.347656 49.8125 23.328125 49.636719 23.300781 L 49.636719 25.585938 C 49.804688 25.632812 50.515625 25.65625 50.734375 25.65625 Z M 50.734375 25.65625 "/>
</g>
</svg>
