<?xml version="1.0" encoding="UTF-8"?>
<svg xmlns="http://www.w3.org/2000/svg" xmlns:xlink="http://www.w3.org/1999/xlink" width="64pt" height="26pt" viewBox="0 0 64 26" version="1.1">
<g id="surface1">
<path style=" stroke:none;fill-rule:nonzero;fill:rgb(37.254902%,38.823529%,40.784314%);fill-opacity:1;" d="M 30.191406 12.535156 L 30.191406 20.054688 L 27.835938 20.054688 L 27.835938 1.480469 L 34.082031 1.480469 C 35.589844 1.449219 37.042969 2.027344 38.125 3.089844 C 39.222656 4.089844 39.835938 5.515625 39.816406 7.011719 C 39.851562 8.511719 39.230469 9.949219 38.125 10.953125 C 37.035156 12.007812 35.6875 12.53125 34.082031 12.53125 L 30.191406 12.53125 Z M 30.191406 3.769531 L 30.191406 10.253906 L 34.140625 10.253906 C 35.015625 10.28125 35.859375 9.929688 36.46875 9.289062 C 37.078125 8.695312 37.417969 7.878906 37.417969 7.023438 C 37.417969 6.167969 37.078125 5.347656 36.46875 4.753906 C 35.867188 4.101562 35.023438 3.742188 34.140625 3.765625 L 30.191406 3.765625 Z M 30.191406 3.769531 "/>
<path style=" stroke:none;fill-rule:nonzero;fill:rgb(37.254902%,38.823529%,40.784314%);fill-opacity:1;" d="M 45.242188 6.933594 C 46.984375 6.933594 48.359375 7.402344 49.363281 8.34375 C 50.371094 9.289062 50.878906 10.582031 50.878906 12.222656 L 50.878906 20.054688 L 48.625 20.054688 L 48.625 18.292969 L 48.519531 18.292969 C 47.546875 19.746094 46.25 20.46875 44.628906 20.46875 C 43.246094 20.46875 42.089844 20.054688 41.160156 19.226562 C 40.257812 18.453125 39.742188 17.3125 39.765625 16.113281 C 39.765625 14.796875 40.257812 13.753906 41.238281 12.976562 C 42.21875 12.199219 43.527344 11.808594 45.167969 11.808594 C 46.566406 11.808594 47.714844 12.066406 48.625 12.585938 L 48.625 12.042969 C 48.628906 11.226562 48.269531 10.445312 47.648438 9.929688 C 47.027344 9.359375 46.214844 9.050781 45.375 9.058594 C 44.058594 9.058594 43.019531 9.621094 42.25 10.746094 L 40.175781 9.425781 C 41.320312 7.761719 43.007812 6.933594 45.242188 6.933594 Z M 42.199219 16.167969 C 42.191406 16.78125 42.484375 17.363281 42.980469 17.722656 C 43.5 18.136719 44.144531 18.359375 44.808594 18.34375 C 45.800781 18.339844 46.753906 17.945312 47.457031 17.230469 C 48.234375 16.484375 48.628906 15.613281 48.628906 14.609375 C 47.890625 14.019531 46.871094 13.722656 45.554688 13.722656 C 44.597656 13.722656 43.800781 13.953125 43.160156 14.421875 C 42.515625 14.898438 42.199219 15.472656 42.199219 16.167969 Z M 42.199219 16.167969 "/>
<path style=" stroke:none;fill-rule:nonzero;fill:rgb(37.254902%,38.823529%,40.784314%);fill-opacity:1;" d="M 63.804688 7.347656 L 55.945312 25.65625 L 53.515625 25.65625 L 56.429688 19.25 L 51.261719 7.347656 L 53.820312 7.347656 L 57.554688 16.476562 L 57.609375 16.476562 L 61.242188 7.347656 Z M 63.804688 7.347656 "/>
<path style=" stroke:none;fill-rule:nonzero;fill:rgb(25.882353%,52.156863%,95.686275%);fill-opacity:1;" d="M 20.671875 10.914062 C 20.675781 10.1875 20.613281 9.460938 20.492188 8.742188 L 10.558594 8.742188 L 10.558594 12.851562 L 16.25 12.851562 C 16.015625 14.179688 15.253906 15.351562 14.144531 16.097656 L 14.144531 18.765625 L 17.539062 18.765625 C 19.527344 16.90625 20.671875 14.160156 20.671875 10.914062 Z M 20.671875 10.914062 "/>
<path style=" stroke:none;fill-rule:nonzero;fill:rgb(20.392157%,65.882353%,32.54902%);fill-opacity:1;" d="M 10.558594 21.339844 C 13.402344 21.339844 15.792969 20.394531 17.539062 18.765625 L 14.144531 16.097656 C 13.203125 16.746094 11.984375 17.117188 10.558594 17.117188 C 7.8125 17.117188 5.480469 15.242188 4.644531 12.710938 L 1.148438 12.710938 L 1.148438 15.460938 C 2.933594 19.066406 6.578125 21.339844 10.558594 21.339844 Z M 10.558594 21.339844 "/>
<path style=" stroke:none;fill-rule:nonzero;fill:rgb(98.431373%,73.72549%,1.568627%);fill-opacity:1;" d="M 4.644531 12.710938 C 4.207031 11.390625 4.207031 9.953125 4.644531 8.625 L 4.644531 5.875 L 1.148438 5.875 C -0.347656 8.894531 -0.347656 12.449219 1.148438 15.460938 Z M 4.644531 12.710938 "/>
<path style=" stroke:none;fill-rule:nonzero;fill:rgb(91.764706%,26.27451%,20.784314%);fill-opacity:1;" d="M 10.558594 4.226562 C 12.0625 4.199219 13.511719 4.773438 14.597656 5.824219 L 17.605469 2.78125 C 15.703125 0.964844 13.175781 -0.03125 10.558594 0 C 6.578125 0 2.933594 2.273438 1.148438 5.875 L 4.644531 8.625 C 5.480469 6.097656 7.8125 4.226562 10.558594 4.226562 Z M 10.558594 4.226562 "/>
</g>
</svg>
