<svg width="50" height="39" viewBox="0 0 50 39" fill="none" xmlns="http://www.w3.org/2000/svg">
<g clip-path="url(#clip0)">
<path d="M48.9823 38.4526V38.5541H49.0756C49.0963 38.5541 49.1139 38.5491 49.1267 38.5412C49.1385 38.5334 49.1454 38.5196 49.1454 38.5028C49.1454 38.4861 49.1385 38.4733 49.1267 38.4654C49.1139 38.4565 49.0963 38.4526 49.0756 38.4526H48.9823ZM49.0766 38.3817C49.1247 38.3817 49.1621 38.3925 49.1886 38.4142C49.2151 38.4358 49.2279 38.4654 49.2279 38.5028C49.2279 38.5344 49.2181 38.56 49.1965 38.5806C49.1758 38.6003 49.1464 38.6132 49.1071 38.6181L49.2308 38.7609H49.1346L49.0196 38.6191H48.9823V38.7609H48.9017V38.3817H49.0766ZM49.052 38.8919C49.0963 38.8919 49.1375 38.8831 49.1749 38.8663C49.2132 38.8496 49.2466 38.8269 49.2751 38.7983C49.3035 38.7698 49.3261 38.7363 49.3428 38.6969C49.3586 38.6585 49.3674 38.6171 49.3674 38.5728C49.3674 38.5284 49.3586 38.4871 49.3428 38.4487C49.3261 38.4102 49.3035 38.3758 49.2751 38.3472C49.2466 38.3186 49.2132 38.296 49.1749 38.2792C49.1375 38.2635 49.0963 38.2556 49.052 38.2556C49.0078 38.2556 48.9656 38.2635 48.9273 38.2792C48.888 38.296 48.8536 38.3186 48.8251 38.3472C48.7966 38.3758 48.774 38.4102 48.7583 38.4487C48.7416 38.4871 48.7338 38.5284 48.7338 38.5728C48.7338 38.6171 48.7416 38.6585 48.7583 38.6969C48.774 38.7363 48.7966 38.7698 48.8251 38.7983C48.8536 38.8269 48.888 38.8496 48.9273 38.8663C48.9656 38.8831 49.0078 38.8919 49.052 38.8919V38.8919ZM49.052 38.164C49.11 38.164 49.1631 38.1748 49.2141 38.1965C49.2643 38.2172 49.3075 38.2467 49.3458 38.2841C49.3831 38.3206 49.4126 38.3639 49.4342 38.4142C49.4558 38.4634 49.4666 38.5166 49.4666 38.5728C49.4666 38.6289 49.4558 38.6821 49.4342 38.7314C49.4126 38.7806 49.3831 38.824 49.3458 38.8614C49.3075 38.8978 49.2643 38.9274 49.2141 38.9491C49.1631 38.9707 49.11 38.9816 49.052 38.9816C48.9931 38.9816 48.9391 38.9707 48.888 38.9491C48.8369 38.9274 48.7927 38.8978 48.7554 38.8614C48.718 38.824 48.6886 38.7806 48.6669 38.7314C48.6453 38.6821 48.6345 38.6289 48.6345 38.5728C48.6345 38.5166 48.6453 38.4634 48.6669 38.4142C48.6886 38.3639 48.718 38.3206 48.7554 38.2841C48.7927 38.2467 48.8369 38.2172 48.888 38.1965C48.9391 38.1748 48.9931 38.164 49.052 38.164V38.164ZM10.7765 36.7031C10.7765 35.9801 11.2491 35.3861 12.0212 35.3861C12.759 35.3861 13.2571 35.9545 13.2571 36.7031C13.2571 37.4518 12.759 38.0202 12.0212 38.0202C11.2491 38.0202 10.7765 37.4262 10.7765 36.7031V36.7031ZM14.098 36.7031V34.6463H13.206V35.1458C12.9231 34.7754 12.4938 34.5429 11.9102 34.5429C10.7598 34.5429 9.85797 35.4472 9.85797 36.7031C9.85797 37.9601 10.7598 38.8634 11.9102 38.8634C12.4938 38.8634 12.9231 38.6309 13.206 38.2605V38.7599H14.098V36.7031ZM44.2422 36.7031C44.2422 35.9801 44.7147 35.3861 45.4869 35.3861C46.2257 35.3861 46.7228 35.9545 46.7228 36.7031C46.7228 37.4518 46.2257 38.0202 45.4869 38.0202C44.7147 38.0202 44.2422 37.4262 44.2422 36.7031ZM47.5647 36.7031V32.9944H46.6717V35.1458C46.3887 34.7754 45.9594 34.5429 45.3759 34.5429C44.2255 34.5429 43.3236 35.4472 43.3236 36.7031C43.3236 37.9601 44.2255 38.8634 45.3759 38.8634C45.9594 38.8634 46.3887 38.6309 46.6717 38.2605V38.7599H47.5647V36.7031ZM25.1707 35.3437C25.7454 35.3437 26.1148 35.7053 26.2091 36.3416H24.0803C24.1756 35.7476 24.5351 35.3437 25.1707 35.3437ZM25.1884 34.5429C23.986 34.5429 23.145 35.4206 23.145 36.7031C23.145 38.0113 24.0203 38.8634 25.2483 38.8634C25.8663 38.8634 26.4321 38.7087 26.9302 38.2871L26.4931 37.6242C26.1492 37.899 25.7111 38.0546 25.2994 38.0546C24.7247 38.0546 24.2011 37.7877 24.0724 37.0469H27.1188C27.1277 36.9356 27.1365 36.8233 27.1365 36.7031C27.1277 35.4206 26.3378 34.5429 25.1884 34.5429ZM35.9595 36.7031C35.9595 35.9801 36.4321 35.3861 37.2042 35.3861C37.942 35.3861 38.4401 35.9545 38.4401 36.7031C38.4401 37.4518 37.942 38.0202 37.2042 38.0202C36.4321 38.0202 35.9595 37.4262 35.9595 36.7031V36.7031ZM39.281 36.7031V34.6463H38.389V35.1458C38.1051 34.7754 37.6768 34.5429 37.0932 34.5429C35.9428 34.5429 35.041 35.4472 35.041 36.7031C35.041 37.9601 35.9428 38.8634 37.0932 38.8634C37.6768 38.8634 38.1051 38.6309 38.389 38.2605V38.7599H39.281V36.7031ZM30.9217 36.7031C30.9217 37.9512 31.7882 38.8634 33.1105 38.8634C33.7285 38.8634 34.1401 38.7255 34.5861 38.3728L34.1578 37.6498C33.8228 37.8911 33.4711 38.0202 33.084 38.0202C32.3718 38.0113 31.8482 37.4951 31.8482 36.7031C31.8482 35.9111 32.3718 35.395 33.084 35.3861C33.4711 35.3861 33.8228 35.5151 34.1578 35.7565L34.5861 35.0335C34.1401 34.6808 33.7285 34.5429 33.1105 34.5429C31.7882 34.5429 30.9217 35.4551 30.9217 36.7031V36.7031ZM42.4228 34.5429C41.908 34.5429 41.573 34.7842 41.3411 35.1458V34.6463H40.457V38.7599H41.35V36.4539C41.35 35.7732 41.6418 35.395 42.2253 35.395C42.4061 35.395 42.5947 35.4206 42.7833 35.4984L43.0584 34.6552C42.8609 34.5774 42.6035 34.5429 42.4228 34.5429V34.5429ZM18.51 34.9734C18.0807 34.6897 17.4893 34.5429 16.837 34.5429C15.7976 34.5429 15.1286 35.0423 15.1286 35.8599C15.1286 36.5307 15.6267 36.9445 16.5442 37.0735L16.9657 37.1336C17.4549 37.2026 17.6858 37.3316 17.6858 37.5641C17.6858 37.8822 17.3596 38.0635 16.7505 38.0635C16.1326 38.0635 15.6866 37.8655 15.386 37.633L14.9655 38.3295C15.4547 38.691 16.0727 38.8634 16.7417 38.8634C17.9265 38.8634 18.6132 38.3038 18.6132 37.5207C18.6132 36.7977 18.0728 36.4194 17.1798 36.2904L16.7594 36.2293C16.3733 36.1781 16.0638 36.1013 16.0638 35.8254C16.0638 35.524 16.3556 35.3437 16.8448 35.3437C17.3685 35.3437 17.8754 35.5417 18.1239 35.6964L18.51 34.9734ZM30.0199 34.5429C29.5051 34.5429 29.1701 34.7842 28.9392 35.1458V34.6463H28.0551V38.7599H28.9471V36.4539C28.9471 35.7732 29.2389 35.395 29.8224 35.395C30.0032 35.395 30.1918 35.4206 30.3804 35.4984L30.6555 34.6552C30.458 34.5774 30.2007 34.5429 30.0199 34.5429V34.5429ZM22.4072 34.6463H20.9484V33.3983H20.0465V34.6463H19.2144V35.4639H20.0465V37.3405C20.0465 38.295 20.4159 38.8634 21.471 38.8634C21.8581 38.8634 22.3041 38.7432 22.587 38.5452L22.3296 37.7788C22.0634 37.9335 21.7716 38.0113 21.5398 38.0113C21.0938 38.0113 20.9484 37.7355 20.9484 37.3227V35.4639H22.4072V34.6463ZM9.0691 38.7599V36.1781C9.0691 35.2058 8.45116 34.5518 7.455 34.5429C6.93138 34.534 6.39106 34.6976 6.01283 35.2748C5.7299 34.8187 5.28389 34.5429 4.65711 34.5429C4.21896 34.5429 3.79063 34.6719 3.45563 35.1536V34.6463H2.56262V38.7599H3.46349V36.4795C3.46349 35.7654 3.85841 35.3861 4.46849 35.3861C5.06088 35.3861 5.36051 35.7732 5.36051 36.4707V38.7599H6.26236V36.4795C6.26236 35.7654 6.67399 35.3861 7.26638 35.3861C7.87547 35.3861 8.16725 35.7732 8.16725 36.4707V38.7599H9.0691Z" fill="#231F20"/>
<path d="M49.5324 25.0795V24.4786H49.3762L49.1954 24.8913L49.0157 24.4786H48.8585V25.0795H48.9695V24.6263L49.1385 25.0174H49.2534L49.4224 24.6254V25.0795H49.5324ZM48.5412 25.0795V24.581H48.7416V24.4796H48.2307V24.581H48.4311V25.0795H48.5412Z" fill="#F79410"/>
<path d="M31.7705 27.6642H18.251V3.30176H31.7705V27.6642Z" fill="#FF5F00"/>
<path d="M19.1171 15.481C19.1171 10.539 21.4248 6.13673 25.0184 3.29976C22.3905 1.22523 19.0739 -0.0129888 15.4694 -0.0129888C6.93623 -0.0129888 0.019104 6.92379 0.019104 15.481C0.019104 24.0382 6.93623 30.975 15.4694 30.975C19.0739 30.975 22.3905 29.7368 25.0184 27.6622C21.4248 24.8253 19.1171 20.423 19.1171 15.481Z" fill="#EB001B"/>
<path d="M50.004 15.481C50.004 24.0382 43.0869 30.975 34.5537 30.975C30.9492 30.975 27.6326 29.7368 25.0037 27.6622C28.5983 24.8253 30.906 20.423 30.906 15.481C30.906 10.539 28.5983 6.13673 25.0037 3.29976C27.6326 1.22523 30.9492 -0.0129888 34.5537 -0.0129888C43.0869 -0.0129888 50.004 6.92379 50.004 15.481Z" fill="#F79E1B"/>
</g>
<defs>
<clipPath id="clip0">
<rect width="50" height="39" fill="white"/>
</clipPath>
</defs>
</svg>
