<svg width="79" height="35" viewBox="0 0 79 35" fill="none" xmlns="http://www.w3.org/2000/svg">
<path d="M29.9942 0.448145L19.6516 24.9968H12.9035L7.81344 5.40484C7.50524 4.20092 7.23689 3.75779 6.29766 3.24893C4.76272 2.41938 2.22802 1.64353 0 1.16076L0.150317 0.448145H11.014C12.3966 0.448145 13.6415 1.36401 13.9578 2.94983L16.6473 17.1565L23.287 0.448145H29.9942ZM39.1166 0.448145L33.8384 24.9968H27.4545L32.7327 0.448145H39.1166ZM56.4333 16.9818C56.4601 10.5041 47.4305 10.1447 47.4895 7.25011C47.5112 6.37038 48.3536 5.43344 50.1977 5.19407C51.1112 5.07663 53.6348 4.98279 56.4934 6.2931L57.6117 1.08448C56.0757 0.531953 54.0994 0 51.6408 0C45.3301 0 40.8907 3.33474 40.8554 8.11378C40.814 11.6488 44.0261 13.619 46.4418 14.7963C48.9301 15.9987 49.7644 16.7716 49.7528 17.846C49.7352 19.493 47.7659 20.2222 45.9349 20.2493C42.7242 20.3 40.8629 19.3862 39.3784 18.6981L38.2198 24.0794C39.7134 24.7604 42.466 25.3521 45.317 25.3822C52.0257 25.3822 56.4137 22.0856 56.4333 16.9818ZM73.0978 24.9968H79L73.8433 0.448145H68.3976C67.1694 0.448145 66.1373 1.15725 65.6793 2.24775L56.1004 24.9968H62.8041L64.1338 21.3298H72.324L73.0978 24.9968ZM65.9719 16.2993L69.3333 7.08049L71.2642 16.2993H65.9719ZM47.2866 31.754H44.6928V34.1558H47.5943V34.8779H43.8187V28.2145H47.4454V28.9366H44.6928V31.0418H47.2866V31.754ZM48.9342 27.859H49.8084V34.8777H48.9342V27.859ZM52.0136 32.6434C52.0332 33.8202 52.7788 34.3045 53.6625 34.3045C54.289 34.3045 54.6764 34.1956 54.9947 34.0576L55.1536 34.6803C54.8454 34.8184 54.3092 34.9865 53.5435 34.9865C52.0635 34.9865 51.1793 34.0079 51.1793 32.5646C51.1793 31.1213 52.0332 29.9941 53.4345 29.9941C55.0143 29.9941 55.4219 31.3587 55.4219 32.2384C55.4219 32.416 55.4118 32.5445 55.3917 32.6434H52.0136ZM54.577 32.0206C54.5871 31.4771 54.3485 30.6169 53.3649 30.6169C52.4706 30.6169 52.0928 31.4179 52.0231 32.0206H54.577ZM60.1793 34.7097C59.9508 34.8186 59.4438 34.9867 58.7982 34.9867C57.3475 34.9867 56.4037 34.0081 56.4037 32.5447C56.4037 31.0718 57.4166 29.9943 58.9868 29.9943C59.5034 29.9943 59.9604 30.1223 60.199 30.2513L60.0007 30.9137C59.7914 30.8048 59.4635 30.6859 58.9868 30.6859C57.8837 30.6859 57.288 31.5064 57.288 32.4955C57.288 33.6026 58.0032 34.2846 58.9571 34.2846C59.4539 34.2846 59.7818 34.1662 60.03 34.0573L60.1793 34.7097ZM62.6319 28.9463V30.093H63.8834V30.7549H62.6319V33.3354C62.6319 33.9291 62.8009 34.2648 63.2877 34.2648C63.5258 34.2648 63.6655 34.2452 63.7946 34.2051L63.8345 34.868C63.6655 34.9273 63.3971 34.9865 63.0592 34.9865C62.6516 34.9865 62.3237 34.848 62.1154 34.6211C61.8768 34.3536 61.7774 33.9291 61.7774 33.3655V30.7549H61.0319V30.093H61.7774V29.2032L62.6319 28.9463ZM65.1048 31.5859C65.1048 31.0223 65.0942 30.538 65.0649 30.0929H65.8301L65.87 31.0419H65.8992C66.1182 30.3995 66.6544 29.994 67.2405 29.994C67.3303 29.994 67.3999 30.0041 67.4796 30.0136V30.8346C67.3898 30.8146 67.301 30.8146 67.181 30.8146C66.5656 30.8146 66.1277 31.2692 66.0087 31.9221C65.989 32.0406 65.9789 32.1886 65.9789 32.3276V34.878H65.1048V31.5859ZM72.8538 32.4458C72.8538 34.2153 71.6114 34.9866 70.4588 34.9866C69.167 34.9866 68.1541 34.0371 68.1541 32.5251C68.1541 30.9332 69.217 29.9943 70.5385 29.9943C71.9196 29.9943 72.8538 30.9925 72.8538 32.4458ZM69.048 32.4955C69.048 33.5433 69.6442 34.3342 70.4987 34.3342C71.3335 34.3342 71.959 33.5529 71.959 32.4754C71.959 31.6649 71.5519 30.6462 70.5184 30.6462C69.4954 30.6462 69.048 31.5957 69.048 32.4955ZM74.1936 31.3879C74.1936 30.884 74.1831 30.4886 74.1538 30.0931H74.9286L74.9785 30.884H74.9982C75.2368 30.4389 75.7932 29.9942 76.5881 29.9942C77.2535 29.9942 78.287 30.3897 78.287 32.0302V34.8777H77.4128V32.1195C77.4128 31.3487 77.1248 30.7059 76.3001 30.7059C75.7336 30.7059 75.2862 31.1113 75.1278 31.5956C75.0875 31.7045 75.0678 31.8526 75.0678 32.0011V34.8777H74.1936V31.3879Z" fill="#1A1F71"/>
</svg>
