<svg width="82" height="36" viewBox="0 0 82 36" fill="none" xmlns="http://www.w3.org/2000/svg">
<path d="M34.3068 35.5163L0.430542 35.5282V35.4477C0.430542 35.4034 0.484572 35.1163 0.550606 34.8096C0.616641 34.5029 0.719305 34.0151 0.778747 33.7255C0.838185 33.436 0.939815 32.944 1.00459 32.6322C1.06936 32.3204 1.17698 31.801 1.24374 31.4781C1.3105 31.1551 1.41508 30.6449 1.47614 30.3442C1.5372 30.0435 1.63914 29.5515 1.70269 29.2508C1.76622 28.9502 1.87455 28.4308 1.94341 28.0967C2.01227 27.7626 2.11695 27.2524 2.17603 26.9629C2.23511 26.6733 2.32899 26.2269 2.38466 25.9707C2.44033 25.7146 2.5113 25.3684 2.54237 25.2013C2.57345 25.0343 2.67399 24.5423 2.76581 24.108C2.85763 23.6737 2.95899 23.1817 2.99107 23.0146C3.02314 22.8476 3.12496 22.3556 3.21733 21.9213C3.3097 21.4869 3.41118 20.9949 3.44283 20.8279C3.47448 20.6608 3.57652 20.1688 3.66958 19.7345C3.76264 19.3002 3.86309 18.8173 3.89279 18.6614C3.92249 18.5055 4.00384 18.1046 4.07356 17.7705C4.14328 17.4364 4.27521 16.8078 4.36674 16.3734C4.45827 15.9391 4.61482 15.1829 4.71463 14.6929C4.81444 14.2029 4.93371 13.6198 4.97968 13.3971C5.02565 13.1743 5.10877 12.7734 5.1644 12.5062C5.22003 12.2389 5.32104 11.756 5.38887 11.4331C5.45671 11.1101 5.56707 10.5817 5.63413 10.2587C5.70119 9.93576 5.80453 9.43464 5.86377 9.1451C5.92301 8.85556 6.02411 8.37266 6.08845 8.07198C6.15278 7.77131 6.26344 7.24285 6.33436 6.89763C6.40528 6.55241 6.52408 6.02395 6.59836 5.72327C6.67264 5.4226 6.77766 5.05815 6.83173 4.91338C6.88581 4.76861 7.03509 4.45478 7.16348 4.21599L7.39691 3.78182L7.60912 3.50733C7.72583 3.35636 7.93421 3.11779 8.07218 2.97719C8.21015 2.83658 8.44297 2.62501 8.58954 2.50702C8.73612 2.38904 8.94829 2.22981 9.06104 2.15318C9.17379 2.07656 9.39519 1.9424 9.55304 1.85507C9.71089 1.76773 9.93229 1.65336 10.045 1.60091C10.1578 1.54847 10.3884 1.45275 10.5575 1.38821C10.7267 1.32366 11.0495 1.21548 11.275 1.14779C11.5005 1.08011 11.9238 0.978084 12.2157 0.921077C12.5075 0.864069 12.9688 0.787927 13.2407 0.751872L13.735 0.686319L47.6318 0.673573L81.5285 0.660828V0.741307C81.5285 0.78557 81.4742 1.07271 81.4077 1.37939C81.3412 1.68607 81.2302 2.21034 81.1609 2.54442C81.0916 2.8785 80.9905 3.36141 80.9362 3.61754C80.8819 3.87367 80.779 4.36568 80.7077 4.7109C80.6363 5.05612 80.5265 5.58458 80.4637 5.88525C80.4009 6.18593 80.2992 6.67794 80.2377 6.97862C80.1762 7.27929 80.0739 7.77131 80.0103 8.07198C79.9467 8.37266 79.8481 8.84645 79.7912 9.12485C79.7343 9.40325 79.6313 9.90438 79.5623 10.2385C79.4933 10.5725 79.3825 11.101 79.3161 11.4128C79.2496 11.7246 79.1484 12.2075 79.0911 12.4859C79.0338 12.7643 78.9308 13.2655 78.862 13.5995C78.7933 13.9336 78.6828 14.4621 78.6163 14.7739C78.5499 15.0857 78.4509 15.5595 78.3963 15.8268C78.3417 16.094 78.239 16.5952 78.1681 16.9404C78.0971 17.2856 77.9937 17.7867 77.9383 18.054C77.8828 18.3213 77.7838 18.795 77.7181 19.1069C77.6525 19.4187 77.5404 19.9562 77.4689 20.3015C77.3974 20.6467 77.2951 21.1387 77.2416 21.3948C77.188 21.6509 77.0877 22.1339 77.0188 22.4679C76.9498 22.802 76.8401 23.3305 76.7749 23.6423C76.7098 23.9541 76.6076 24.4461 76.5479 24.7357C76.4881 25.0252 76.3843 25.5263 76.3171 25.8493C76.25 26.1722 76.1402 26.7007 76.0733 27.0236C76.0064 27.3466 75.9061 27.8295 75.8504 28.0967C75.7948 28.364 75.693 28.856 75.6243 29.1901C75.5556 29.5242 75.4439 30.0506 75.376 30.36L75.2526 30.9225L75.1055 31.3117C75.0246 31.5257 74.9029 31.8101 74.8352 31.9438C74.7675 32.0774 74.6295 32.3132 74.5286 32.4677C74.4278 32.6222 74.2871 32.8202 74.2161 32.9077C74.1451 32.9952 73.9314 33.221 73.7413 33.4096L73.3955 33.7524L73.0628 33.9859C72.8798 34.1144 72.6826 34.245 72.6247 34.2762C72.5668 34.3074 72.3463 34.4186 72.1347 34.5232C71.9231 34.6279 71.6243 34.7611 71.4706 34.8192C71.3169 34.8773 71.0124 34.9763 70.7941 35.0391C70.5757 35.1019 70.3417 35.1637 70.274 35.1765C70.2064 35.1893 69.9715 35.2373 69.7522 35.2832C69.5328 35.3291 69.09 35.3976 68.7682 35.4355L68.183 35.5044L34.3068 35.5163V35.5163ZM22.2542 26.8616H23.1358L23.1607 26.7976C23.1743 26.7624 23.1855 26.6795 23.1855 26.6135C23.1855 26.5475 23.2146 26.3076 23.2501 26.0803C23.2856 25.853 23.369 25.3299 23.4353 24.9179C23.5017 24.5058 23.601 23.8863 23.6561 23.5411C23.7112 23.1958 23.7784 22.7539 23.8055 22.559C23.8326 22.3642 23.8656 22.2047 23.879 22.2047C23.8923 22.2047 23.9493 22.2908 24.0056 22.3961L24.108 22.5874L24.3353 22.8136L24.5626 23.0398L24.8424 23.1504L25.1222 23.261L25.4556 23.3037L25.789 23.3464L26.2123 23.3208L26.6355 23.2951L27.0938 23.178L27.552 23.0609L27.798 22.95C27.9333 22.889 28.1732 22.756 28.331 22.6544L28.618 22.4698L28.8856 22.2057C29.0328 22.0604 29.2404 21.8274 29.3469 21.688C29.4534 21.5485 29.5405 21.4242 29.5405 21.4118C29.5405 21.3993 29.5929 21.313 29.6568 21.2199C29.7208 21.1268 29.8517 20.8684 29.9477 20.6457C30.0437 20.4229 30.1938 20.022 30.2812 19.7548L30.4401 19.2688L30.5222 18.8479C30.5674 18.6164 30.6255 18.2337 30.6514 17.9975L30.6984 17.568L30.6712 17.2036L30.6441 16.8391L30.5585 16.4747L30.473 16.1102L30.3345 15.8374L30.196 15.5645L29.9285 15.2844L29.661 15.0043L29.3445 14.8428L29.028 14.6812L28.6795 14.5988L28.331 14.5164L27.9825 14.4911L27.634 14.4658L27.2458 14.5099L26.8576 14.554L26.5408 14.6339L26.2239 14.7138L25.9486 14.8396C25.7972 14.9088 25.5769 15.0264 25.4591 15.1008C25.3412 15.1753 25.2197 15.261 25.1889 15.2912C25.1582 15.3215 25.0846 15.3775 25.0254 15.4157L24.9178 15.4852L24.993 15.1296C25.0344 14.9339 25.069 14.7511 25.0699 14.7233L25.0715 14.6727H24.3199H23.5682L23.4364 15.4927C23.3639 15.9437 23.2494 16.6407 23.182 17.0416C23.1146 17.4425 23.013 18.0439 22.9562 18.3779C22.8993 18.712 22.798 19.3043 22.7309 19.694C22.6639 20.0838 22.553 20.7034 22.4846 21.0709C22.4162 21.4384 22.316 21.9759 22.2619 22.2655C22.2078 22.555 22.1061 23.1017 22.0357 23.4803C21.9654 23.8589 21.8524 24.4603 21.7846 24.8166C21.7168 25.173 21.6065 25.7379 21.5394 26.072C21.4723 26.4061 21.4074 26.7204 21.3951 26.7705L21.3727 26.8616H22.2542V26.8616ZM26.0493 22.1797L25.707 22.2L25.4833 22.161L25.2595 22.122L25.0323 22.0195L24.805 21.917L24.6463 21.7673L24.4875 21.6175L24.3959 21.4151C24.3455 21.3037 24.2807 21.1145 24.252 20.9947L24.1998 20.7768L24.2207 20.4277L24.2416 20.0787L24.3473 19.5321C24.4054 19.2314 24.5097 18.6665 24.5791 18.2767C24.6485 17.8869 24.7536 17.3159 24.8126 17.0076L24.92 16.4472L25.155 16.254C25.2843 16.1477 25.489 16.0053 25.61 15.9375L25.83 15.8143L26.117 15.7265L26.404 15.6388L26.773 15.6174L27.142 15.596L27.4425 15.6592L27.743 15.7225L27.955 15.8189L28.167 15.9154L28.3448 16.092L28.5227 16.2685L28.6186 16.4555C28.6713 16.5583 28.7454 16.7596 28.7833 16.9028L28.852 17.1631L28.8309 17.9325L28.8099 18.7019L28.7046 19.1567C28.6467 19.4068 28.5364 19.7895 28.4596 20.0071L28.3199 20.4027L28.1488 20.7229C28.0547 20.8991 27.9096 21.1371 27.8264 21.2519C27.7432 21.3667 27.6105 21.5154 27.5315 21.5823C27.4526 21.6492 27.3204 21.7539 27.2378 21.8148L27.0876 21.9256L26.7396 22.0425L26.3917 22.1593L26.0493 22.1797V22.1797ZM34.563 23.2929L35.014 23.298L35.465 23.2574C35.7131 23.235 36.119 23.1885 36.367 23.154C36.6151 23.1195 37.0436 23.0422 37.3193 22.9823L37.8205 22.8734L37.8455 22.6909C37.8592 22.5905 37.9155 22.2918 37.9706 22.0269L38.0707 21.5454L38.0486 21.5236L38.0265 21.5018L37.8733 21.5749C37.789 21.6151 37.5265 21.711 37.2899 21.788L36.8598 21.928L36.4084 22.0143L35.957 22.1007L35.2395 22.1021L34.522 22.1035L34.276 22.0259C34.1407 21.9832 33.9417 21.9051 33.8338 21.8523L33.6376 21.7564L33.4756 21.6119L33.3137 21.4674L33.1873 21.2493L33.061 21.0311L32.9818 20.7575L32.9025 20.4839L32.902 19.9776L32.9014 19.4713L32.9717 19.0196L33.0421 18.5679L33.6591 18.5394L34.276 18.511L36.5567 18.5254L38.8374 18.5399L38.9063 18.2514C38.9441 18.0927 39.002 17.7647 39.0349 17.5225L39.0947 17.0821L39.096 16.7116L39.0973 16.3412L39.0323 16.0646L38.9674 15.7881L38.86 15.6049C38.801 15.5042 38.6969 15.3582 38.6288 15.2806C38.5607 15.2029 38.439 15.0934 38.3585 15.0372C38.2779 14.981 38.1198 14.8866 38.007 14.8274L37.802 14.7197L37.4439 14.6345L37.0857 14.5492L36.6444 14.5075L36.203 14.4659L35.793 14.4922L35.383 14.5186L34.891 14.6119L34.399 14.7052L34.0915 14.8266C33.9224 14.8934 33.6641 15.0152 33.5175 15.0973C33.371 15.1794 33.168 15.313 33.0665 15.3942C32.9651 15.4754 32.7894 15.6333 32.6761 15.745C32.5629 15.8568 32.3953 16.0576 32.3038 16.1912C32.2123 16.3248 32.072 16.5617 31.9921 16.7176C31.9121 16.8735 31.808 17.0922 31.7606 17.2036C31.7132 17.3149 31.6271 17.5427 31.5693 17.7098C31.5114 17.8768 31.4205 18.1957 31.3672 18.4184C31.3139 18.6411 31.2409 19.0078 31.2049 19.2331L31.1395 19.6429L31.1401 20.2455L31.1408 20.8481L31.2031 21.1114C31.2373 21.2561 31.3029 21.4748 31.3487 21.5973C31.3945 21.7198 31.4792 21.902 31.537 22.0022C31.5947 22.1025 31.718 22.2638 31.811 22.3608C31.904 22.4578 32.0723 22.605 32.185 22.6879C32.2978 22.7708 32.4985 22.8874 32.6311 22.947L32.8721 23.0554L33.2082 23.1357C33.3931 23.1798 33.6721 23.2321 33.8282 23.2519C33.9843 23.2717 34.315 23.2901 34.563 23.2929H34.563ZM35.3353 17.5883C34.2002 17.5883 33.2715 17.5803 33.2715 17.5705C33.2715 17.5607 33.32 17.4194 33.3792 17.2566C33.4384 17.0938 33.5423 16.8515 33.6102 16.7181L33.7336 16.4757L34.0048 16.2092L34.276 15.9428L34.5425 15.8169C34.6891 15.7477 34.8828 15.6723 34.973 15.6494C35.0632 15.6265 35.3215 15.5962 35.547 15.5819L35.957 15.556L36.2719 15.596L36.5867 15.636L36.8156 15.7394L37.0444 15.8429L37.1699 15.9766C37.2389 16.0501 37.3212 16.1583 37.3527 16.2171L37.41 16.3241L37.4478 16.5614L37.4857 16.7986L37.4424 17.1935L37.3991 17.5883H35.3353V17.5883ZM47.6013 23.2931L48.0525 23.2981L48.5648 23.2381C48.8465 23.2051 49.2216 23.1505 49.3982 23.1167C49.5748 23.0829 49.8608 23.0157 50.0337 22.9675C50.2066 22.9193 50.363 22.8671 50.3813 22.8516C50.3996 22.8361 50.4484 22.6523 50.4899 22.4432C50.5313 22.2341 50.5835 21.9536 50.6058 21.82C50.6282 21.6864 50.6397 21.5699 50.6315 21.5612C50.6233 21.5524 50.593 21.5637 50.5643 21.5862C50.5356 21.6088 50.3344 21.6924 50.1172 21.772L49.7224 21.9169L49.1602 22.0245L48.598 22.132L48.12 22.1159L47.642 22.0998L47.3705 22.0068L47.099 21.9138L46.8892 21.7326L46.6794 21.5513L46.5403 21.301L46.4011 21.0506L46.3348 20.7157L46.2685 20.3808L46.269 19.9463L46.2694 19.5118L46.3499 18.9854L46.4305 18.4589L46.5157 18.1755C46.5626 18.0196 46.6156 17.8373 46.6335 17.7705C46.6515 17.7037 46.7267 17.5124 46.8006 17.3453C46.8746 17.1783 47.0065 16.9201 47.0938 16.7716L47.2525 16.5016L47.4474 16.3021L47.6423 16.1027L47.8487 15.9762L48.0552 15.8498L48.3202 15.7691C48.466 15.7248 48.7237 15.6672 48.8928 15.6412L49.2003 15.5938L49.6513 15.6162L50.1023 15.6385L50.6353 15.7439L51.1683 15.8493L51.3851 15.9291C51.5043 15.9731 51.6071 16.009 51.6135 16.009C51.6198 16.009 51.6484 15.8587 51.677 15.6749C51.7056 15.4912 51.7565 15.1889 51.7901 15.0031C51.8237 14.8174 51.8431 14.6574 51.8332 14.6477C51.8233 14.6379 51.6631 14.6128 51.4772 14.5918C51.2912 14.5709 50.7859 14.5337 50.3542 14.5092L49.5693 14.4646L49.0158 14.5066L48.4623 14.5485L48.0523 14.6336L47.6423 14.7187L47.3783 14.823C47.2331 14.8804 47.0203 14.9839 46.9056 15.0531C46.7908 15.1223 46.6448 15.2153 46.581 15.2598C46.5172 15.3044 46.3237 15.4782 46.151 15.646L45.8369 15.9513L45.6616 16.2049C45.5652 16.3444 45.3985 16.6353 45.291 16.8513L45.0957 17.2441L44.946 17.6693C44.8636 17.9031 44.7487 18.2858 44.6905 18.5197L44.5847 18.9449L44.5463 19.3296L44.5079 19.7143L44.5084 20.2205L44.5088 20.7267L44.5475 21.0211L44.5862 21.3156L44.709 21.6185L44.8318 21.9214L44.9737 22.1404L45.1155 22.3594L45.341 22.5786L45.5666 22.7979L45.8052 22.9224L46.0437 23.047L46.3572 23.133C46.5296 23.1802 46.7787 23.2345 46.9107 23.2536C47.0427 23.2726 47.3538 23.2904 47.602 23.2931H47.6013ZM54.3455 23.2782L54.899 23.2625L55.2475 23.1744L55.596 23.0863L55.8215 22.981C55.9456 22.9231 56.1485 22.8088 56.2725 22.727C56.3966 22.6452 56.5885 22.4896 56.6991 22.3814C56.8098 22.2731 56.9738 22.0883 57.0636 21.9708C57.1535 21.8533 57.2325 21.7625 57.2391 21.769C57.2457 21.7755 57.225 21.9628 57.1931 22.1852C57.1612 22.4075 57.1348 22.7033 57.1343 22.8425L57.1336 23.0956H57.886H58.6385L58.6615 22.5186L58.6845 21.9415L58.7919 21.1923C58.8509 20.7803 58.9463 20.1698 59.0039 19.8358C59.0614 19.5017 59.1614 18.9368 59.226 18.5804C59.2907 18.2241 59.3932 17.6683 59.4538 17.3453L59.5639 16.7581L59.5676 16.251L59.5713 15.7438L59.4551 15.5094L59.339 15.275L59.1816 15.1257L59.0241 14.9764L58.7656 14.847L58.5071 14.7176L58.1218 14.633L57.7366 14.5483L57.2061 14.5085L56.6757 14.4686L55.9924 14.5103C55.6166 14.5333 55.0877 14.5787 54.8171 14.6111L54.3251 14.6701L53.9898 14.6714L53.6545 14.6726L53.6057 14.9055C53.5789 15.0336 53.5043 15.3378 53.44 15.5816C53.3757 15.8254 53.329 16.0308 53.3363 16.038C53.3436 16.0452 53.5229 16.005 53.7348 15.9487C53.9467 15.8923 54.3968 15.7997 54.7351 15.7428L55.3501 15.6394L55.9036 15.6168L56.4571 15.5943L56.8136 15.656L57.1701 15.7178L57.4081 15.8338L57.6461 15.9498L57.7793 16.1459L57.9126 16.3421L57.9107 16.6513L57.9088 16.9606L57.8382 17.3L57.7676 17.6394L56.2923 17.6446L54.8171 17.6499L54.3342 17.7806C54.0687 17.8525 53.7746 17.948 53.6808 17.9928C53.587 18.0376 53.4931 18.0742 53.4722 18.0742C53.4513 18.0742 53.2933 18.1607 53.1211 18.2665L52.8081 18.4587L52.5615 18.7018C52.4259 18.8355 52.2526 19.036 52.1765 19.1473C52.1004 19.2587 51.9766 19.4913 51.9016 19.6643L51.7651 19.9788L51.7025 20.3325L51.6398 20.6861V21.0572V21.4282L51.6997 21.7371L51.7595 22.046L51.8705 22.2475C51.9316 22.3583 52.0437 22.5206 52.1196 22.6082L52.2576 22.7674L52.5028 22.9145L52.748 23.0617L53.0287 23.1401C53.1831 23.1833 53.4181 23.2355 53.5509 23.2562L53.7923 23.2938L54.3458 23.2782L54.3455 23.2782ZM54.858 22.1458L54.53 22.1627L54.3128 22.1081C54.1933 22.078 54.012 22.011 53.9099 21.9591L53.7243 21.8648L53.6229 21.7459C53.5672 21.6805 53.4821 21.552 53.4338 21.4603L53.3459 21.2936L53.3287 20.9043L53.3115 20.515L53.381 20.2789C53.4192 20.149 53.5089 19.9237 53.5803 19.7781L53.71 19.5134L53.9586 19.2697L54.2071 19.0259L54.4711 18.9003L54.735 18.7748L55.063 18.6979L55.391 18.6209H56.416H57.441L57.5059 18.6474L57.5707 18.6739L57.5162 18.9916C57.4861 19.1664 57.4146 19.4824 57.3571 19.694C57.2996 19.9056 57.1981 20.2166 57.1315 20.3852C57.065 20.5538 57.0105 20.7028 57.0105 20.7164C57.0105 20.73 56.9432 20.8528 56.8608 20.9893L56.7111 21.2376L56.4652 21.4782C56.33 21.6105 56.2045 21.7188 56.1863 21.7188C56.1681 21.7188 56.0852 21.7644 56.0021 21.8201L55.851 21.9213L55.5185 22.0251L55.186 22.129L54.858 22.1458V22.1458ZM68.2035 23.2927L68.593 23.2975L68.962 23.2384C69.165 23.2058 69.4233 23.1534 69.536 23.1219C69.6488 23.0904 69.8517 23.0086 69.987 22.9401L70.233 22.8156L70.4447 22.6316L70.6563 22.4477L70.8792 22.1541C71.0018 21.9926 71.1128 21.8332 71.1259 21.7998L71.1497 21.739L71.129 21.9415C71.1176 22.0529 71.092 22.2351 71.0722 22.3464C71.0524 22.4578 71.024 22.6719 71.0091 22.8223L70.982 23.0956H71.7863H72.5905V22.8223V22.5489L72.7131 21.5163C72.7805 20.9484 72.8801 20.1921 72.9345 19.8358C72.989 19.4794 73.0729 18.9692 73.1212 18.7019C73.1694 18.4346 73.2548 17.9517 73.311 17.6288C73.3672 17.3058 73.4687 16.7409 73.5365 16.3734C73.6043 16.006 73.7129 15.4228 73.7778 15.0776C73.8427 14.7324 73.9435 14.1948 74.0018 13.883C74.0602 13.5712 74.1647 13.0245 74.2341 12.6682C74.3036 12.3118 74.405 11.8107 74.4595 11.5545C74.514 11.2984 74.5586 11.0752 74.5585 11.0585V11.0281H73.681H72.8035L72.7776 11.2812C72.7634 11.4204 72.6962 11.8805 72.6283 12.3037C72.5605 12.7269 72.4499 13.4011 72.3825 13.802C72.3152 14.2029 72.2503 14.5917 72.2383 14.6659L72.2165 14.8009L72.1472 14.7718C72.1091 14.7558 71.9027 14.6993 71.6885 14.6461L71.299 14.5495L70.766 14.5085L70.233 14.4675L69.782 14.5091L69.331 14.5506L68.921 14.6529L68.511 14.7553L68.1215 14.9429L67.732 15.1305L67.445 15.3404L67.158 15.5503L66.9101 15.8127C66.7738 15.9571 66.5769 16.1959 66.4725 16.3434L66.2827 16.6115L66.0598 17.0695C65.9373 17.3214 65.7881 17.6551 65.7284 17.811C65.6686 17.9669 65.5633 18.3125 65.4942 18.579L65.3687 19.0635L65.3069 19.6926L65.2451 20.3217L65.2915 20.8279L65.3379 21.3341L65.3928 21.5163C65.423 21.6165 65.4867 21.7951 65.5343 21.9131L65.6209 22.1277L65.7787 22.3387L65.9365 22.5498L66.1167 22.6955L66.297 22.8413L66.543 22.962C66.6783 23.0283 66.9052 23.1141 67.0473 23.1525C67.1895 23.191 67.4201 23.2372 67.5598 23.2551C67.6996 23.2731 67.9892 23.29 68.2035 23.2927H68.2035ZM68.9026 22.1437L68.593 22.16L68.3841 22.1228C68.2692 22.1024 68.0853 22.0476 67.9754 22.0011L67.7757 21.9166L67.6077 21.7806L67.4396 21.6446L67.3148 21.4083L67.1899 21.1721L67.133 20.9089L67.076 20.6457L67.0809 20.1192L67.0857 19.5928L67.1518 19.1271L67.2179 18.6614L67.3206 18.3375C67.3771 18.1593 67.4236 17.9912 67.4239 17.9639C67.4243 17.9366 67.4801 17.7908 67.5479 17.6399C67.6157 17.489 67.7291 17.2562 67.7998 17.1226C67.8705 16.989 68.0026 16.7806 68.0934 16.6597C68.1842 16.5387 68.3459 16.3564 68.4528 16.2547C68.5598 16.153 68.7298 16.0195 68.8308 15.9582L69.0143 15.8466L69.3367 15.7364L69.659 15.6263L70.3355 15.6259H71.012L71.4015 15.7326C71.6158 15.7913 71.8432 15.8594 71.907 15.8839L72.023 15.9284L72.0003 16.0396C71.9879 16.1007 71.9391 16.3694 71.892 16.6367C71.8449 16.9039 71.7521 17.4142 71.6858 17.7705C71.6194 18.1269 71.5175 18.6644 71.4593 18.9651C71.4011 19.2658 71.3167 19.6485 71.2719 19.8155C71.227 19.9826 71.1637 20.2139 71.1312 20.3297C71.0987 20.4454 71.0213 20.6459 70.9593 20.7751C70.8972 20.9044 70.7886 21.0921 70.7179 21.1923C70.6472 21.2926 70.5276 21.4314 70.4522 21.5009C70.3768 21.5703 70.2136 21.6938 70.0895 21.7752L69.864 21.9232L69.5381 22.0254L69.2122 22.1275L68.9026 22.1437V22.1437ZM8.56074 23.0956H9.55693L9.6284 22.6603C9.66771 22.4209 9.74449 21.9607 9.79901 21.6378C9.85354 21.3148 9.95502 20.7135 10.0245 20.3015C10.094 19.8894 10.1982 19.279 10.2561 18.9449C10.3139 18.6108 10.4058 18.0925 10.4603 17.7932C10.5148 17.4939 10.5697 17.2388 10.5824 17.2263L10.6054 17.2036H13.284H15.9627L15.9924 17.233L16.0222 17.2623L15.9757 17.4962C15.9502 17.6248 15.8746 18.0216 15.8078 18.3779C15.741 18.7343 15.6287 19.3357 15.5582 19.7143C15.4877 20.0929 15.3858 20.6305 15.3318 20.9089C15.2777 21.1873 15.1683 21.7704 15.0886 22.2047C15.009 22.639 14.944 23.0171 14.9442 23.045L14.9446 23.0956H15.9449H16.9452L16.9894 22.8425C17.0138 22.7033 17.0529 22.4527 17.0765 22.2857C17.1 22.1187 17.1567 21.7633 17.2025 21.4961C17.2483 21.2288 17.3398 20.7003 17.4058 20.3217C17.4719 19.9431 17.5824 19.2962 17.6515 18.8841C17.7205 18.4721 17.823 17.8707 17.8791 17.5478C17.9353 17.2249 18.0353 16.6782 18.1015 16.333C18.1676 15.9877 18.2778 15.4046 18.3463 15.0371C18.4148 14.6696 18.5175 14.1138 18.5744 13.802C18.6313 13.4902 18.7352 12.9253 18.8051 12.5467C18.8751 12.168 18.9634 11.7261 19.0014 11.5647L19.0705 11.2711H18.0577H17.0449L17.0173 11.4634C17.0022 11.5692 16.9533 11.8653 16.9086 12.1215C16.864 12.3776 16.7827 12.8332 16.7281 13.1339C16.6735 13.4345 16.5737 14.0085 16.5063 14.4094C16.4389 14.8103 16.3531 15.341 16.3155 15.5888L16.2472 16.0392L14.7604 16.0689L13.2737 16.0986L12.0284 16.0694C11.3435 16.0534 10.7793 16.0371 10.7746 16.0332C10.77 16.0293 10.7933 15.8719 10.8265 15.6834C10.8596 15.495 10.9223 15.1677 10.9658 14.9561C11.0094 14.7445 11.0918 14.3254 11.1491 14.0247C11.2064 13.7241 11.2713 13.3505 11.2933 13.1946C11.3154 13.0387 11.3615 12.779 11.3959 12.6175C11.4303 12.4561 11.4956 12.1159 11.541 11.8617C11.5863 11.6075 11.6347 11.3706 11.6484 11.3353L11.6733 11.2711H10.6687H9.66409L9.59975 11.6254C9.56435 11.8203 9.51716 12.0982 9.49488 12.243C9.4726 12.3877 9.39777 12.8524 9.32859 13.2756C9.25942 13.6988 9.1573 14.3274 9.10167 14.6727C9.04603 15.0179 8.94471 15.6466 8.87652 16.0697C8.80832 16.4929 8.6958 17.1489 8.62647 17.5276C8.55714 17.9062 8.45676 18.4437 8.40341 18.7222C8.35006 19.0006 8.24839 19.529 8.17748 19.8965C8.10657 20.264 8.00312 20.7833 7.94759 21.0506C7.89206 21.3179 7.83067 21.6277 7.81117 21.739C7.79167 21.8504 7.72821 22.1716 7.67015 22.4528C7.61208 22.734 7.56457 22.9936 7.56457 23.0298V23.0956H8.56077H8.56074ZM19.5889 23.0956H20.4708L20.4957 23.0316C20.5093 22.9963 20.5205 22.9039 20.5205 22.8262C20.5205 22.7485 20.576 22.3445 20.6438 21.9285C20.7116 21.5125 20.8235 20.835 20.8926 20.4229C20.9617 20.0109 21.0638 19.4096 21.1194 19.0866C21.175 18.7637 21.274 18.2261 21.3392 17.892C21.4045 17.5579 21.5047 17.0386 21.5619 16.7379C21.6191 16.4372 21.7316 15.8652 21.8119 15.4667C21.8922 15.0682 21.9679 14.7262 21.9801 14.7066L22.0024 14.6711L21.1106 14.682L20.2187 14.6929L20.1444 15.2193C20.1036 15.5089 20.0143 16.0829 19.946 16.4949C19.8777 16.907 19.7743 17.5357 19.7164 17.892C19.6584 18.2484 19.5573 18.8224 19.4917 19.1676C19.4261 19.5128 19.3256 20.0413 19.2683 20.3419C19.211 20.6426 19.1083 21.1711 19.0399 21.5163C18.9716 21.8615 18.8799 22.3171 18.8362 22.5287C18.7925 22.7403 18.7455 22.9544 18.7318 23.0045L18.707 23.0956H19.5889V23.0956ZM40.2149 23.0956H41.0903L41.1166 22.7298C41.131 22.5286 41.1806 22.1231 41.2266 21.8288C41.2727 21.5344 41.3671 20.9473 41.4363 20.5242C41.5056 20.101 41.6343 19.3966 41.7223 18.9589C41.8103 18.5212 41.9099 18.0861 41.9435 17.9921C41.9771 17.898 42.0045 17.7961 42.0045 17.7656C42.0045 17.7351 42.0704 17.5688 42.1508 17.3961C42.2312 17.2234 42.3811 16.959 42.4839 16.8084L42.6708 16.5348L42.921 16.306L43.1711 16.0773L43.4796 15.9318L43.788 15.7863L44.2595 15.7887L44.731 15.7911L44.9629 15.8595C45.0904 15.8972 45.2057 15.928 45.2191 15.928C45.2325 15.928 45.2435 15.8849 45.2435 15.8323C45.2435 15.7797 45.2897 15.513 45.346 15.2396C45.4024 14.9662 45.4485 14.731 45.4485 14.7169C45.4485 14.7028 45.3148 14.6511 45.1513 14.602C44.9878 14.5529 44.7618 14.5014 44.649 14.4877L44.444 14.4627L44.1775 14.5092C44.031 14.5348 43.813 14.5914 43.6932 14.6348C43.5734 14.6783 43.3756 14.7769 43.2536 14.854C43.1317 14.9311 42.9419 15.0812 42.832 15.1877C42.7221 15.2942 42.5372 15.5089 42.4212 15.6648C42.3051 15.8207 42.1838 15.9847 42.1515 16.0292L42.0928 16.1102L42.1284 15.9482C42.148 15.8591 42.2026 15.5676 42.2498 15.3003C42.2969 15.033 42.3453 14.7825 42.3573 14.7435L42.3791 14.6726H41.5973H40.8155V14.7702C40.8155 14.8239 40.7694 15.1474 40.713 15.489C40.6566 15.8307 40.5636 16.4018 40.5064 16.7581C40.4491 17.1145 40.3475 17.734 40.2805 18.1349C40.2136 18.5358 40.1119 19.1099 40.0546 19.4105C39.9973 19.7112 39.8955 20.2397 39.8285 20.5849C39.7614 20.9301 39.6501 21.495 39.5811 21.8402C39.5121 22.1855 39.4295 22.5931 39.3976 22.7462C39.3657 22.8993 39.3395 23.0405 39.3395 23.0601V23.0956H40.2149V23.0956ZM60.9945 23.0956H61.8895V22.8251V22.5545L61.9927 21.8836C62.0494 21.5145 62.143 20.9301 62.2007 20.5849C62.2583 20.2397 62.3302 19.8024 62.3604 19.613C62.3905 19.4237 62.4705 19.0137 62.5381 18.7019C62.6057 18.3901 62.6901 18.053 62.7256 17.9527C62.7612 17.8525 62.7906 17.7474 62.7909 17.7191C62.7914 17.6908 62.8676 17.5088 62.9605 17.3147L63.1294 16.9618L63.3523 16.6693L63.5752 16.3768L63.8192 16.1957C63.9533 16.0961 64.1691 15.9639 64.2986 15.902L64.534 15.7893L65.0465 15.7928L65.559 15.7963L65.7608 15.8603L65.9625 15.9243L65.9965 15.9035L66.0305 15.8828L66.0323 15.7535C66.0332 15.6825 66.0771 15.418 66.1298 15.1659L66.2256 14.7074L66.1178 14.6658C66.0586 14.6428 65.9178 14.5954 65.8051 14.5603L65.6001 14.4966L65.2311 14.4975L64.8621 14.4984L64.5613 14.6029L64.2606 14.7074L64.0348 14.8419L63.809 14.9764L63.5155 15.2801L63.2219 15.5838L63.0642 15.8194C62.9774 15.949 62.9011 16.0492 62.8945 16.0421C62.8879 16.035 62.935 15.765 62.9992 15.4421C63.0635 15.1191 63.1168 14.8139 63.1178 14.7638L63.1196 14.6727H62.3611H61.6026V14.6985C61.6026 14.7127 61.5647 14.9723 61.5185 15.2755C61.4723 15.5787 61.3795 16.1639 61.3123 16.5759C61.2451 16.988 61.1348 17.6531 61.0673 18.054C60.9997 18.4549 60.8979 19.0289 60.8409 19.3296C60.784 19.6303 60.6829 20.1587 60.6162 20.5039C60.5496 20.8492 60.4401 21.405 60.3729 21.739C60.3057 22.0731 60.2167 22.515 60.1751 22.721L60.0995 23.0956H60.9945L60.9945 23.0956ZM21.323 13.2139L21.5719 13.2148L21.7698 13.1482L21.9677 13.0817L22.1428 12.9062L22.318 12.7307L22.4102 12.497L22.5024 12.2632L22.5057 11.919L22.509 11.5748L22.427 11.4404L22.345 11.306L22.2023 11.2187L22.0595 11.1314H21.7513L21.443 11.1314L21.2332 11.2242L21.0233 11.317L20.9015 11.4459L20.7797 11.5748L20.6841 11.7975L20.5884 12.0202L20.5703 12.3672L20.5522 12.7141L20.6413 12.8865L20.7304 13.0589L20.9022 13.136L21.074 13.2131L21.323 13.214V13.2139Z" fill="#B3131B"/>
</svg>
