<svg width="36" height="36" viewBox="0 0 36 36" fill="none" xmlns="http://www.w3.org/2000/svg">
<path fill-rule="evenodd" clip-rule="evenodd" d="M18 0C27.9411 0 36 8.05894 36 18C36 27.9412 27.9411 36 18 36C8.05894 36 0 27.9412 0 18C0 8.05894 8.05894 0 18 0Z" fill="#0E0E11"/>
<path fill-rule="evenodd" clip-rule="evenodd" d="M12.6586 16.7051L7.13739 19.0845C7.12896 18.9893 7.12417 18.8929 7.12417 18.7956C7.12417 17.0491 8.53985 15.6334 10.2863 15.6334C11.2313 15.6334 12.0792 16.0481 12.6586 16.7051V16.7051ZM10.2863 13.2685C12.8916 13.2685 15.0755 15.0713 15.6596 17.4974L13.4321 18.4713L13.4315 18.4667L11.1524 19.4679L5.6853 21.8586C5.07992 20.9519 4.75761 19.8858 4.75928 18.7956C4.75928 15.7431 7.23372 13.2685 10.2863 13.2685V13.2685ZM14.1484 22.7494C12.1695 24.6276 9.55136 24.812 7.25102 23.4154L8.55082 21.4392C9.85975 22.2217 11.1749 22.0948 12.4959 21.0576L14.1484 22.7493V22.7494ZM16.399 21.3812L16.3849 10.9292H18.3652V21.0991C18.3652 21.1965 18.3773 21.2824 18.5052 21.3322L20.2279 22.0022L19.4518 24.0201L17.4338 23.1664C16.6687 22.8425 16.4002 22.3734 16.3988 21.3812H16.399Z" fill="white"/>
<path fill-rule="evenodd" clip-rule="evenodd" d="M23.8552 21.2052C23.1129 20.6279 22.635 19.7272 22.635 18.7141C22.635 17.8136 23.013 17.0017 23.6184 16.427L22.3394 14.3542C21.0536 15.3727 20.228 16.9466 20.228 18.7141C20.228 20.6195 21.1865 22.3002 22.6472 23.3024L23.8552 21.2052" fill="#2091C3"/>
<path fill-rule="evenodd" clip-rule="evenodd" d="M24.7229 15.7458C25.0653 15.6227 25.4264 15.5599 25.7902 15.5602C27.1407 15.5602 28.2924 16.4094 28.7422 17.6026L31.1931 17.3979C30.6014 14.9622 28.4077 13.1534 25.7902 13.1534C25.0736 13.1529 24.3636 13.2914 23.6997 13.5612L24.7229 15.7458Z" fill="#FAEC32"/>
<path fill-rule="evenodd" clip-rule="evenodd" d="M28.9402 18.8674C28.8603 20.5386 27.4805 21.869 25.7896 21.869C25.5245 21.869 25.2673 21.8357 25.0215 21.7742L24.0601 24.0002C24.6184 24.1829 25.2022 24.2759 25.7897 24.2758C28.7844 24.2758 31.2249 21.9084 31.345 18.9432L28.9402 18.8674" fill="#D0352A"/>
</svg>
