<?xml version="1.0" encoding="UTF-8"?>
<svg xmlns="http://www.w3.org/2000/svg" xmlns:xlink="http://www.w3.org/1999/xlink" width="35pt" height="34pt" viewBox="0 0 35 34" version="1.1">
<g id="surface1">
<path style=" stroke:none;fill-rule:nonzero;fill:rgb(0.392157%,43.529412%,81.568627%);fill-opacity:1;" d="M 0 0 L 34.914062 0 L 34.914062 18.34375 L 33.183594 20.972656 L 34.914062 23.3125 L 34.914062 33.984375 L 0 33.984375 L 0 16.691406 L 1.078125 15.480469 L 0 14.324219 Z M 0 0 "/>
<path style=" stroke:none;fill-rule:nonzero;fill:rgb(100%,100%,100%);fill-opacity:1;" d="M 6.777344 23.679688 L 6.777344 18.34375 L 12.582031 18.34375 L 13.203125 19.136719 L 13.847656 18.34375 L 34.914062 18.34375 L 34.914062 23.3125 C 34.914062 23.3125 34.363281 23.675781 33.726562 23.679688 L 22.058594 23.679688 L 21.359375 22.839844 L 21.359375 23.679688 L 19.058594 23.679688 L 19.058594 22.246094 C 19.058594 22.246094 18.742188 22.445312 18.0625 22.445312 L 17.28125 22.445312 L 17.28125 23.679688 L 13.796875 23.679688 L 13.175781 22.875 L 12.542969 23.679688 Z M 6.777344 23.679688 "/>
<path style=" stroke:none;fill-rule:nonzero;fill:rgb(100%,100%,100%);fill-opacity:1;" d="M 0 14.324219 L 1.308594 11.355469 L 3.570312 11.355469 L 4.316406 13.019531 L 4.316406 11.355469 L 7.128906 11.355469 L 7.570312 12.554688 L 8 11.355469 L 20.628906 11.355469 L 20.628906 11.957031 C 20.628906 11.957031 21.292969 11.355469 22.382812 11.355469 L 26.480469 11.367188 L 27.210938 13.011719 L 27.210938 11.355469 L 29.566406 11.355469 L 30.214844 12.296875 L 30.214844 11.355469 L 32.589844 11.355469 L 32.589844 16.691406 L 30.214844 16.691406 L 29.59375 15.742188 L 29.59375 16.691406 L 26.132812 16.691406 L 25.785156 15.847656 L 24.855469 15.847656 L 24.515625 16.691406 L 22.167969 16.691406 C 21.230469 16.691406 20.628906 16.097656 20.628906 16.097656 L 20.628906 16.691406 L 17.09375 16.691406 L 16.390625 15.847656 L 16.390625 16.691406 L 3.238281 16.691406 L 2.890625 15.847656 L 1.960938 15.847656 L 1.617188 16.691406 L 0 16.691406 Z M 0 14.324219 "/>
<path style=" stroke:none;fill-rule:nonzero;fill:rgb(0.392157%,43.529412%,81.568627%);fill-opacity:1;" d="M 1.773438 12.011719 L 0.0078125 16.007812 L 1.15625 16.007812 L 1.480469 15.207031 L 3.375 15.207031 L 3.699219 16.007812 L 4.875 16.007812 L 3.109375 12.011719 Z M 2.425781 12.941406 L 3.003906 14.339844 L 1.847656 14.339844 Z M 2.425781 12.941406 "/>
<path style=" stroke:none;fill-rule:nonzero;fill:rgb(0.392157%,43.529412%,81.568627%);fill-opacity:1;" d="M 4.996094 16.007812 L 4.996094 12.011719 L 6.628906 12.015625 L 7.578125 14.59375 L 8.503906 12.011719 L 10.125 12.011719 L 10.125 16.007812 L 9.097656 16.007812 L 9.097656 13.0625 L 8.011719 16.007812 L 7.113281 16.007812 L 6.019531 13.0625 L 6.019531 16.007812 Z M 4.996094 16.007812 "/>
<path style=" stroke:none;fill-rule:nonzero;fill:rgb(0.392157%,43.529412%,81.568627%);fill-opacity:1;" d="M 10.828125 16.007812 L 10.828125 12.011719 L 14.175781 12.011719 L 14.175781 12.90625 L 11.863281 12.90625 L 11.863281 13.589844 L 14.121094 13.589844 L 14.121094 14.429688 L 11.863281 14.429688 L 11.863281 15.140625 L 14.175781 15.140625 L 14.175781 16.007812 Z M 10.828125 16.007812 "/>
<path style=" stroke:none;fill-rule:nonzero;fill:rgb(0.392157%,43.529412%,81.568627%);fill-opacity:1;" d="M 14.769531 12.011719 L 14.769531 16.007812 L 15.796875 16.007812 L 15.796875 14.585938 L 16.226562 14.585938 L 17.457031 16.007812 L 18.710938 16.007812 L 17.363281 14.535156 C 17.917969 14.488281 18.488281 14.027344 18.488281 13.308594 C 18.488281 12.46875 17.808594 12.011719 17.054688 12.011719 Z M 15.796875 12.90625 L 16.96875 12.90625 C 17.25 12.90625 17.453125 13.121094 17.453125 13.324219 C 17.453125 13.589844 17.191406 13.746094 16.984375 13.746094 L 15.796875 13.746094 Z M 15.796875 12.90625 "/>
<path style=" stroke:none;fill-rule:nonzero;fill:rgb(0.392157%,43.529412%,81.568627%);fill-opacity:1;" d="M 19.953125 16.007812 L 18.90625 16.007812 L 18.90625 12.011719 L 19.953125 12.011719 Z M 19.953125 16.007812 "/>
<path style=" stroke:none;fill-rule:nonzero;fill:rgb(0.392157%,43.529412%,81.568627%);fill-opacity:1;" d="M 22.4375 16.007812 L 22.210938 16.007812 C 21.117188 16.007812 20.453125 15.167969 20.453125 14.023438 C 20.453125 12.855469 21.109375 12.011719 22.492188 12.011719 L 23.625 12.011719 L 23.625 12.957031 L 22.449219 12.957031 C 21.890625 12.957031 21.492188 13.382812 21.492188 14.035156 C 21.492188 14.808594 21.945312 15.132812 22.601562 15.132812 L 22.871094 15.132812 Z M 22.4375 16.007812 "/>
<path style=" stroke:none;fill-rule:nonzero;fill:rgb(0.392157%,43.529412%,81.568627%);fill-opacity:1;" d="M 24.671875 12.011719 L 22.90625 16.007812 L 24.054688 16.007812 L 24.378906 15.207031 L 26.273438 15.207031 L 26.597656 16.007812 L 27.773438 16.007812 L 26.007812 12.011719 Z M 25.324219 12.941406 L 25.902344 14.339844 L 24.746094 14.339844 Z M 25.324219 12.941406 "/>
<path style=" stroke:none;fill-rule:nonzero;fill:rgb(0.392157%,43.529412%,81.568627%);fill-opacity:1;" d="M 27.894531 16.007812 L 27.894531 12.011719 L 29.195312 12.011719 L 30.863281 14.519531 L 30.863281 12.011719 L 31.890625 12.011719 L 31.890625 16.007812 L 30.625 16.007812 L 28.917969 13.429688 L 28.917969 16.007812 Z M 27.894531 16.007812 "/>
<path style=" stroke:none;fill-rule:nonzero;fill:rgb(0.392157%,43.529412%,81.568627%);fill-opacity:1;" d="M 7.480469 22.996094 L 7.480469 19.003906 L 10.828125 19.003906 L 10.828125 19.894531 L 8.515625 19.894531 L 8.515625 20.578125 L 10.773438 20.578125 L 10.773438 21.421875 L 8.515625 21.421875 L 8.515625 22.128906 L 10.828125 22.128906 L 10.828125 22.996094 Z M 7.480469 22.996094 "/>
<path style=" stroke:none;fill-rule:nonzero;fill:rgb(0.392157%,43.529412%,81.568627%);fill-opacity:1;" d="M 23.886719 22.996094 L 23.886719 19.003906 L 27.234375 19.003906 L 27.234375 19.894531 L 24.921875 19.894531 L 24.921875 20.578125 L 27.167969 20.578125 L 27.167969 21.421875 L 24.921875 21.421875 L 24.921875 22.128906 L 27.234375 22.128906 L 27.234375 22.996094 Z M 23.886719 22.996094 "/>
<path style=" stroke:none;fill-rule:nonzero;fill:rgb(0.392157%,43.529412%,81.568627%);fill-opacity:1;" d="M 10.957031 22.996094 L 12.585938 21.023438 L 10.917969 19.003906 L 12.210938 19.003906 L 13.207031 20.253906 L 14.203125 19.003906 L 15.445312 19.003906 L 13.796875 21 L 15.429688 22.996094 L 14.136719 22.996094 L 13.171875 21.765625 L 12.230469 22.996094 Z M 10.957031 22.996094 "/>
<path style=" stroke:none;fill-rule:nonzero;fill:rgb(0.392157%,43.529412%,81.568627%);fill-opacity:1;" d="M 15.554688 19.003906 L 15.554688 22.996094 L 16.605469 22.996094 L 16.605469 21.738281 L 17.6875 21.738281 C 18.601562 21.738281 19.292969 21.265625 19.292969 20.347656 C 19.292969 19.585938 18.75 19.003906 17.820312 19.003906 Z M 16.605469 19.90625 L 17.742188 19.90625 C 18.039062 19.90625 18.25 20.082031 18.25 20.367188 C 18.25 20.632812 18.039062 20.828125 17.738281 20.828125 L 16.605469 20.828125 Z M 16.605469 19.90625 "/>
<path style=" stroke:none;fill-rule:nonzero;fill:rgb(0.392157%,43.529412%,81.568627%);fill-opacity:1;" d="M 19.738281 19.003906 L 19.738281 22.996094 L 20.765625 22.996094 L 20.765625 21.578125 L 21.195312 21.578125 L 22.425781 22.996094 L 23.679688 22.996094 L 22.332031 21.527344 C 22.882812 21.480469 23.457031 21.015625 23.457031 20.296875 C 23.457031 19.457031 22.777344 19.003906 22.023438 19.003906 Z M 20.765625 19.894531 L 21.9375 19.894531 C 22.21875 19.894531 22.421875 20.109375 22.421875 20.316406 C 22.421875 20.582031 22.15625 20.738281 21.953125 20.738281 L 20.765625 20.738281 Z M 20.765625 19.894531 "/>
<path style=" stroke:none;fill-rule:nonzero;fill:rgb(0.392157%,43.529412%,81.568627%);fill-opacity:1;" d="M 27.710938 22.996094 L 27.710938 22.128906 L 29.761719 22.128906 C 30.066406 22.128906 30.199219 21.96875 30.199219 21.796875 C 30.199219 21.628906 30.066406 21.457031 29.761719 21.457031 L 28.835938 21.457031 C 28.027344 21.457031 27.578125 20.980469 27.578125 20.261719 C 27.578125 19.621094 27.988281 19.003906 29.1875 19.003906 L 31.1875 19.003906 L 30.753906 19.902344 L 29.027344 19.902344 C 28.695312 19.902344 28.59375 20.070312 28.59375 20.230469 C 28.59375 20.398438 28.71875 20.578125 28.972656 20.578125 L 29.945312 20.578125 C 30.84375 20.578125 31.234375 21.074219 31.234375 21.726562 C 31.234375 22.425781 30.800781 22.996094 29.894531 22.996094 Z M 27.710938 22.996094 "/>
<path style=" stroke:none;fill-rule:nonzero;fill:rgb(0.392157%,43.529412%,81.568627%);fill-opacity:1;" d="M 31.476562 22.996094 L 31.476562 22.128906 L 33.527344 22.128906 C 33.832031 22.128906 33.964844 21.96875 33.964844 21.796875 C 33.964844 21.628906 33.832031 21.457031 33.527344 21.457031 L 32.601562 21.457031 C 31.792969 21.457031 31.34375 20.980469 31.34375 20.261719 C 31.34375 19.621094 31.757812 19.003906 32.953125 19.003906 L 34.953125 19.003906 L 34.519531 19.902344 L 32.792969 19.902344 C 32.460938 19.902344 32.359375 20.070312 32.359375 20.230469 C 32.359375 20.398438 32.484375 20.578125 32.738281 20.578125 L 33.710938 20.578125 C 34.609375 20.578125 35 21.074219 35 21.726562 C 35 22.425781 34.566406 22.996094 33.660156 22.996094 Z M 31.476562 22.996094 "/>
</g>
</svg>
