<svg width="59" height="36" viewBox="0 0 59 36" fill="none" xmlns="http://www.w3.org/2000/svg">
<path d="M34.4946 13.1754H33.1218V0.059021H34.4946V13.1754V13.1754ZM37.7367 13.1754H42.001V0.059021H37.7367V13.1754V13.1754ZM50.9678 0.059021V13.1754H52.8518V0.059021H50.9678ZM22.8844 13.1754H24.5055V0.059021H22.8844V13.1754V13.1754ZM14.9399 13.1754H18.8683V0.059021H14.9399V13.1754V13.1754ZM5.72478 13.1754H8.28047V0.059021H5.72478V13.1754V13.1754ZM56.6926 0.059021V35.941H58.9124V0.059021H56.6926ZM0.0876465 35.941H2.30745V0.059021H0.0876465V35.941ZM5.72478 35.6754V29.2869H7.68171C8.45572 29.2869 8.96685 29.4639 9.30275 29.7148C9.63864 29.9803 9.90151 30.4082 9.90151 30.9246C9.90151 31.2639 9.81388 31.5295 9.63864 31.7803C9.45747 32.0482 9.17958 32.2336 8.86463 32.2967C9.20052 32.3853 9.55101 32.5623 9.79928 32.8131C10.0622 33.0787 10.1352 33.418 10.1352 33.8459C10.1352 34.4508 9.8723 34.8787 9.44878 35.2328C9.02527 35.5721 8.33888 35.6607 7.49185 35.6607C7.52106 35.6754 5.72478 35.6754 5.72478 35.6754V35.6754ZM7.08294 31.7951H7.59408C7.85695 31.7951 8.10522 31.7066 8.28047 31.618C8.45572 31.441 8.54334 31.2787 8.54334 31.1016C8.54334 30.8361 8.45572 30.6738 8.28047 30.5853C8.10522 30.4967 7.85695 30.4082 7.50646 30.4082H7.08294V31.7951V31.7951ZM7.08294 34.4803H7.68171C8.0176 34.4803 8.19284 34.3918 8.36809 34.2148C8.45374 34.1401 8.5218 34.047 8.56728 33.9424C8.61276 33.8377 8.63452 33.7241 8.63096 33.6098C8.63096 33.3443 8.54334 33.182 8.36809 33.0049C8.19284 32.8279 7.94458 32.8279 7.68171 32.8279H7.08294V34.4803ZM10.5003 35.6754L13.7423 29.1246H13.83L16.9844 35.6754H15.451L15.0275 34.7312H12.4718L12.0483 35.6754H10.5003ZM12.8953 33.6098H14.5164L13.6693 31.6328L12.8953 33.6098ZM17.9337 35.6754V29.1246H18.1089L22.0374 32.8279V29.2869H23.4102V35.9262H23.2203L19.2919 32.223V35.6754H17.9337V35.6754ZM29.7921 31.2787C29.5292 31.0131 29.281 30.7623 28.9451 30.6738C28.6822 30.4967 28.3463 30.4967 28.098 30.4967C27.5869 30.4967 27.1634 30.6738 26.8129 31.0131C26.6368 31.2107 26.501 31.4414 26.4133 31.692C26.3256 31.9427 26.2877 32.2083 26.3018 32.4738C26.3018 33.0787 26.477 33.5066 26.8129 33.8607C26.9812 34.0303 27.182 34.1636 27.4029 34.2524C27.6238 34.3411 27.8604 34.3836 28.098 34.3771C28.4339 34.3771 28.6968 34.2885 29.0327 34.2C29.3686 34.023 29.6315 33.8607 29.9673 33.5951L29.8797 35.3213C29.6144 35.496 29.3302 35.6396 29.0327 35.7492C28.6968 35.8377 28.3463 35.9262 28.0104 35.9262C27.6745 35.9262 27.2364 35.8377 26.9881 35.7492C26.6523 35.6607 26.3018 35.4836 26.0535 35.2328C25.6495 34.912 25.3287 34.4968 25.1188 34.023C24.8647 33.5488 24.7482 33.0118 24.7829 32.4738C24.7829 32.0459 24.8706 31.5295 25.0458 31.1754C25.2211 30.7476 25.4693 30.3935 25.7322 30.0541C26.0681 29.7148 26.4186 29.5377 26.7545 29.3607C27.178 29.1836 27.6015 29.0951 28.0396 29.0951C28.3755 29.0951 28.726 29.1836 29.0619 29.2721C29.3978 29.3607 29.6607 29.5377 29.9966 29.7L29.7921 31.2787ZM30.5661 35.6754L33.8082 29.1246H33.8958L37.0503 35.6754H35.5169L35.0933 34.7312H32.5376L32.1141 35.6754H30.5661V35.6754ZM32.8735 33.6098H34.4946L33.6475 31.6328L32.8735 33.6098V33.6098ZM33.1218 28.6082L33.9688 27.059H34.9035L33.6183 28.6082H33.1218ZM37.9119 35.6754V29.2869H39.5329C40.0441 29.2869 40.4676 29.2869 40.7305 29.3754C40.9933 29.4639 41.2416 29.5525 41.5045 29.7148C41.7674 29.8918 41.928 30.0541 42.0156 30.3197C42.1909 30.5853 42.1909 30.8361 42.1909 31.1016C42.1909 31.5295 42.1032 31.8836 41.855 32.1344C41.6299 32.4291 41.3399 32.6665 41.0079 32.8279L42.8919 35.5869H41.1832L39.4745 33.0787H39.2993V35.5869H37.9265V35.6754H37.9119V35.6754ZM39.6206 30.423H39.3577V32.1492H39.6936C40.0295 32.1492 40.38 32.0607 40.5406 31.8836C40.7013 31.7066 40.8765 31.5443 40.8765 31.1902C40.8765 30.8508 40.7889 30.6738 40.6136 30.4967C40.38 30.5115 40.0441 30.423 39.6206 30.423ZM43.9725 35.6754V29.2869H45.4183V35.6754H43.9725ZM46.7911 32.4885C46.7911 32.0607 46.8787 31.5443 47.054 31.1902C47.2292 30.7623 47.4775 30.4082 47.7404 30.0689C48.0032 29.7295 48.3391 29.5525 48.7626 29.3754C49.1862 29.1984 49.5367 29.1098 49.9602 29.1098C50.3837 29.1098 50.8072 29.1984 51.1577 29.3754C51.5543 29.5371 51.912 29.7827 52.2067 30.0957C52.5014 30.4088 52.7264 30.7819 52.8664 31.1902C53.0416 31.618 53.1292 32.0459 53.1292 32.4885C53.1292 32.9312 53.0416 33.2705 52.954 33.6098C52.8664 33.9492 52.6911 34.3033 52.4428 34.5541C52.1377 34.9393 51.7606 35.2602 51.3329 35.4984C50.8889 35.738 50.3902 35.855 49.8872 35.8377C49.4636 35.8377 49.0401 35.7492 48.6896 35.5721C48.2931 35.4105 47.9354 35.1649 47.6406 34.8518C47.3459 34.5388 47.121 34.1656 46.981 33.7574C46.8657 33.3441 46.8019 32.9178 46.7911 32.4885V32.4885ZM48.4122 32.4885C48.4122 33.0049 48.5874 33.5213 48.9233 33.8754C49.2592 34.2148 49.6097 34.3918 50.1208 34.3918C50.632 34.3918 50.9678 34.2148 51.3183 33.8754C51.6542 33.5361 51.8295 33.0197 51.8295 32.4885C51.8295 31.9574 51.6542 31.4557 51.3183 31.1016C51.1672 30.9337 50.982 30.8006 50.7754 30.7114C50.5687 30.6223 50.3454 30.5793 50.1208 30.5853C49.6973 30.5853 49.2738 30.7623 48.9233 31.1016C48.4998 31.4557 48.4122 31.8836 48.4122 32.4885ZM5.4619 25.9377V16.9672H8.19284C9.21512 16.9672 9.98913 17.1443 10.5003 17.5721C11.0114 17.9115 11.2743 18.5164 11.2743 19.2984C11.2894 19.7271 11.172 20.15 10.9384 20.5082C10.6553 20.8764 10.2683 21.1491 9.82849 21.2902C10.3396 21.3787 10.7631 21.6295 11.1136 22.0721C11.4495 22.4115 11.5372 22.9279 11.5372 23.459C11.5372 24.3148 11.2013 25.0082 10.6025 25.4361C9.74646 25.9433 8.75963 26.1796 7.76933 26.1148H5.4619V25.9377ZM7.43344 20.5082H8.11982C8.54334 20.5082 8.89383 20.4197 9.05448 20.2426C9.31735 20.0656 9.39037 19.8148 9.39037 19.4607C9.39037 19.1066 9.30275 18.8557 9.05448 18.6787C8.74773 18.4887 8.3916 18.3962 8.0322 18.4131H7.34581V20.4787H7.43344V20.5082V20.5082ZM7.43344 24.3885H8.28047C8.70398 24.3885 9.05448 24.3 9.30275 24.0492C9.56562 23.8721 9.63864 23.5328 9.63864 23.1935C9.63864 22.8541 9.55101 22.5885 9.30275 22.3377C8.996 22.1478 8.63986 22.0552 8.28047 22.0721H7.43344V24.3885V24.3885ZM12.6324 21.4525C12.6324 20.759 12.7201 20.1541 12.9683 19.5492C13.4465 18.4097 14.3258 17.4897 15.4364 16.9672C15.9475 16.7016 16.5463 16.6279 17.1451 16.6279C17.7438 16.6279 18.3426 16.7164 18.8537 16.9672C19.3649 17.218 19.876 17.5721 20.2995 18C20.723 18.4279 21.0735 18.9443 21.2342 19.5492C21.4971 20.1541 21.5701 20.759 21.5701 21.4525C21.5701 22.0574 21.4824 22.5738 21.3072 23.0016C21.1287 23.4876 20.8986 23.9527 20.6208 24.3885C20.1973 24.9935 19.6862 25.4213 18.9998 25.7754C18.4015 26.1128 17.728 26.2905 17.0428 26.2918C16.4441 26.2918 15.8453 26.2033 15.3342 25.9525C14.823 25.6869 14.3119 25.3475 13.8884 24.9197C13.4498 24.4765 13.1024 23.95 12.8661 23.3705C12.8077 22.7508 12.6324 22.1459 12.6324 21.4525V21.4525ZM14.8523 21.4525C14.8523 22.2344 15.1151 22.9131 15.5386 23.4295C15.7524 23.6744 16.0154 23.8706 16.31 24.0049C16.6046 24.1393 16.9241 24.2088 17.2473 24.2088C17.5705 24.2088 17.89 24.1393 18.1846 24.0049C18.4792 23.8706 18.7422 23.6744 18.956 23.4295C19.4051 22.871 19.6477 22.172 19.6423 21.4525C19.6423 20.6705 19.3795 19.9918 18.956 19.4754C18.7422 19.2305 18.4792 19.0344 18.1846 18.9C17.89 18.7657 17.5705 18.6962 17.2473 18.6962C16.9241 18.6962 16.6046 18.7657 16.31 18.9C16.0154 19.0344 15.7524 19.2305 15.5386 19.4754C15.0275 20.0656 14.8523 20.6705 14.8523 21.4525ZM23.2203 25.9377V16.9672H25.3525V24.0344H28.7698V25.9377H23.2203ZM29.8797 25.9377V16.9672H35.3416V18.782H31.9243V20.4197H34.8305V22.2344H31.9243V24.0492H35.3416V25.9525H29.8797V25.9377ZM39.0218 25.9377V18.8705H36.2032V16.9672H43.9725V18.8705H41.154V25.9377H39.0218V25.9377ZM44.4837 21.4525C44.4837 20.759 44.5713 20.1541 44.8196 19.5492C45.2977 18.4097 46.1771 17.4897 47.2876 16.9672C47.7988 16.7016 48.3975 16.6279 48.9963 16.6279C49.5951 16.6279 50.1938 16.7164 50.705 16.9672C51.2161 17.218 51.7273 17.5721 52.1508 18C52.7873 18.6408 53.2287 19.4525 53.4228 20.3389C53.6169 21.2253 53.5556 22.1494 53.2461 23.0016C53.0676 23.4876 52.8374 23.9527 52.5597 24.3885C52.1362 24.9935 51.625 25.4213 50.9386 25.7754C50.3404 26.1128 49.6669 26.2905 48.9817 26.2918C48.3829 26.2918 47.7842 26.2033 47.273 25.9525C46.7619 25.6869 46.2508 25.3475 45.8272 24.9197C45.3887 24.4765 45.0413 23.95 44.805 23.3705C44.5793 22.7573 44.4702 22.1065 44.4837 21.4525V21.4525ZM46.6159 21.4525C46.6159 22.2344 46.8787 22.9131 47.3022 23.4295C47.516 23.6744 47.779 23.8706 48.0736 24.0049C48.3682 24.1393 48.6877 24.2088 49.0109 24.2088C49.3341 24.2088 49.6537 24.1393 49.9483 24.0049C50.2429 23.8706 50.5058 23.6744 50.7196 23.4295C51.1687 22.871 51.4113 22.172 51.406 21.4525C51.406 20.6705 51.1431 19.9918 50.7196 19.4754C50.5058 19.2305 50.2429 19.0344 49.9483 18.9C49.6537 18.7657 49.3341 18.6962 49.0109 18.6962C48.6877 18.6962 48.3682 18.7657 48.0736 18.9C47.779 19.0344 47.516 19.2305 47.3022 19.4754C46.7911 19.9771 46.6159 20.6705 46.6159 21.4525Z" fill="#231F20"/>
</svg>
