<svg width="45" height="36" viewBox="0 0 45 36" fill="none" xmlns="http://www.w3.org/2000/svg">
<path d="M44.9223 18.1559C44.9223 7.46471 36.0594 0.0751747 26.3483 0.0784009H17.9914C8.16472 0.0748521 0.076416 7.46696 0.076416 18.1559C0.076416 27.9347 8.16494 35.9689 17.9914 35.9216H26.3483C36.0586 35.9686 44.9223 27.9321 44.9223 18.1559Z" fill="#0079BE"/>
<path d="M18.0439 1.59277C9.06464 1.59557 1.78873 8.93864 1.78552 18.0013C1.78777 27.0624 9.064 34.4044 18.0439 34.4077C27.0253 34.405 34.3034 27.0625 34.3045 18.0013C34.3033 8.93843 27.0255 1.596 18.0439 1.59277V1.59277Z" fill="white"/>
<path d="M7.76782 17.957C7.77637 13.5285 10.5178 9.75208 14.3836 8.25146V27.6604C10.5178 26.1606 7.77626 22.3861 7.76782 17.9571V17.957ZM21.7598 27.6652V8.252C25.6271 9.74907 28.3728 13.5276 28.3798 17.9582C28.3727 22.3901 25.6271 26.1659 21.7598 27.6657V27.6652Z" fill="#0079BE"/>
</svg>
