<svg width="85" height="35" viewBox="0 0 85 35" fill="none" xmlns="http://www.w3.org/2000/svg">
<g clip-path="url(#clip0)">
<path fill-rule="evenodd" clip-rule="evenodd" d="M41.9184 10.1512C40.5755 7.62259 39.2345 7.77881 35.5503 7.77881L34.941 10.1512H41.9184Z" fill="#1F4972"/>
<path fill-rule="evenodd" clip-rule="evenodd" d="M57.202 13.6817H58.9183V12.0817H57.202V13.6817Z" fill="#1F4973"/>
<path fill-rule="evenodd" clip-rule="evenodd" d="M68.8303 21.1847H70.6027L70.6151 17.9216L72.8726 21.1847L75.1016 21.1747L72.2754 17.4432L74.7555 14.4541L72.6819 14.478L70.6027 17.1023V12.0271H68.8303V21.1847Z" fill="#1D4B73"/>
<path fill-rule="evenodd" clip-rule="evenodd" d="M37.8208 19.7506H36.6579V17.1023H37.5992C38.5389 17.1023 39.537 17.4449 39.537 18.3712V18.5364C39.5374 19.345 38.6302 19.7506 37.8208 19.7506ZM36.6579 13.5165H37.5992C38.3975 13.5165 39.1494 13.7878 39.1494 14.5647V14.7853C39.1494 15.5699 38.1067 15.7782 37.2668 15.7782H36.6576V13.5165H36.6579ZM39.2053 16.4956C39.7391 16.1583 39.8554 16.3656 40.4374 15.7925C40.7753 15.4596 40.9774 15.0463 40.9774 14.3991V14.1785C40.9774 12.7742 39.563 12.0821 38.098 12.0821H34.8309V21.1847H38.2088C39.964 21.1847 41.2546 20.304 41.2546 18.5364C41.2539 17.4326 40.2623 16.4956 39.2053 16.4956Z" fill="#EF7A2A"/>
<path fill-rule="evenodd" clip-rule="evenodd" d="M14.5633 13.5165H15.3941C16.1626 13.5165 16.5742 13.9305 16.8894 14.3991L16.9589 15.0596L16.945 15.1162C16.945 15.8798 16.1099 16.33 15.3392 16.33H14.5639V13.5165H14.5633ZM15.5602 17.7644C17.5276 17.7644 18.8825 16.7298 18.8825 14.7303C18.8825 12.5805 16.8745 12.0821 14.6741 12.0821H12.7363V21.1847H14.5636V17.7644H15.5602Z" fill="#1F4973"/>
<path fill-rule="evenodd" clip-rule="evenodd" d="M50.7783 21.1847H56.1499V19.7506H52.6057V12.0817H50.7783V21.1847Z" fill="#1F4973"/>
<path fill-rule="evenodd" clip-rule="evenodd" d="M57.202 21.1847H58.9742V14.4541H57.202V21.1847Z" fill="#1D4B73"/>
<path fill-rule="evenodd" clip-rule="evenodd" d="M62.5733 17.5991C62.5733 16.6162 63.0766 15.6682 64.0686 15.6682H64.1791C65.1262 15.6682 65.2312 16.6463 65.2312 17.5991V21.1847H67.0033V17.1576C67.0033 15.3759 66.3557 14.2888 64.5667 14.2888H64.5112C63.2869 14.2888 63.0542 14.9053 62.4622 15.3371V14.4541H60.8012V21.1847H62.5733V17.5991V17.5991Z" fill="#1D4B73"/>
<path fill-rule="evenodd" clip-rule="evenodd" d="M21.2638 19.1991C21.2638 18.4097 22.1651 18.0956 22.9804 18.0956H23.9772C23.9772 19.1552 23.4382 20.0818 22.4267 20.0818H22.3159C21.798 20.0818 21.2638 19.7907 21.2638 19.3091V19.1991ZM20.3901 16.2744C21.0425 16.1204 21.2547 15.613 22.4819 15.613H22.5927C23.5522 15.613 23.9772 16.0877 23.9772 17.0474H22.9804C21.2037 17.0474 19.6025 17.5037 19.6025 19.2541V19.475C19.6025 20.565 20.7248 21.3506 21.8175 21.3506H22.0946C23.251 21.3506 23.4892 20.6439 24.0328 20.2474L24.1033 21.184L25.6389 21.185C25.6389 20.1132 25.6801 17.6341 25.5401 16.7042C25.4121 15.8549 25.4153 15.5272 24.9052 15.0195C24.5786 14.6944 23.9239 14.3438 23.3131 14.3438H22.4826C21.7057 14.3438 20.8336 14.5715 20.3105 14.8412L20.3901 16.2744Z" fill="#1F4973"/>
<path fill-rule="evenodd" clip-rule="evenodd" d="M42.4168 14.4541C42.6647 15.0065 44.9642 21.4104 44.9642 21.6259C44.9642 22.2054 44.5262 22.7294 44.0232 22.7294H43.6356L42.9139 22.6285L42.9156 22.9497C42.9156 23.6728 42.6179 24.0532 43.5248 24.0532H44.4109C45.41 24.0532 46.1141 23.1097 46.3968 22.3908C46.7379 21.524 47.0979 20.6391 47.4086 19.7574C47.7156 18.8861 48.0747 18.0005 48.4045 17.1085C48.5607 16.6848 49.3682 14.7672 49.3942 14.4535H47.7332C47.5369 14.4535 47.353 15.382 47.2523 15.6291C47.0963 16.0095 46.9462 16.4529 46.826 16.8601C46.6752 17.3737 46.0455 19.019 46.0163 19.3635L44.3439 14.4573L42.4168 14.4541Z" fill="#ED7B2B"/>
<path fill-rule="evenodd" clip-rule="evenodd" d="M26.5243 14.4541C26.7274 14.9069 29.1269 21.5647 29.1269 21.5708C29.1269 22.1792 28.6837 22.7294 28.0748 22.7294H27.798L27.0763 22.6285L26.9529 23.9419L28.403 24.1392L28.518 24.1082C28.9141 24.1082 29.5681 23.7175 29.8027 23.5127C30.087 23.2643 30.334 22.7517 30.5117 22.3985C30.8344 21.7571 31.2772 20.5071 31.529 19.771C31.8341 18.8793 32.1808 18.0063 32.5269 17.124C32.7147 16.645 33.4692 14.8396 33.5016 14.4538H31.7295L30.1182 19.3803C30.0604 19.0096 29.4154 17.3656 29.2705 16.8484C29.148 16.4108 28.9622 16.0137 28.8494 15.6133C28.7903 15.404 28.5755 14.4541 28.352 14.4541H26.5243V14.4541Z" fill="#1D4B73"/>
<path fill-rule="evenodd" clip-rule="evenodd" d="M49.4494 27.4741L50.0827 25.2188L43.1918 25.212C43.2171 25.5115 43.8263 26.2923 44.0366 26.4669C44.5444 26.8877 44.765 26.9741 45.423 27.2374C46.2909 27.5854 48.2134 27.4741 49.4494 27.4741Z" fill="#ED7B2B"/>
<path fill-rule="evenodd" clip-rule="evenodd" d="M42.306 34.3703C42.0828 34.1769 40.5872 33.5022 40.1131 33.1898C39.4064 32.7237 38.8635 32.2318 38.2773 31.6535C37.7126 31.0959 37.2587 30.4222 36.8136 29.7465C36.5858 29.4008 36.3918 29.0382 36.1962 28.6514C36.0152 28.2943 35.8628 27.7636 35.6614 27.4741C30.1978 27.4741 24.7343 27.4741 19.2704 27.4741C17.817 27.4741 12.012 27.6261 11.1773 27.3726C9.86753 26.9744 9.39022 26.8007 8.69391 25.7642C8.2179 25.0555 7.75262 23.7948 7.75262 22.6194V11.9718C7.75262 9.55027 9.5712 8.26108 11.6604 7.86585C13.2464 7.5657 17.598 7.77884 19.5476 7.77884C24.8818 7.77884 30.2164 7.77884 35.5506 7.77884C39.2349 7.77884 40.5755 7.62263 41.9187 10.1512H49.9478L50.0148 10.1324L49.3386 7.77884C49.2385 7.66403 48.4474 5.92882 48.2089 5.53909C47.8398 4.93492 47.2305 4.10985 46.7506 3.62665C46.2015 3.0739 45.5783 2.52148 44.9197 2.0855C44.6458 1.90341 42.782 0.92762 42.7492 0.882986C42.3466 0.87393 41.2487 0.421128 40.645 0.330891C39.887 0.21769 39.2329 0.0553284 38.3192 0.0553284H12.2378C8.91778 0.0553284 5.21791 1.87753 3.55724 3.54417C1.61941 5.48863 0 8.2863 0 12.1371V23.0053C0 26.3528 1.79291 29.8737 3.44579 31.5992C5.21693 33.4479 8.30531 35.1976 11.9054 35.1976H37.9868C38.6276 35.1976 39.7947 35.0573 40.3139 34.9227C40.7282 34.816 42.0103 34.3946 42.306 34.3703Z" fill="#ED7A2B"/>
<path fill-rule="evenodd" clip-rule="evenodd" d="M42.7492 0.882641C42.7823 0.927598 44.6458 1.90339 44.9197 2.08515C45.578 2.52114 46.2012 3.07356 46.7506 3.6263C47.2308 4.10918 47.8401 4.93457 48.2089 5.53874C48.447 5.92848 49.2385 7.66368 49.3386 7.7785C54.7472 7.7785 60.1552 7.7785 65.5639 7.7785C67.2174 7.7785 72.4489 7.57894 73.6255 7.85677C74.8725 8.15076 75.564 8.42471 76.1969 9.32223C76.6027 9.89761 77.2477 11.3495 77.2477 12.3023V23.1705C77.2477 25.6943 75.5308 26.9346 73.4133 27.3502C71.7403 27.6788 67.5677 27.4738 65.5083 27.4738C60.1552 27.4738 54.8025 27.4738 49.4497 27.4738C48.2134 27.4738 46.2908 27.585 45.423 27.2373C44.7653 26.9744 44.5447 26.8877 44.0365 26.4669C43.8266 26.2923 43.2174 25.5115 43.1917 25.212H35.0518L35.661 27.4738C35.8625 27.7632 36.0149 28.2937 36.1959 28.6511C36.3915 29.0376 36.5854 29.4001 36.8132 29.7462C37.2587 30.4222 37.7126 31.0959 38.277 31.6531C38.8631 32.2314 39.4061 32.7234 40.1128 33.1894C40.5865 33.5022 42.0825 34.1769 42.3057 34.37C42.7141 34.4036 43.9254 34.8713 44.6636 34.9997C45.537 35.1527 46.4075 35.2523 47.4004 35.2523H72.4294C75.872 35.2523 79.5602 33.5048 81.3323 31.8197C83.275 29.9723 84.9993 26.9877 84.9993 23.2258V12.137C84.9993 8.81056 83.1028 5.19817 81.4138 3.51698C79.516 1.62718 76.4685 0 72.7069 0H47.2897C46.7503 0 45.3544 0.175946 44.8755 0.297879C44.4999 0.393615 44.1265 0.471561 43.7574 0.563092C43.386 0.65527 43.105 0.800166 42.7492 0.882641Z" fill="#1F4972"/>
</g>
<defs>
<clipPath id="clip0">
<rect width="85" height="35" fill="white"/>
</clipPath>
</defs>
</svg>
