<svg width="87" height="28" viewBox="0 0 87 28" fill="none" xmlns="http://www.w3.org/2000/svg">
<g clip-path="url(#clip0)">
<path d="M37.7 27.5961H30.6523L35.0604 0.491333H42.1077L37.7 27.5961Z" fill="#00579F"/>
<path d="M63.2481 1.15396C61.858 0.605531 59.6532 0 56.9269 0C49.9672 0 45.0662 3.69067 45.0361 8.96721C44.9783 12.8602 48.5451 15.0225 51.2128 16.3206C53.9394 17.647 54.8663 18.5127 54.8663 19.6951C54.8385 21.5109 52.663 22.3479 50.6339 22.3479C47.8202 22.3479 46.3125 21.9164 44.0214 20.9061L43.0934 20.473L42.1072 26.5575C43.7601 27.3063 46.8055 27.9709 49.9672 28C57.362 28 62.1763 24.3665 62.2334 18.7435C62.2615 15.6579 60.3781 13.2937 56.3176 11.3617C53.8527 10.1215 52.3431 9.2853 52.3431 8.01637C52.372 6.8628 53.6199 5.68125 56.4024 5.68125C58.6936 5.62338 60.377 6.17104 61.6522 6.71908L62.2896 7.0069L63.2481 1.15396V1.15396Z" fill="#00579F"/>
<path d="M72.615 17.9938C73.1954 16.4367 75.4287 10.4101 75.4287 10.4101C75.3994 10.468 76.0079 8.82427 76.3559 7.81518L76.8485 10.1507C76.8485 10.1507 78.1831 16.6387 78.4729 17.9938C77.3714 17.9938 74.007 17.9938 72.615 17.9938ZM81.3144 0.491333H75.863C74.182 0.491333 72.9048 0.981122 72.1795 2.74023L61.7112 27.5957H69.106C69.106 27.5957 70.3235 24.2503 70.5851 23.5298C71.3964 23.5298 78.59 23.5298 79.6337 23.5298C79.836 24.4814 80.4746 27.5957 80.4746 27.5957H87L81.3144 0.491333V0.491333Z" fill="#00579F"/>
<path d="M24.7658 0.491333L17.8639 18.9742L17.1097 15.2256C15.8337 10.9003 11.8318 6.20094 7.36591 3.86429L13.6878 27.5673H21.1405L32.2181 0.491333H24.7658V0.491333Z" fill="#00579F"/>
<path d="M11.4549 0.491333H0.116002L0 1.03899C8.84506 3.28827 14.703 8.71006 17.1097 15.2268L14.6448 2.76973C14.239 1.03861 12.9918 0.548437 11.4549 0.491333Z" fill="#FAA61A"/>
</g>
<defs>
<clipPath id="clip0">
<rect width="87" height="28" fill="white"/>
</clipPath>
</defs>
</svg>
