<svg width="166" height="22" viewBox="0 0 166 22" fill="none" xmlns="http://www.w3.org/2000/svg">
<path d="M44.7936 5.68781C44.7936 4.50732 44.0032 3.7561 42.9492 3.7561H39.8927V7.5122H42.9492C44.0032 7.56585 44.7936 6.81463 44.7936 5.68781ZM35.5714 17.0098V0H43.4762C47.007 0 48.9041 2.57561 48.9041 5.68781C48.9041 8.74634 47.007 11.322 43.4762 11.322H39.8927V17.0098H35.5714V17.0098ZM56.3873 13.7902V12.7171C55.9657 12.1805 55.1752 11.8585 54.3847 11.8585C53.4362 11.8585 52.593 12.3415 52.593 13.3073C52.593 14.2732 53.4362 14.7561 54.3847 14.7561C55.1752 14.6488 55.913 14.3805 56.3873 13.7902V13.7902ZM56.3873 17.0098V15.722C55.5441 16.6341 54.332 17.2244 52.8565 17.2244C51.1174 17.2244 48.9568 15.9366 48.9568 13.1463C48.9568 10.1415 51.1174 9.17561 52.8565 9.17561C54.332 9.17561 55.4914 9.7122 56.3873 10.6244V9.12195C56.3873 8.04878 55.5441 7.35122 54.1212 7.35122C53.0146 7.35122 51.8025 7.83415 50.9066 8.63902L49.6419 6.17073C51.1174 4.82927 52.9619 4.23902 54.7009 4.23902C57.4413 4.23902 59.9181 5.3122 59.9181 9.17561V16.9561L56.3873 17.0098V17.0098ZM61.8152 18.2976C62.0787 18.4585 62.4476 18.5122 62.7111 18.5122C63.5543 18.5122 64.0286 18.2976 64.2393 17.8146L64.5028 17.2244L59.8654 4.82927L63.6597 4.77561L66.2946 12.5561L68.7714 4.72195L72.5657 4.66829L67.612 18.7268C66.7162 21.3561 65.0298 21.8927 62.8692 22C62.553 22 61.7098 21.9463 61.3409 21.7854L61.8152 18.2976V18.2976ZM87.5847 17.0098V9.4439C87.5847 8.47805 87.2158 7.78049 86.1092 7.78049C85.1079 7.78049 84.5282 8.47805 84.1066 8.96098V17.0098H80.207V9.4439C80.207 8.47805 79.8381 7.78049 78.7314 7.78049C77.7828 7.78049 77.1505 8.47805 76.7289 8.96098V17.0098H73.2508V4.72195H76.7289V6.11707C77.572 5.41951 78.7314 4.29268 80.5232 4.29268C82.1568 4.29268 83.3162 5.0439 83.7905 6.49268C84.4228 5.41951 85.8984 4.29268 87.6901 4.29268C89.7981 4.29268 91.0628 5.47317 91.0628 7.99512V17.0098H87.5847V17.0098ZM98.3879 7.35122C96.807 7.35122 96.2273 8.53171 96.0692 9.4439H100.707C100.601 8.47805 100.022 7.35122 98.3879 7.35122V7.35122ZM92.3276 10.7854C92.3276 7.19024 94.8044 4.34634 98.3352 4.34634C101.708 4.34634 104.079 7.02927 104.079 11.2146V11.8049H96.0692C96.28 13.2 97.2812 14.1122 98.9149 14.1122C99.7054 14.1122 101.076 13.7902 101.708 13.0927L103.236 15.561C102.129 16.6341 100.232 17.2244 98.4933 17.2244C95.0152 17.2244 92.3276 14.7561 92.3276 10.7854V10.7854ZM112.775 17.0098V9.81951C112.775 8.31707 112.142 7.78049 110.983 7.78049C109.929 7.78049 109.296 8.42439 108.875 8.96098V17.0098H105.397V4.72195H108.875V6.11707C109.718 5.25854 110.983 4.29268 112.88 4.29268C115.462 4.29268 116.727 5.90244 116.727 8.20976V17.0098H112.775ZM118.835 13.6293V8.04878H117.096V4.72195H118.835V1.39512H122.735V4.72195H124.895V8.04878H122.735V12.5561C122.735 13.2537 123.051 13.7902 123.683 13.7902C124.105 13.7902 124.474 13.6293 124.579 13.4683L125.264 16.4195C124.843 16.9024 123.841 17.2244 122.471 17.2244C120.205 17.2244 118.835 15.9902 118.835 13.6293V13.6293ZM136.963 17.0098L134.855 9.39024L132.695 17.0098H128.848L125.475 4.72195H129.164L131.008 12.2878L133.222 4.72195H136.436L138.65 12.2878L140.494 4.72195H144.183L140.863 17.0098H136.963ZM151.403 13.7902V12.7171C150.981 12.1805 150.243 11.8585 149.453 11.8585C148.504 11.8585 147.661 12.3415 147.661 13.3073C147.661 14.2732 148.451 14.7561 149.453 14.7561C150.19 14.6488 150.928 14.3805 151.403 13.7902V13.7902ZM151.403 17.0098V15.722C150.981 16.6341 149.4 17.2244 147.924 17.2244C146.185 17.2244 144.077 15.9366 144.077 13.1463C144.077 10.1415 146.185 9.17561 147.924 9.17561C149.4 9.17561 150.981 9.7122 151.403 10.6244V9.12195C151.403 8.04878 150.612 7.35122 149.136 7.35122C148.03 7.35122 146.87 7.83415 145.975 8.63902L144.71 6.17073C146.185 4.82927 148.241 4.23902 149.927 4.23902C152.667 4.23902 155.302 5.3122 155.302 9.17561V16.9561L151.403 17.0098V17.0098ZM162.258 0H165.736V17.0098H162.258V0ZM157.041 0H160.519V17.0098H157.041V0Z" fill="black"/>
<path d="M20.6051 16.9025L22.2914 12.1268H28.6152L30.3016 16.9025H20.6051ZM10.487 16.9025L12.1733 12.1268H18.5498L20.2362 16.9025H10.487ZM15.546 10.839L17.2324 6.11709H23.5035L25.1898 10.839H15.546ZM5.37524 10.839L7.06159 6.11709H13.3854L15.0717 10.839H5.37524ZM0.316193 16.9025L2.00254 12.1268H8.32635L10.0127 16.9025H0.316193ZM10.487 4.99026L12.1733 0.268311H18.4971L20.1835 4.99026H10.487Z" fill="#FFC013"/>
</svg>
