<svg width="50" height="39" viewBox="0 0 50 39" fill="none" xmlns="http://www.w3.org/2000/svg">
<g clip-path="url(#clip0)">
<path d="M49.5478 25.1028V24.5018H49.3916L49.2108 24.9146L49.0311 24.5018H48.8739V25.1028H48.9849V24.6496L49.1539 25.0407H49.2688L49.4378 24.6486V25.1028H49.5478ZM48.5566 25.1028V24.6043H48.757V24.5028H48.2461V24.6043H48.4465V25.1028H48.5566Z" fill="#0099DF"/>
<path d="M31.7859 27.6878H18.2664V3.32227H31.7859V27.6878Z" fill="#6C6BBD"/>
<path d="M19.1325 15.503C19.1325 10.5604 21.4402 6.15758 25.0338 3.32025C22.4059 1.24545 19.0893 0.00707267 15.4848 0.00707267C6.95164 0.00707267 0.0345154 6.94475 0.0345154 15.503C0.0345154 24.0614 6.95164 30.999 15.4848 30.999C19.0893 30.999 22.4059 29.7606 25.0338 27.6858C21.4402 24.8485 19.1325 20.4457 19.1325 15.503Z" fill="#EB001B"/>
<path d="M50.0194 15.503C50.0194 24.0614 43.1023 30.999 34.5691 30.999C30.9647 30.999 27.6481 29.7606 25.0191 27.6858C28.6138 24.8485 30.9214 20.4457 30.9214 15.503C30.9214 10.5604 28.6138 6.15758 25.0191 3.32025C27.6481 1.24545 30.9647 0.00707267 34.5691 0.00707267C43.1023 0.00707267 50.0194 6.94475 50.0194 15.503Z" fill="#0099DF"/>
<path d="M36.3442 34.5684C36.524 34.5684 36.7824 34.6029 36.9799 34.6807L36.7048 35.524C36.5162 35.4462 36.3275 35.4206 36.1468 35.4206C35.5632 35.4206 35.2715 35.7989 35.2715 36.4787V38.786H34.3784V34.6718H35.2626V35.1713C35.4945 34.8098 35.8295 34.5684 36.3442 34.5684V34.5684ZM33.0453 35.4895H31.5864V37.3486C31.5864 37.7614 31.7318 38.0372 32.1788 38.0372C32.4107 38.0372 32.7025 37.9594 32.9677 37.8047L33.2251 38.5702C32.9422 38.7682 32.4962 38.8894 32.1101 38.8894C31.054 38.8894 30.6856 38.321 30.6856 37.3653V35.4895H29.8525V34.6718H30.6856V33.4236H31.5864V34.6718H33.0453V35.4895ZM21.6209 36.3673C21.7162 35.7733 22.0758 35.3684 22.7114 35.3684C23.2861 35.3684 23.6555 35.7299 23.7498 36.3673H21.6209ZM24.6772 36.7289C24.6683 35.4462 23.8785 34.5684 22.7281 34.5684C21.5266 34.5684 20.6857 35.4462 20.6857 36.7289C20.6857 38.0362 21.561 38.8884 22.789 38.8884C23.4069 38.8884 23.9728 38.7337 24.4709 38.3121L24.0327 37.6491C23.6899 37.9249 23.2517 38.0796 22.8401 38.0796C22.2654 38.0796 21.7418 37.8126 21.6131 37.0727H24.6595C24.6683 36.9604 24.6772 36.8491 24.6772 36.7289V36.7289ZM28.5989 35.722C28.3504 35.5664 27.8445 35.3684 27.3208 35.3684C26.8316 35.3684 26.5398 35.5496 26.5398 35.8511C26.5398 36.126 26.8483 36.2038 27.2344 36.255L27.6549 36.3151C28.5479 36.4452 29.0882 36.8235 29.0882 37.5466C29.0882 38.3298 28.4015 38.8894 27.2177 38.8894C26.5477 38.8894 25.9298 38.717 25.4405 38.3554L25.861 37.6579C26.1616 37.8904 26.6086 38.0885 27.2265 38.0885C27.8356 38.0885 28.1618 37.9082 28.1618 37.589C28.1618 37.3574 27.9299 37.2274 27.4407 37.1594L27.0202 37.0993C26.1017 36.9693 25.6036 36.5565 25.6036 35.8856C25.6036 35.0679 26.2736 34.5684 27.312 34.5684C27.9643 34.5684 28.5567 34.7152 28.985 34.9989L28.5989 35.722ZM39.6068 35.4186C39.4231 35.4186 39.2531 35.4511 39.095 35.5151C38.9378 35.5802 38.8012 35.6708 38.6863 35.7871C38.5714 35.9033 38.481 36.0432 38.4152 36.2058C38.3493 36.3683 38.3169 36.5476 38.3169 36.7427C38.3169 36.9387 38.3493 37.1171 38.4152 37.2796C38.481 37.4422 38.5714 37.5821 38.6863 37.6983C38.8012 37.8146 38.9378 37.9052 39.095 37.9702C39.2531 38.0353 39.4231 38.0668 39.6068 38.0668C39.7905 38.0668 39.9615 38.0353 40.1186 37.9702C40.2768 37.9052 40.4143 37.8146 40.5293 37.6983C40.6462 37.5821 40.7366 37.4422 40.8034 37.2796C40.8692 37.1171 40.9016 36.9387 40.9016 36.7427C40.9016 36.5476 40.8692 36.3683 40.8034 36.2058C40.7366 36.0432 40.6462 35.9033 40.5293 35.7871C40.4143 35.6708 40.2768 35.5802 40.1186 35.5151C39.9615 35.4511 39.7905 35.4186 39.6068 35.4186V35.4186ZM39.6068 34.5684C39.9251 34.5684 40.2198 34.6236 40.491 34.7349C40.7621 34.8452 40.9969 34.9979 41.1944 35.192C41.3928 35.3861 41.5471 35.6156 41.6591 35.8797C41.7711 36.1447 41.827 36.4324 41.827 36.7427C41.827 37.053 41.7711 37.3407 41.6591 37.6057C41.5471 37.8697 41.3928 38.1003 41.1944 38.2944C40.9969 38.4884 40.7621 38.6402 40.491 38.7515C40.2198 38.8618 39.9251 38.917 39.6068 38.917C39.2885 38.917 38.9938 38.8618 38.7226 38.7515C38.4515 38.6402 38.2187 38.4884 38.0222 38.2944C37.8257 38.1003 37.6715 37.8697 37.5595 37.6057C37.4475 37.3407 37.3915 37.053 37.3915 36.7427C37.3915 36.4324 37.4475 36.1447 37.5595 35.8797C37.6715 35.6156 37.8257 35.3861 38.0222 35.192C38.2187 34.9979 38.4515 34.8452 38.7226 34.7349C38.9938 34.6236 39.2885 34.5684 39.6068 34.5684V34.5684ZM16.4063 36.7289C16.4063 36.0058 16.8788 35.4117 17.651 35.4117C18.3888 35.4117 18.8869 35.9802 18.8869 36.7289C18.8869 37.4776 18.3888 38.0451 17.651 38.0451C16.8788 38.0451 16.4063 37.452 16.4063 36.7289V36.7289ZM19.7278 36.7289V34.6718H18.8358V35.1713C18.5519 34.8009 18.1236 34.5684 17.54 34.5684C16.3896 34.5684 15.4887 35.4718 15.4887 36.7289C15.4887 37.985 16.3896 38.8894 17.54 38.8894C18.1236 38.8894 18.5519 38.6569 18.8358 38.2865V38.786H19.7278V36.7289ZM14.6989 38.786V36.2038C14.6989 35.2314 14.081 34.5773 13.0858 34.5684C12.5622 34.5595 12.0208 34.7231 11.6436 35.3004C11.3607 34.8442 10.9137 34.5684 10.2869 34.5684C9.84973 34.5684 9.42042 34.6974 9.08542 35.1792V34.6718H8.19339V38.786H9.09426V36.5053C9.09426 35.791 9.48918 35.4117 10.0983 35.4117C10.6907 35.4117 10.9913 35.7989 10.9913 36.4964V38.786H11.8922V36.5053C11.8922 35.791 12.3048 35.4117 12.8962 35.4117C13.5062 35.4117 13.798 35.7989 13.798 36.4964V38.786H14.6989Z" fill="#231F20"/>
<path d="M42.7888 38.4776V38.5791H42.8822C42.9028 38.5791 42.9205 38.5742 42.9323 38.5663C42.945 38.5584 42.9519 38.5446 42.9519 38.5278C42.9519 38.5111 42.945 38.4983 42.9323 38.4904C42.9205 38.4815 42.9028 38.4776 42.8822 38.4776H42.7888ZM42.8832 38.4067C42.9313 38.4067 42.9686 38.4175 42.9951 38.4392C43.0217 38.4609 43.0344 38.4904 43.0344 38.5278C43.0344 38.5594 43.0246 38.585 43.003 38.6057C42.9824 38.6254 42.9519 38.6382 42.9136 38.6431L43.0374 38.786H42.9411L42.8262 38.6441H42.7888V38.786H42.7083V38.4067H42.8832ZM42.8586 38.916C42.9028 38.916 42.9441 38.9081 42.9814 38.8914C43.0197 38.8746 43.0531 38.852 43.0816 38.8234C43.1101 38.7948 43.1327 38.7613 43.1494 38.7219C43.1651 38.6835 43.1739 38.6421 43.1739 38.5978C43.1739 38.5535 43.1651 38.5121 43.1494 38.4737C43.1327 38.4352 43.1101 38.4008 43.0816 38.3722C43.0531 38.3436 43.0197 38.321 42.9814 38.3052C42.9441 38.2884 42.9028 38.2806 42.8586 38.2806C42.8144 38.2806 42.7721 38.2884 42.7338 38.3052C42.6945 38.321 42.6601 38.3436 42.6317 38.3722C42.6032 38.4008 42.5806 38.4352 42.5649 38.4737C42.5482 38.5121 42.5403 38.5535 42.5403 38.5978C42.5403 38.6421 42.5482 38.6835 42.5649 38.7219C42.5806 38.7613 42.6032 38.7948 42.6317 38.8234C42.6601 38.852 42.6945 38.8746 42.7338 38.8914C42.7721 38.9081 42.8144 38.916 42.8586 38.916V38.916ZM42.8586 38.1889C42.9166 38.1889 42.9696 38.1998 43.0197 38.2215C43.0708 38.2421 43.114 38.2717 43.1523 38.3091C43.1897 38.3456 43.2191 38.3889 43.2407 38.4392C43.2624 38.4884 43.2732 38.5416 43.2732 38.5978C43.2732 38.654 43.2624 38.7072 43.2407 38.7564C43.2191 38.8057 43.1897 38.849 43.1523 38.8855C43.114 38.9229 43.0708 38.9525 43.0197 38.9741C42.9696 38.9958 42.9166 39.0067 42.8586 39.0067C42.7996 39.0067 42.7456 38.9958 42.6945 38.9741C42.6434 38.9525 42.5992 38.9229 42.5619 38.8855C42.5246 38.849 42.4951 38.8057 42.4735 38.7564C42.4519 38.7072 42.4411 38.654 42.4411 38.5978C42.4411 38.5416 42.4519 38.4884 42.4735 38.4392C42.4951 38.3889 42.5246 38.3456 42.5619 38.3091C42.5992 38.2717 42.6434 38.2421 42.6945 38.2215C42.7456 38.1998 42.7996 38.1889 42.8586 38.1889" fill="#231F20"/>
</g>
<defs>
<clipPath id="clip0">
<rect width="50" height="39" fill="white"/>
</clipPath>
</defs>
</svg>
