<svg width="137" height="36" viewBox="0 0 137 36" fill="none" xmlns="http://www.w3.org/2000/svg">
<g clip-path="url(#clip0)">
<rect width="137" height="36.1528" rx="5.70833" fill="#007DFE"/>
<path d="M18.0764 4.28125C23.4042 4.28125 26.0046 6.18403 26.6389 7.13542C26.7974 7.13542 27.5959 7.59409 27.1146 9.03819C26.6389 10.4653 25.8461 10.3067 25.2118 9.98958C24.2604 9.19676 21.5014 7.61111 18.0764 7.61111C13.7951 7.61111 7.1354 9.51389 7.1354 18.0764C7.1354 26.6389 14.2708 29.0174 18.0764 29.0174C19.9792 29.0174 22.6748 27.9074 24.2604 27.1146C24.419 26.956 26.1632 25.6875 27.1146 27.1146C28.066 28.5417 26.6389 29.5882 25.2118 30.4444C23.6261 31.3958 20.9305 32.3472 18.0764 32.3472C12.368 32.3472 3.80554 28.066 3.80554 18.0764C3.80554 8.08681 11.4167 4.28125 18.0764 4.28125Z" fill="#092E8C"/>
<path d="M16.3032 27C12.7995 26.28 9.64014 23.18 9.17434 19.96C8.8503 17.64 9.11358 15.8 10.0249 14.08C11.0173 12.22 12.3337 10.94 14.1362 10.06C15.5133 9.38 15.7361 9.34 17.7208 9.3C20.2929 9.24 22.2168 9.78 23.1484 10.8C24.1206 11.88 23.7763 13.4 22.4194 13.86C22.0953 13.98 19.9891 13.32 18.8752 12.76C18.1056 12.36 15.5943 13.22 14.4197 14.3C12.8198 15.72 12.2932 18.5 13.2451 20.36C14.2779 22.34 15.5741 23.22 17.7411 23.36C19.0575 23.44 19.3613 23.38 20.3536 22.92C20.9612 22.62 21.4675 22.28 21.4675 22.18C21.4675 22.08 21.589 22 21.7308 22C21.8928 22 22.2573 21.56 22.5611 21L23.1079 20H21.103C19.4018 20 19.017 19.94 18.5714 19.6C17.7006 18.92 17.6803 17.26 18.5512 16.74C18.6929 16.66 20.5156 16.58 22.6016 16.56L26.3686 16.52L26.7736 17.06C27.3204 17.82 27.1787 19.82 26.4091 21.7C25.9635 22.82 25.5585 23.38 24.3838 24.52C23.1484 25.74 22.7231 26.02 21.4473 26.46C19.8068 27.02 17.5791 27.26 16.3032 27Z" fill="#2B7EDB"/>
<path d="M15.3715 26.62C12.6172 25.56 11.159 24.26 10.0249 21.9C8.749 19.22 8.749 16.88 10.0857 14.2C11.0578 12.22 12.2527 11.06 14.2981 10.12C15.8981 9.37999 15.8981 9.35999 18.2271 9.43999C20.4346 9.49999 20.6574 9.53999 21.9738 10.2C23.2699 10.84 23.4117 10.98 23.5737 11.66C23.7155 12.3 23.675 12.54 23.3509 12.96C22.7029 13.82 22.0345 13.96 20.9612 13.44C20.4549 13.2 19.827 13 19.5435 13C19.2802 13 18.9967 12.9 18.9157 12.78C18.7537 12.52 17.5588 12.66 16.2019 13.1C14.9867 13.5 13.4273 14.82 13.2653 15.62C13.1843 15.96 13.002 16.46 12.84 16.76C12.0501 18.26 13.0425 21.3 14.6829 22.36C14.9057 22.5 15.3513 22.78 15.6753 22.98C16.3436 23.42 18.3081 23.7 19.2802 23.5C19.9283 23.36 20.9409 22.78 21.7915 22.06C22.3586 21.6 23.3104 20.08 23.1484 19.92C23.0674 19.86 22.075 19.8 20.9409 19.8C18.9359 19.8 18.8549 19.78 18.4499 19.28C18.1866 18.94 18.0246 18.46 18.0246 17.98C18.0246 16.74 18.3486 16.64 22.5611 16.58L26.1863 16.52L26.6521 17.06C27.0369 17.5 27.1179 17.84 27.1179 18.66C27.0976 19.24 27.0166 19.8 26.9558 19.9C26.8748 20.02 26.6926 20.5 26.5306 21C26.1053 22.4 25.4572 23.4 24.0598 24.72C22.9661 25.76 22.5408 26.02 21.1637 26.46C19.1587 27.12 16.8297 27.18 15.3715 26.62Z" fill="#368DDD"/>
<path d="M32.8492 27.2C32.1404 26.54 32.1201 26.02 32.8087 24.42C33.6796 22.4 34.0239 20.68 34.0239 18.14C34.0239 15.68 33.6391 13.74 32.7885 11.86C32.1404 10.44 32.1809 9.58 32.8897 9.1C33.8011 8.46 34.8745 8.84 35.3605 9.96C36.0896 11.64 36.8389 13.98 37.0617 15.4C37.4465 17.68 37.2035 21.04 36.4744 23.4C35.6035 26.24 35.239 26.96 34.5099 27.3C33.6593 27.7 33.3758 27.68 32.8492 27.2Z" fill="#73BAF5"/>
<path d="M15.8171 26.68C12.6172 25.84 10.0046 23.16 9.3363 20.04C8.38444 15.58 10.7742 11.36 15.1285 9.79999C16.2018 9.41999 16.6676 9.35999 18.4701 9.43999C20.7586 9.53999 22.237 9.99999 23.1079 10.92C23.7155 11.56 23.7357 12.66 23.1281 13.24C22.5408 13.82 21.6497 13.78 20.07 13.1C18.9562 12.64 18.5916 12.58 17.66 12.68C14.6627 13.02 12.5564 15.34 12.5564 18.28C12.5564 19.58 13.488 21.58 14.4399 22.28C16.0196 23.44 17.903 23.86 19.5637 23.42C21.0219 23.04 22.8041 21.46 23.1889 20.26C23.3104 19.8 23.3104 19.8 21.1637 19.8C19.1587 19.8 18.9967 19.76 18.5309 19.3C17.8828 18.68 17.8828 17.78 18.4904 17.12C18.9359 16.62 18.9764 16.62 22.3788 16.58C24.2825 16.56 25.9635 16.62 26.1457 16.68C27.8874 17.4 26.8141 22 24.323 24.4C21.9738 26.66 18.8752 27.5 15.8171 26.68Z" fill="#73BAF5"/>
<path d="M28.252 24.3C27.6242 23.7 27.6242 23.44 28.252 21.7C28.9203 19.82 28.9811 16.56 28.3533 14.96C27.8672 13.68 27.8267 12.34 28.2722 11.92C28.7381 11.44 29.9532 11.52 30.5203 12.04C30.7835 12.28 31.1886 13.12 31.4519 13.88C31.8367 15.08 31.8974 15.74 31.8974 18.2C31.8974 20.84 31.8367 21.24 31.3304 22.6C31.0468 23.42 30.6013 24.26 30.3582 24.46C29.7304 24.96 28.8393 24.9 28.252 24.3Z" fill="#73BAF5"/>
<path d="M16.0804 26.6C14.8045 26.34 13.3463 25.54 12.0704 24.4C8.52626 21.18 8.3845 15.64 11.7666 12.1C12.9818 10.82 14.4399 10.08 16.5664 9.63999C17.9639 9.35999 18.3689 9.35999 19.4423 9.55999C22.8447 10.26 24.2826 11.7 22.9864 13.08C22.3789 13.72 22.0143 13.74 20.5764 13.1C18.1866 12.06 15.5741 12.58 13.8324 14.46C12.2527 16.16 11.9692 18.5 13.0628 20.74C15.0475 24.72 21.0422 24.74 23.1079 20.78C23.3307 20.34 23.4522 19.9 23.3915 19.8C23.3307 19.68 22.3384 19.6 21.184 19.6C19.2803 19.6 19.0777 19.56 18.6727 19.14C18.0854 18.52 18.1056 17.7 18.7334 17.1C19.2195 16.6 19.2803 16.6 22.5611 16.6H25.8825L26.4293 17.22C26.9154 17.8 26.9356 17.96 26.8141 18.98C26.1661 24.24 21.3865 27.64 16.0804 26.6Z" fill="#FEFFFF"/>
<path d="M58.8671 14.2472C58.4866 13.5495 57.9633 13.0183 57.2974 12.6537C56.6314 12.289 55.8544 12.1066 54.9665 12.1066C53.9834 12.1066 53.1112 12.3286 52.3501 12.7726C51.589 13.2166 50.9944 13.8508 50.5663 14.6754C50.1382 15.4999 49.9241 16.4513 49.9241 17.5295C49.9241 18.6395 50.1382 19.6067 50.5663 20.4313C51.0103 21.2558 51.6207 21.8901 52.3977 22.334C53.1747 22.778 54.0785 23 55.1092 23C56.3777 23 57.4163 22.667 58.225 22.001C59.0336 21.3192 59.5648 20.3758 59.8185 19.1707H54.1102V16.6257H63.1008V19.5274C62.8788 20.685 62.4031 21.7553 61.6737 22.7384C60.9443 23.7215 60.0009 24.5143 58.8434 25.1168C57.7017 25.7035 56.4173 25.9969 54.9902 25.9969C53.3887 25.9969 51.9379 25.6401 50.6376 24.9266C49.3533 24.1972 48.3384 23.1903 47.5932 21.9059C46.8638 20.6215 46.4991 19.1627 46.4991 17.5295C46.4991 15.8963 46.8638 14.4375 47.5932 13.1531C48.3384 11.8529 49.3533 10.846 50.6376 10.1325C51.9379 9.40307 53.3808 9.03837 54.9665 9.03837C56.8375 9.03837 58.4628 9.49821 59.8423 10.4179C61.2218 11.3217 62.1732 12.5982 62.6965 14.2472H58.8671ZM64.7557 17.5295C64.7557 15.8963 65.1204 14.4375 65.8498 13.1531C66.5951 11.8529 67.602 10.846 68.8705 10.1325C70.1549 9.40307 71.5899 9.03837 73.1755 9.03837C75.0307 9.03837 76.656 9.51407 78.0514 10.4655C79.4468 11.4168 80.4219 12.7329 80.9769 14.4137H77.1476C76.767 13.6209 76.2279 13.0263 75.5302 12.6299C74.8484 12.2335 74.0556 12.0352 73.1517 12.0352C72.1845 12.0352 71.3203 12.2652 70.5592 12.725C69.8139 13.169 69.2273 13.8032 68.7991 14.6278C68.3869 15.4523 68.1807 16.4196 68.1807 17.5295C68.1807 18.6236 68.3869 19.5909 68.7991 20.4313C69.2273 21.2558 69.8139 21.898 70.5592 22.3578C71.3203 22.8018 72.1845 23.0238 73.1517 23.0238C74.0556 23.0238 74.8484 22.8256 75.5302 22.4292C76.2279 22.0169 76.767 21.4144 77.1476 20.6215H80.9769C80.4219 22.3182 79.4468 23.6422 78.0514 24.5936C76.6719 25.5291 75.0466 25.9969 73.1755 25.9969C71.5899 25.9969 70.1549 25.6401 68.8705 24.9266C67.602 24.1972 66.5951 23.1903 65.8498 21.9059C65.1204 20.6215 64.7557 19.1627 64.7557 17.5295ZM82.9648 19.2182C82.9648 17.8863 83.2264 16.705 83.7497 15.6743C84.2888 14.6436 85.0103 13.8508 85.9141 13.2958C86.8338 12.7409 87.8565 12.4634 88.9823 12.4634C89.9654 12.4634 90.8217 12.6616 91.5511 13.058C92.2963 13.4544 92.8909 13.9539 93.3349 14.5564V12.6774H96.6886V25.8542H93.3349V23.9276C92.9068 24.546 92.3122 25.0613 91.5511 25.4736C90.8058 25.87 89.9416 26.0682 88.9585 26.0682C87.8486 26.0682 86.8338 25.7828 85.9141 25.212C85.0103 24.6412 84.2888 23.8404 83.7497 22.8097C83.2264 21.7632 82.9648 20.566 82.9648 19.2182ZM93.3349 19.2658C93.3349 18.4571 93.1764 17.7674 92.8592 17.1965C92.5421 16.6098 92.114 16.1659 91.5749 15.8646C91.0357 15.5475 90.457 15.3889 89.8386 15.3889C89.2202 15.3889 88.6493 15.5395 88.1261 15.8408C87.6028 16.1421 87.1747 16.5861 86.8417 17.1727C86.5246 17.7436 86.366 18.4254 86.366 19.2182C86.366 20.0111 86.5246 20.7087 86.8417 21.3113C87.1747 21.898 87.6028 22.3499 88.1261 22.667C88.6652 22.9841 89.236 23.1427 89.8386 23.1427C90.457 23.1427 91.0357 22.9921 91.5749 22.6908C92.114 22.3737 92.5421 21.9297 92.8592 21.3589C93.1764 20.7722 93.3349 20.0745 93.3349 19.2658ZM104.983 26.0682C103.905 26.0682 102.938 25.878 102.081 25.4974C101.225 25.101 100.543 24.5698 100.036 23.9038C99.5444 23.2379 99.2748 22.5005 99.2272 21.6918H102.581C102.644 22.1993 102.89 22.6194 103.318 22.9524C103.762 23.2854 104.309 23.4519 104.959 23.4519C105.594 23.4519 106.085 23.3251 106.434 23.0714C106.799 22.8177 106.981 22.4926 106.981 22.0962C106.981 21.6681 106.759 21.3509 106.315 21.1448C105.887 20.9228 105.197 20.685 104.246 20.4313C103.263 20.1934 102.454 19.9476 101.82 19.6939C101.201 19.4402 100.662 19.0517 100.202 18.5285C99.7584 18.0052 99.5364 17.2996 99.5364 16.4116C99.5364 15.6822 99.7426 15.0163 100.155 14.4137C100.583 13.8112 101.185 13.3355 101.962 12.9866C102.755 12.6378 103.683 12.4634 104.745 12.4634C106.315 12.4634 107.568 12.8598 108.503 13.6526C109.439 14.4296 109.954 15.484 110.049 16.816H106.862C106.815 16.2927 106.593 15.8804 106.196 15.5792C105.816 15.262 105.3 15.1035 104.65 15.1035C104.048 15.1035 103.58 15.2145 103.247 15.4365C102.93 15.6585 102.771 15.9677 102.771 16.3641C102.771 16.808 102.993 17.149 103.437 17.3868C103.881 17.6088 104.571 17.8387 105.506 18.0766C106.458 18.3144 107.243 18.5602 107.861 18.8139C108.479 19.0676 109.011 19.464 109.455 20.0031C109.914 20.5264 110.152 21.2241 110.168 22.0962C110.168 22.8573 109.954 23.5391 109.526 24.1417C109.114 24.7442 108.511 25.2199 107.718 25.5688C106.941 25.9017 106.03 26.0682 104.983 26.0682ZM120.322 12.4872C121.321 12.4872 122.209 12.7091 122.986 13.1531C123.763 13.5813 124.366 14.2234 124.794 15.0797C125.238 15.9201 125.46 16.9349 125.46 18.1241V25.8542H122.13V18.576C122.13 17.5295 121.868 16.7288 121.345 16.1738C120.822 15.603 120.108 15.3175 119.205 15.3175C118.285 15.3175 117.555 15.603 117.016 16.1738C116.493 16.7288 116.231 17.5295 116.231 18.576V25.8542H112.902V8.25348H116.231V14.3186C116.66 13.7477 117.23 13.3038 117.944 12.9866C118.657 12.6536 119.45 12.4872 120.322 12.4872Z" fill="white"/>
</g>
<defs>
<clipPath id="clip0">
<rect width="137" height="36" fill="white"/>
</clipPath>
</defs>
</svg>
