<?xml version="1.0" encoding="UTF-8"?>
<svg width="21px" height="25px" viewBox="0 0 21 25" version="1.1" xmlns="http://www.w3.org/2000/svg" xmlns:xlink="http://www.w3.org/1999/xlink">
    <!-- Generator: Sketch 50.2 (55047) - http://www.bohemiancoding.com/sketch -->
    <title>payment-methods/1380-icon</title>
    <desc>Created with Sketch.</desc>
    <defs></defs>
    <g id="Icons" stroke="none" stroke-width="1" fill="none" fill-rule="evenodd">
        <g id="payment-methods/1380-icon" fill-rule="nonzero">
            <path d="M5.86869231,23.5112903 L6.29111538,20.8322581 L5.35015385,20.8104839 L0.856961538,20.8104839 L3.9795,1.04193548 C3.98919231,0.982258065 4.02069231,0.926612903 4.06673077,0.887096774 C4.11276923,0.847580645 4.17173077,0.825806452 4.23311538,0.825806452 L11.8092692,0.825806452 C14.3244231,0.825806452 16.0601538,1.3483871 16.9663846,2.37983871 C17.3912308,2.86370968 17.6618077,3.36935484 17.7926538,3.92580645 C17.9299615,4.50967742 17.9323846,5.20725806 17.7983077,6.05806452 L17.7886154,6.12016129 L17.7886154,6.66532258 L18.2134615,6.90564516 C18.5712692,7.09516129 18.8555769,7.31209677 19.0736538,7.56048387 C19.4371154,7.97419355 19.6721538,8.5 19.7715,9.1233871 C19.8740769,9.76451613 19.8401538,10.5274194 19.6721538,11.391129 C19.4783077,12.3846774 19.1649231,13.25 18.7416923,13.9580645 C18.3523846,14.6104839 17.8564615,15.1516129 17.2676538,15.5709677 C16.7055,15.9693548 16.0375385,16.2717742 15.2823462,16.4653226 C14.5505769,16.6556452 13.7162308,16.7516129 12.8011154,16.7516129 L12.2115,16.7516129 C11.7898846,16.7516129 11.3803846,16.9032258 11.0589231,17.175 C10.7366538,17.4524194 10.5234231,17.8314516 10.458,18.2459677 L10.4135769,18.4870968 L9.66726923,23.208871 L9.63334615,23.3822581 C9.62446154,23.4370968 9.60911538,23.4645161 9.5865,23.4830645 C9.56630769,23.5 9.53723077,23.5112903 9.50896154,23.5112903 L5.86869231,23.5112903 Z" id="Shape" fill="#253B80"></path>
            <path d="M18.6156923,6.18306452 C18.5930769,6.32741935 18.5672308,6.475 18.5381538,6.6266129 C17.5390385,11.7483871 14.1208846,13.5177419 9.75530769,13.5177419 L7.53253846,13.5177419 C6.99865385,13.5177419 6.54876923,13.9048387 6.46557692,14.4306452 L5.32753846,21.6370968 L5.00526923,23.6798387 C4.95115385,24.025 5.21769231,24.3362903 5.56661538,24.3362903 L9.50896154,24.3362903 C9.97580769,24.3362903 10.3723846,23.9975806 10.4458846,23.5379032 L10.4846538,23.3379032 L11.2269231,18.6346774 L11.2745769,18.3766129 C11.3472692,17.9153226 11.7446538,17.5766129 12.2115,17.5766129 L12.8011154,17.5766129 C16.6206923,17.5766129 19.6107692,16.0282258 20.4846923,11.5475806 C20.8497692,9.67580645 20.6607692,8.11290323 19.6947692,7.01370968 C19.4023846,6.68225806 19.0397308,6.40725806 18.6156923,6.18306452 Z" id="Shape" fill="#179BD7"></path>
            <path d="M17.5705385,5.76693548 C17.4178846,5.72258065 17.2603846,5.68225806 17.0988462,5.64596774 C16.9365,5.61048387 16.7701154,5.57903226 16.5988846,5.5516129 C15.9995769,5.45483871 15.3429231,5.40887097 14.6394231,5.40887097 L8.70126923,5.40887097 C8.55507692,5.40887097 8.41615385,5.44193548 8.29176923,5.5016129 C8.01796154,5.63306452 7.81442308,5.89193548 7.76515385,6.20887097 L6.50192308,14.1975806 L6.46557692,14.4306452 C6.54876923,13.9048387 6.99865385,13.5177419 7.53253846,13.5177419 L9.75530769,13.5177419 C14.1208846,13.5177419 17.5390385,11.7475806 18.5381538,6.6266129 C18.5680385,6.475 18.5930769,6.32741935 18.6156923,6.18306452 C18.3628846,6.04919355 18.0890769,5.93467742 17.7942692,5.83709677 C17.7215769,5.81290323 17.6464615,5.78951613 17.5705385,5.76693548 Z" id="Shape" fill="#222D65"></path>
            <path d="M7.76515385,6.20887097 C7.81442308,5.89193548 8.01796154,5.63306452 8.29176923,5.50241935 C8.41696154,5.44274194 8.55507692,5.40967742 8.70126923,5.40967742 L14.6394231,5.40967742 C15.3429231,5.40967742 15.9995769,5.45564516 16.5988846,5.55241935 C16.7701154,5.57983871 16.9365,5.61129032 17.0988462,5.64677419 C17.2603846,5.68306452 17.4178846,5.7233871 17.5705385,5.76774194 C17.6464615,5.79032258 17.7215769,5.81370968 17.7950769,5.83709677 C18.0898846,5.93467742 18.3636923,6.05 18.6165,6.18306452 C18.9137308,4.29032258 18.6140769,3.0016129 17.5891154,1.83467742 C16.4591538,0.55 14.4197308,0 11.8100769,0 L4.23392308,0 C3.70084615,0 3.24611538,0.387096774 3.16373077,0.913709677 L0.00807692308,20.8854839 C-0.0541153846,21.2806452 0.251192308,21.6370968 0.650192308,21.6370968 L5.32753846,21.6370968 L6.50192308,14.1975806 L7.76515385,6.20887097 Z" id="Shape" fill="#253B80"></path>
        </g>
    </g>
</svg>