<?xml version="1.0" encoding="UTF-8"?>
<svg width="35px" height="27px" viewBox="0 0 35 27" version="1.1" xmlns="http://www.w3.org/2000/svg" xmlns:xlink="http://www.w3.org/1999/xlink">
    <!-- Generator: Sketch 50.2 (55047) - http://www.bohemiancoding.com/sketch -->
    <title>icons/cards</title>
    <desc>Created with Sketch.</desc>
    <defs></defs>
    <g id="icons/cards" stroke="none" stroke-width="1" fill="none" fill-rule="evenodd">
        <g id="Group-18" transform="translate(1.000000, 1.000000)" fill="#222222">
            <g id="Group-17" transform="translate(7.000000, 0.000000)">
                <rect id="Rectangle-42" x="17.5" y="4" width="5" height="5" rx="2.5"></rect>
                <path d="M16,4 C17.3807119,4 18.5,5.11928813 18.5,6.5 C18.5,7.88071187 17.3807119,9 16,9 C16,9 16,8.16666667 16,6.5 C14.3333333,6.5 13.5,6.5 13.5,6.5 C13.5,5.11928813 14.6192881,4 16,4 Z" id="Rectangle-42"></path>
                <path d="M3,3 L23,3 L23,17 L19,17 L19,20 L24,20 C25.1045695,20 26,19.1045695 26,18 L26,2 C26,0.8954305 25.1045695,-2.02906125e-16 24,0 L2,0 C0.8954305,2.02906125e-16 -1.3527075e-16,0.8954305 0,2 L-8.8817842e-16,5 L3,5 L3,3 Z" id="Rectangle-40" fill-rule="nonzero"></path>
            </g>
            <g id="Group-16" transform="translate(0.000000, 5.000000)">
                <path d="M3,3 L3,17 L23,17 L23,3 L3,3 Z M2,0 L24,0 C25.1045695,-2.02906125e-16 26,0.8954305 26,2 L26,18 C26,19.1045695 25.1045695,20 24,20 L2,20 C0.8954305,20 1.3527075e-16,19.1045695 0,18 L0,2 C-1.3527075e-16,0.8954305 0.8954305,2.02906125e-16 2,0 Z" id="Rectangle-40" fill-rule="nonzero"></path>
                <rect id="Rectangle-41" x="2" y="4" width="22" height="4"></rect>
                <rect id="Rectangle-43" x="4" y="10" width="13" height="2" rx="1"></rect>
                <rect id="Rectangle-43" x="4" y="13" width="8" height="2" rx="1"></rect>
            </g>
        </g>
    </g>
</svg>