<svg width="50" height="35" viewBox="0 0 50 35" fill="none" xmlns="http://www.w3.org/2000/svg">
<path d="M45.0266 18.0341H40.4565C39.9487 18.0341 39.5397 17.6249 39.5397 17.1079C39.5397 16.591 39.9487 16.1386 40.4565 16.1386H47.4104V12.6492H40.4565C38.0304 12.6492 36.0557 14.6667 36.0557 17.1295C36.0557 19.5922 38.0304 21.6097 40.4565 21.6097H44.9632C45.471 21.6097 45.88 22.019 45.88 22.536C45.88 23.0529 45.471 23.4334 44.9632 23.4334H35.3011C34.483 25.0274 33.686 26.3916 32.0639 27.0737H45.0266C47.4104 27.0378 49.364 24.9843 49.364 22.5431C49.364 20.0948 47.4104 18.07 45.0266 18.0341Z" fill="#71706F"/>
<path d="M27.5149 12.6492C23.643 12.6492 20.4905 15.8801 20.4905 19.8435V19.9942V34.8136H23.9956V27.0737H27.5079C31.3798 27.0737 34.5182 23.7996 34.5182 19.8363C34.5253 15.8658 31.3868 12.6492 27.5149 12.6492ZM27.5149 23.4263H23.9956V19.8291C23.9956 17.8187 25.5684 16.1817 27.5149 16.1817C29.4614 16.1817 31.0483 17.8187 31.0483 19.8291C31.0483 21.8395 29.4614 23.4263 27.5149 23.4263Z" fill="#71706F"/>
<path d="M9.39672 27.0736C6.08198 27.0736 3.29618 24.6683 2.54155 21.5307C2.54155 21.5307 2.32292 20.4896 2.32292 19.8075C2.32292 19.1254 2.52745 18.0771 2.52745 18.0771C3.28913 14.9467 6.06787 12.6132 9.37556 12.6132C13.2686 12.6132 16.4635 15.8298 16.4635 19.7931V21.5379H6.12429C6.73787 22.7513 7.97208 23.4334 9.39672 23.4334H18.6921L18.7062 13.1589C18.7062 11.6295 17.479 10.373 15.9698 10.373H2.79545C1.29323 10.373 0.059021 11.5865 0.059021 13.123V26.5351C0.059021 28.0644 1.29323 29.3568 2.79545 29.3568H15.9698C17.3168 29.3568 18.4453 28.3732 18.6639 27.0808H9.39672V27.0736Z" fill="#B90466"/>
<path d="M9.38262 16.0165C7.96504 16.0165 6.73083 16.8997 6.11725 18.0413H12.648C12.0344 16.8997 10.8002 16.0165 9.38262 16.0165Z" fill="#B90466"/>
<path d="M15.3491 6.00768C15.3491 2.73363 12.6762 0.0842285 9.38257 0.0842285C6.14541 0.0842285 3.50773 2.65465 3.4231 5.84972C3.4231 5.86408 3.4231 5.87844 3.4231 5.8928V7.66625C3.4231 7.88165 3.59236 8.08986 3.81099 8.08986H6.00436C6.21594 8.08986 6.40636 7.88165 6.40636 7.66625V6.00768C6.40636 4.37065 7.73931 3.04237 9.38963 3.04237C11.0399 3.04237 12.3729 4.37065 12.3729 6.00768V7.66625C12.3729 7.88165 12.5422 8.08986 12.7608 8.08986H14.9542C15.1657 8.08986 15.3562 7.88165 15.3562 7.66625V6.00768H15.3491Z" fill="#B90466"/>
</svg>
