<?xml version="1.0" encoding="UTF-8"?>
<svg width="49px" height="20px" viewBox="0 0 49 20" version="1.1" xmlns="http://www.w3.org/2000/svg" xmlns:xlink="http://www.w3.org/1999/xlink">
    <!-- Generator: Sketch 49.3 (51167) - http://www.bohemiancoding.com/sketch -->
    <title>payment-methods/436-icon</title>
    <desc>Created with Sketch.</desc>
    <defs></defs>
    <g id="Icons" stroke="none" stroke-width="1" fill="none" fill-rule="evenodd">
        <g id="payment-methods/436-icon" fill-rule="nonzero">
            <g id="Group">
                <path d="M43.5377778,5.56862745 L41.2750617,5.56862745 L30.7807407,5.56862745 L28.5180247,5.56862745 L26.9965432,7.29411765 L22.0419753,12.9019608 L20.5204938,14.627451 L18.1797531,14.627451 L7.88049383,14.627451 L5.61777778,14.627451 L7.13925926,12.8627451 L7.84148148,12.0392157 L9.36296296,10.2745098 L7.10024691,10.2745098 L4.13530864,10.2745098 L2.49679012,10.2745098 C1.24839506,10.2745098 0.234074074,11.3333333 0.234074074,12.627451 L0.234074074,17.1372549 L0.234074074,17.5686275 C0.234074074,18.8627451 1.24839506,19.9215686 2.49679012,19.9215686 L3.12098765,19.9215686 L26.9575309,19.9215686 L28.6740741,19.9215686 C29.9224691,19.9215686 31.6390123,19.1372549 32.4582716,18.1960784 L36.4375309,13.6470588 L43.5377778,5.56862745 Z" id="Shape" fill="#005498"></path>
                <path d="M46.5417284,0.31372549 C47.7901235,0.31372549 48.8044444,1.37254902 48.8044444,2.66666667 L48.8044444,7.60784314 C48.8044444,8.90196078 47.7901235,9.96078431 46.5417284,9.96078431 L45.2933333,9.96078431 L41.977284,9.96078431 L39.7145679,9.96078431 L41.2360494,8.23529412 L41.977284,7.37254902 L43.4987654,5.64705882 L28.44,5.64705882 L20.4034568,14.745098 L5.4617284,14.745098 L16.1901235,2.54901961 L16.5802469,2.07843137 C17.4385185,1.1372549 19.1160494,0.352941176 20.3644444,0.352941176 L20.9106173,0.352941176 L46.5417284,0.352941176 L46.5417284,0.31372549 Z" id="Shape" fill="#FFD800"></path>
            </g>
        </g>
    </g>
</svg>