<?xml version="1.0" encoding="UTF-8"?>
<svg width="82px" height="15px" viewBox="0 0 82 15" version="1.1" xmlns="http://www.w3.org/2000/svg" xmlns:xlink="http://www.w3.org/1999/xlink">
    <!-- Generator: Sketch 50.2 (55047) - http://www.bohemiancoding.com/sketch -->
    <title>payment-methods/559-icon</title>
    <desc>Created with Sketch.</desc>
    <defs></defs>
    <g id="Icons" stroke="none" stroke-width="1" fill="none" fill-rule="evenodd">
        <g id="payment-methods/559-icon">
            <path d="M22.6466981,0.320961538 L14.3954481,0.320961538 C13.0942783,0.320961538 11.8306274,0.320961538 10.6982925,0.892115385 C9.56595755,1.46423077 8.56706604,2.60730769 7.79676887,4.89442308 C7.63044811,5.38557692 7.54206604,5.80923077 7.53065566,6.17673077 C7.51905189,6.54596154 7.58383962,6.85961538 7.72405189,7.13173077 C7.89675472,7.46403846 8.17698585,7.77788462 8.52858019,8.04096154 C8.88017453,8.30423077 9.30042453,8.51923077 9.75355189,8.65615385 C9.77076415,8.66096154 10.0092217,8.72865385 10.2975755,8.81096154 C10.5843821,8.89326923 10.9212783,8.99096154 11.1342075,9.05461538 C11.2579811,9.09365385 11.3956792,9.1425 11.5202264,9.21596154 C11.6438066,9.29 11.7553962,9.38865385 11.8257925,9.52480769 C11.8716274,9.61519231 11.8961887,9.71365385 11.8987028,9.82038462 C11.9019906,9.92711538 11.8840047,10.0421154 11.8414575,10.1626923 C11.7364434,10.4738462 11.5766981,10.6734615 11.2711321,10.7965385 C10.9671132,10.9188462 10.5188208,10.9578846 9.83883962,10.9626923 L1.34739151,10.9626923 L0.00541509434,14.63 L9.09387736,14.63 C9.94946226,14.63 11.512684,14.63 13.015566,13.9953846 C14.5182547,13.3605769 15.9588632,12.0911538 16.5692217,9.55230769 C16.7995566,8.59903846 16.7281934,7.82096154 16.3520377,7.21076923 C15.9743349,6.59961538 15.2926132,6.15730769 14.3002972,5.87442308 C14.3002972,5.87442308 14.0775047,5.81019231 13.816033,5.73519231 C13.5563019,5.66096154 13.2547972,5.57557692 13.1006604,5.53153846 C12.8467311,5.45980769 12.6517877,5.31307692 12.5353632,5.12653846 C12.4214528,4.94076923 12.3862547,4.715 12.451816,4.48442308 C12.5206651,4.245 12.6844717,4.05346154 12.9229292,3.92153846 C13.1621604,3.79038462 13.4760425,3.71788462 13.8423349,3.71788462 L19.1257264,3.71788462 C19.1634387,3.66403846 19.1968962,3.60615385 19.2346085,3.5525 C20.1990755,2.195 21.3675755,1.09673077 22.6466981,0.320961538" id="Fill-15" fill="#F48120"></path>
            <path d="M67.5643255,0.345384615 C67.8468774,0.566923077 68.0886226,0.820384615 68.2911085,1.10884615 C68.8088302,1.85115385 69.0072547,2.73269231 68.888316,3.74211538 L71.5382311,3.74211538 L67.5445991,14.6576923 L71.5349434,14.6576923 L75.5310896,3.74211538 L80.6580236,3.74211538 L81.9027217,0.345384615 L67.5643255,0.345384615" id="Fill-17" fill="#E5782B"></path>
            <path d="M63.4923679,4.90980769 C63.0645755,6.05442308 62.2977594,6.76173077 60.8383915,6.76173077 L60.831816,6.76173077 L60.077184,6.76 L61.3684906,3.29980769 L62.1026226,3.29980769 C63.445566,3.29980769 63.9470425,3.69076923 63.4923679,4.90980769 M67.3655142,1.74846154 C66.7083538,0.809038462 65.3727594,0.347884615 63.2800189,0.345384615 L58.4350566,0.345384615 L53.1959528,14.6544231 L57.646,14.6544231 L59.5519198,9.61826923 C59.6435896,9.82519231 60.7678019,14.6544231 60.7678019,14.6544231 L65.4474104,14.6544231 C65.4474104,14.6544231 64.5960802,11.1061538 63.9700566,9.67288462 C63.8093443,9.30384615 63.6414764,8.89076923 63.4169434,8.54615385 C64.7386132,8.05807692 66.6543962,7.00865385 67.4467406,4.88442308 C67.935066,3.57846154 67.9064434,2.52326923 67.3655142,1.74846154" id="Fill-18" fill="#E5782B"></path>
            <path d="M26.517717,7.42538462 C25.2846226,10.7823077 24.3890047,11.6271154 23.042,11.6271154 L23.0394858,11.6271154 C21.7276792,11.6255769 21.2672028,10.8001923 22.4946887,7.45961538 C23.4123538,4.96557692 24.5996132,3.37096154 26.0377075,3.37096154 L26.0384811,3.37096154 C27.4044387,3.37269231 27.7173538,4.15980769 26.517717,7.42538462 M30.749033,1.67711538 C30.030566,0.654615385 28.7990189,0.134807692 27.0872689,0.133076923 C25.9678915,0.133076923 24.8798443,0.389038462 23.8614198,0.867307692 C22.4028255,1.5525 21.0819292,2.69807692 20.0027783,4.21596154 C19.3015236,5.20269231 18.7016085,6.345 18.2312689,7.62326923 C17.3464811,10.0342308 17.3561509,11.9921154 18.2624057,13.2811538 C18.7754858,14.0111538 19.8422594,14.8821154 22.0127453,14.8838462 L22.0210613,14.8838462 C25.974467,14.8838462 28.9258868,12.3067308 30.7950613,7.22576923 C31.2882217,5.88057692 31.9395802,3.37192308 30.749033,1.67711538" id="Fill-19" fill="#E5782B"></path>
            <path d="M46.5473774,0.336923077 L38.1379292,0.336923077 C35.7871981,0.336923077 34.0369623,1.52 33.210967,3.73384615 L29.2165613,14.6459615 L33.591184,14.6459615 L35.6438915,9.03634615 L39.5112358,9.03961538 L40.6108868,6.03461538 L36.7565,6.03230769 L37.3767217,4.29269231 C37.5070708,3.98153846 37.8151509,3.73384615 38.2682783,3.73384615 C38.5206604,3.73384615 41.3581698,3.73384615 42.8281745,3.73461538 C42.8658868,3.68076923 42.8995377,3.62288462 42.9370566,3.56846154 C43.9015236,2.21173077 45.2674811,1.11269231 46.5473774,0.336923077" id="Fill-20" fill="#E5782B"></path>
            <path d="M50.3721745,7.42538462 C49.1390802,10.7823077 48.2434623,11.6271154 46.8972311,11.6271154 L46.89375,11.6271154 C45.5811698,11.6255769 45.1232075,10.8001923 46.3506934,7.45961538 C47.2666179,4.96557692 48.4556179,3.37096154 49.8911981,3.37096154 L49.8937123,3.37096154 C51.2594764,3.37269231 51.5725849,4.15980769 50.3721745,7.42538462 M54.6042642,1.67711538 C53.8848302,0.654615385 52.6550236,0.134807692 50.9407594,0.133076923 C49.8223491,0.133076923 48.7350755,0.389038462 47.715684,0.867307692 C46.2580566,1.5525 44.9371604,2.69807692 43.8580094,4.21596154 C43.1565613,5.20269231 42.5568396,6.345 42.0872736,7.62326923 C41.1999717,10.0342308 41.2113821,11.9921154 42.1176368,13.2811538 C42.6305236,14.0111538 43.6974906,14.8821154 45.86875,14.8838462 L45.8760991,14.8838462 C49.8289245,14.8838462 52.7811179,12.3067308 54.6485519,7.22576923 C55.1434528,5.88057692 55.7940377,3.37192308 54.6042642,1.67711538" id="Fill-21" fill="#E5782B"></path>
            <path d="M67.5695472,0.329423077 C67.8513255,0.550961538 68.0938443,0.803653846 68.2963302,1.09288462 C68.8142453,1.83423077 69.0117028,2.71673077 68.8935377,3.72615385 L71.5434528,3.72615385 L67.5498208,14.6417308 L71.5401651,14.6417308 L75.5355377,3.72615385 L80.6632453,3.72615385 L81.9071698,0.329423077 L67.5695472,0.329423077" id="Fill-22" fill="#F48120"></path>
            <path d="M63.4966226,4.89384615 C63.0697972,6.03769231 62.3020142,6.745 60.8426462,6.745 L60.8368443,6.745 L60.0822123,6.74326923 L61.3727453,3.28384615 L62.1078443,3.28384615 C63.4507877,3.28384615 63.9522642,3.67403846 63.4966226,4.89384615 M67.3699623,1.7325 C66.7135755,0.793076923 65.3779811,0.331923077 63.2852406,0.329423077 L58.4402783,0.329423077 L53.2002075,14.6384615 L57.6512217,14.6384615 L59.5561745,9.60230769 C59.6488113,9.80923077 60.77225,14.6384615 60.77225,14.6384615 L65.4524387,14.6384615 C65.4524387,14.6384615 64.6003349,11.0901923 63.9750849,9.65615385 C63.814566,9.28788462 63.6465047,8.87480769 63.4221651,8.52923077 C64.7436415,8.04115385 66.6586509,6.99269231 67.4517689,4.86846154 C67.9393208,3.5625 67.9106981,2.50730769 67.3699623,1.7325" id="Fill-23" fill="#F48120"></path>
            <path d="M26.5223585,7.40942308 C25.2892642,10.7661538 24.3936462,11.6103846 23.0466415,11.6103846 L23.0441274,11.6103846 C21.7323208,11.6096154 21.2716509,10.7832692 22.4999104,7.44269231 C23.4169953,4.94884615 24.6042547,3.35423077 26.0421557,3.35423077 L26.0429292,3.35423077 C27.4098538,3.35596154 27.7227689,4.14384615 26.5223585,7.40942308 M30.7544481,1.66115385 C30.0350142,0.638653846 28.804434,0.118846154 27.0919104,0.116346154 C25.9717594,0.116346154 24.8844858,0.373076923 23.8658679,0.850384615 C22.407467,1.53653846 21.0865708,2.68134615 20.0074198,4.2 C19.3069387,5.18576923 18.70625,6.32903846 18.236684,7.60653846 C17.3509292,10.0182692 17.3607925,11.9761538 18.2670472,13.2651923 C18.7807075,13.9951923 19.8476745,14.8653846 22.0173868,14.8678846 L22.0255094,14.8678846 C25.9791085,14.8678846 28.9305283,12.2907692 30.7995094,7.20903846 C31.2928632,5.86384615 31.9449953,3.355 30.7544481,1.66115385" id="Fill-24" fill="#F48120"></path>
            <path d="M46.5525991,0.320961538 L38.1431509,0.320961538 C35.7914528,0.320961538 34.041217,1.50403846 33.2154151,3.71788462 L29.220816,14.63 L33.5964057,14.63 L35.6489198,9.02038462 L39.515684,9.02288462 L40.6151415,6.01865385 L36.7609481,6.01634615 L37.3819434,4.27673077 C37.5113255,3.96461538 37.8203726,3.71692308 38.272533,3.71692308 C38.5249151,3.71692308 41.3633915,3.71788462 42.8333962,3.71788462 C42.8701415,3.66480769 42.9037925,3.60615385 42.9415047,3.5525 C43.9067453,2.195 45.2727028,1.09673077 46.5525991,0.320961538" id="Fill-25" fill="#F48120"></path>
            <path d="M50.376816,7.40942308 C49.1437217,10.7661538 48.2488774,11.6103846 46.9026462,11.6103846 L46.8993585,11.6103846 C45.5858113,11.6096154 45.1278491,10.7832692 46.3543679,7.44269231 C47.2712594,4.94884615 48.4594858,3.35423077 49.8958396,3.35423077 L49.8983538,3.35423077 C51.2641179,3.35596154 51.5772264,4.14384615 50.376816,7.40942308 M54.6089057,1.66115385 C53.8894717,0.638653846 52.6596651,0.118846154 50.9461745,0.116346154 C49.8269906,0.116346154 48.739717,0.373076923 47.7210991,0.850384615 C46.2626981,1.53653846 44.9418019,2.68134615 43.8626509,4.2 C43.1613962,5.18576923 42.5622547,6.32903846 42.0919151,7.60653846 C41.2053868,10.0182692 41.2160236,11.9761538 42.1230519,13.2651923 C42.6351651,13.9951923 43.7021321,14.8653846 45.8743585,14.8678846 L45.8807406,14.8678846 C49.8343396,14.8678846 52.786533,12.2907692 54.6531934,7.20903846 C55.1488679,5.86384615 55.7994528,3.355 54.6089057,1.66115385" id="Fill-26" fill="#F48120"></path>
        </g>
    </g>
</svg>