<?xml version="1.0" encoding="UTF-8"?>
<svg xmlns="http://www.w3.org/2000/svg" xmlns:xlink="http://www.w3.org/1999/xlink" version="1.1"  width="234.37471pt" height="100.78574pt" fill="none" viewBox="0 0 234.37471 100.78574" id="giropay-svg" preserveAspectRatio="xMidYMin slice">
	<title id="giropay-title-5c1a41f8911f1">Giropay</title><g transform="translate(29.497 -60.643)"><g transform="matrix(.26458 0 0 .26458 -34.185 54.786)" fill-rule="evenodd"><path d="m17.717 90.484c0-37.744 30.757-68.346 68.678-68.346h748.47c37.937 0 68.677 30.602 68.677 68.346v244.25c0 37.722-30.74 68.33-68.677 68.33h-748.47c-37.921 0-68.678-30.608-68.678-68.33z" fill="#000268"></path><path d="m45.904 92.822v239.59c0 23.582 19.225 42.708 42.939 42.708h392.13v-325.01h-392.13c-23.714 0-42.939 19.126-42.939 42.708zm536.39 118.6c0 15.254-7.5448 25.738-20.036 25.738-11.035 0-20.234-10.484-20.234-24.453 0-14.339 8.0904-24.999 20.234-24.999 12.877 0 20.036 11.03 20.036 23.714zm-73.343 87.489h33.073v-52.022h0.36957c6.2649 11.4 18.773 15.624 30.349 15.624 28.485 0 43.739-23.521 43.739-51.829 0-23.152-14.515-48.349-40.993-48.349-15.061 0-29.031 6.0722-35.665 19.495h-0.36957v-17.273h-30.503zm152.7-68.931c0-9.1825 8.8129-12.662 20.041-12.662 4.9582 0 9.7452 0.3476 13.969 0.54603 0 11.206-7.903 22.606-20.411 22.606-7.7209 0-13.6-3.8548-13.6-10.489zm66.714 30.332c-1.4616-7.5278-1.8312-15.078-1.8312-22.606v-35.66c0-29.223-21.128-39.713-45.581-39.713-14.146 0-26.461 2.0239-38.23 6.8109l0.56268 22.435c9.1602-5.1566 19.843-7.1805 30.503-7.1805 11.929 0 21.674 3.5022 21.872 16.556-4.2243-0.73914-10.12-1.3018-15.447-1.3018-17.631 0-49.436 3.5022-49.436 32.72 0 20.78 16.903 30.139 35.836 30.139 13.6 0 22.799-5.3107 30.332-17.278h0.36957c0 4.9801 0.54035 9.9212 0.73913 15.078zm14.884 38.599c6.8053 1.4783 13.6 2.2227 20.582 2.2227 30.332 0 37.491-23.35 46.866-47.434l35.119-89.143h-33.095l-19.666 62.49h-0.36957l-20.587-62.49h-35.643l38.775 97.956c-2.3935 8.46-8.6365 13.247-16.732 13.247-4.6106 0-8.6364-0.56268-13.054-2.0239z" fill="#ffffff"></path><path d="m126.7 211.61c0-13.054 6.4414-23.907 18.756-23.907 14.885 0 21.128 11.945 21.128 22.606 0 14.709-9.3756 24.63-21.128 24.63-9.9213 0-18.756-8.4434-18.756-23.328zm71.871-47.059h-29.963v17.273h-0.3476c-7.004-11.769-18.409-19.495-32.549-19.495-29.77 0-43.193 21.343-43.193 49.827 0 28.308 16.363 48.151 42.625 48.151 13.252 0 24.282-5.1566 32.18-16.363h0.36956v5.1562c0 18.74-10.291 27.746-29.395 27.746-13.793 0-22.258-2.9395-32.356-7.8973l-1.6544 26.107c7.7046 2.7631 20.758 6.0722 36.581 6.0722 38.599 0 57.703-12.69 57.703-52.028zm55.916-39.884h-33.09v24.26h33.09zm-33.073 135.64h33.073v-95.756h-33.073zm125.19-96.87c-3.3091-0.54071-7.357-1.1087-11.206-1.1087-14.339 0-22.606 7.7265-28.308 19.865h-0.36957v-17.642h-30.139v95.756h33.079v-40.425c0-18.756 8.6531-29.963 24.084-29.963 3.8714 0 7.5278 0 11.206 1.0864zm56.964 75.919c-15.254 0-21.497-12.684-21.497-26.83 0-14.339 6.243-27.023 21.497-27.023 15.271 0 21.519 12.684 21.519 27.023 0 14.146-6.2483 26.83-21.519 26.83zm0 23.152c31.617 0 55.701-18.365 55.701-49.982 0-31.81-24.084-50.197-55.701-50.197-31.612 0-55.679 18.387-55.679 50.197 0 31.617 24.067 49.982 55.679 49.982z" fill="#ff0007"></path></g></g>
</svg>