<?xml version="1.0" encoding="UTF-8"?>
<svg width="137px" height="33px" viewBox="0 0 137 33" version="1.1" xmlns="http://www.w3.org/2000/svg" xmlns:xlink="http://www.w3.org/1999/xlink">
    <!-- Generator: Sketch 50.2 (55047) - http://www.bohemiancoding.com/sketch -->
    <title>payment-methods/706-icon</title>
    <desc>Created with Sketch.</desc>
    <defs>
        <linearGradient x1="16.1481739%" y1="34.4008407%" x2="85.8318643%" y2="66.3485849%" id="linearGradient-1">
            <stop stop-color="#222357" offset="0%"></stop>
            <stop stop-color="#254AA5" offset="100%"></stop>
        </linearGradient>
        <path d="M30.9501123,13.4736652 C30.916017,10.7747282 33.3457522,9.26851239 35.1761287,8.37307068 C37.0567509,7.45420695 37.6884103,6.86505314 37.6812323,6.04348087 C37.6668764,4.78589874 36.1810413,4.23097711 34.7903141,4.20935679 C32.3641679,4.17152123 30.9537013,4.86697495 29.832147,5.39306948 L28.9582319,1.28700979 C30.0833751,0.76632034 32.1667743,0.312293556 34.3273365,0.292474926 C39.3985562,0.292474926 42.7165623,2.80583748 42.7345072,6.70290072 C42.7542466,11.6485496 35.9208408,11.9224071 35.9674974,14.1330851 C35.9836478,14.8033151 36.6206906,15.5185875 38.0168014,15.7005585 C38.7076788,15.7924449 40.6152183,15.8627109 42.7775749,14.862771 L43.6263671,18.8355054 C42.4635397,19.260705 40.9687322,19.6678878 39.1078493,19.6678878 C34.3345144,19.6678878 30.9770296,17.1202931 30.9501123,13.4736652 M51.7823097,19.325566 C50.8563545,19.325566 50.0757528,18.7832562 49.7276223,17.9508738 L42.483279,0.584349288 L47.5509098,0.584349288 L48.5594114,3.38237943 L54.7521854,3.38237943 L55.3371881,0.584349288 L59.8036658,0.584349288 L55.9060404,19.325566 L51.7823097,19.325566 M52.491132,14.262807 L53.9536388,7.22539186 L49.9483442,7.22539186 L52.491132,14.262807 M24.8057894,19.325566 L20.8112618,0.584349288 L25.6402258,0.584349288 L29.632959,19.325566 L24.8057894,19.325566 M17.6619374,19.325566 L12.6355798,6.56957539 L10.6024263,17.4157708 C10.3637595,18.6265089 9.42165395,19.325566 8.37546813,19.325566 L0.158513002,19.325566 L0.0436658459,18.7814546 C1.73048345,18.4139091 3.64699537,17.8211519 4.80802834,17.1869557 C5.51864512,16.7995916 5.72142213,16.4608732 5.95470542,15.5402078 L9.80567412,0.584349288 L14.9091946,0.584349288 L22.7331571,19.325566 L17.6619374,19.325566" id="path-2"></path>
    </defs>
    <g id="Icons" stroke="none" stroke-width="1" fill="none" fill-rule="evenodd">
        <g id="payment-methods/706-icon" transform="translate(0.000000, 1.000000)">
            <g id="Group-8" transform="translate(0.000000, 3.000000)">
                <g id="g10269-Clipped" transform="translate(30.076334, 12.908852) scale(-1, 1) rotate(-180.000000) translate(-30.076334, -12.908852) translate(0.076334, 2.908852)">
                    <mask id="mask-3" fill="white">
                        <use xlink:href="#path-2"></use>
                    </mask>
                    <use id="path10273" fill="url(#linearGradient-1)" xlink:href="#path-2"></use>
                </g>
                <g id="mc_vrt_pos" transform="translate(93.000000, 0.000000)" fill-rule="nonzero">
                    <g id="_Group_" transform="translate(0.305792, 0.284549)">
                        <rect id="Rectangle-path" fill="#FF5F00" x="15.6882303" y="2.92100075" width="11.5868524" height="21.0646946"></rect>
                        <path d="M16.4239035,13.4552085 C16.4195714,9.34403665 18.2847313,5.45931105 21.4816566,2.92100075 C16.0523114,-1.39536326 8.25555412,-0.766647512 3.57073609,4.36530345 C-1.11408194,9.49725441 -1.11408194,17.4094417 3.57073609,22.5413926 C8.25555412,27.6733436 16.0523114,28.3020593 21.4816566,23.9856953 C18.2857484,21.4481908 16.4207024,17.5650747 16.4239035,13.4552085 Z" id="_Path_" fill="#EB001B"></path>
                        <path d="M42.9081376,13.4552085 C42.9080195,18.584032 40.0130507,23.262571 35.4527357,25.503832 C30.8924208,27.745093 25.4673829,27.1555932 21.4816566,23.9856953 C24.6761703,21.4460365 26.5413567,17.5634367 26.5413567,13.453348 C26.5413567,9.34325941 24.6761703,5.46065952 21.4816566,2.92100075 C25.4673829,-0.248897106 30.8924208,-0.838396955 35.4527357,1.40286405 C40.0130507,3.64412505 42.9080195,8.32266403 42.9081376,13.4514875 L42.9081376,13.4552085 Z" id="Shape" fill="#F79E1B"></path>
                        <path d="M41.6427798,21.7530833 L41.6427798,21.321445 L41.815663,21.321445 L41.815663,21.2321405 L41.3779374,21.2321405 L41.3779374,21.321445 L41.5655341,21.321445 L41.5655341,21.7530833 L41.6427798,21.7530833 Z M42.4924823,21.7530833 L42.4924823,21.2321405 L42.3600611,21.2321405 L42.2055698,21.6042425 L42.0510784,21.2321405 L41.9333707,21.2321405 L41.9333707,21.7530833 L42.0290082,21.7530833 L42.0290082,21.3623762 L42.1724645,21.700989 L42.2717803,21.700989 L42.4152366,21.3623762 L42.4152366,21.7568043 L42.4924823,21.7530833 Z" id="Shape" fill="#F79E1B"></path>
                    </g>
                </g>
            </g>
            <path d="M72.5,30 L80,0.5" id="Path-2" stroke="#F0F3F5" stroke-width="3" stroke-linecap="round" stroke-linejoin="round"></path>
        </g>
    </g>
</svg>