<svg width="41" height="30" viewBox="0 0 41 30" fill="none" xmlns="http://www.w3.org/2000/svg">
<path d="M23.5 20.5H23.178L22.8845 20.6321L15.4699 23.9687L16.4772 18.2607L16.5 18.1313V18V10.5C16.5 8.567 18.067 7 20 7H33C34.933 7 36.5 8.567 36.5 10.5V17C36.5 18.933 34.933 20.5 33 20.5H23.5Z" stroke="#222222" stroke-width="3"/>
<path fill-rule="evenodd" clip-rule="evenodd" d="M5.5 14V12C5.5 11.1716 6.17157 10.5 7 10.5C7.82843 10.5 8.5 11.1716 8.5 12V14H10.5C11.3284 14 12 14.6716 12 15.5C12 16.3284 11.3284 17 10.5 17H8.5V19C8.5 19.8284 7.82843 20.5 7 20.5C6.17157 20.5 5.5 19.8284 5.5 19V17H3.5C2.67157 17 2 16.3284 2 15.5C2 14.6716 2.67157 14 3.5 14H5.5Z" fill="#222222"/>
</svg>
