<svg width="30" height="30" viewBox="0 0 30 30" fill="none" xmlns="http://www.w3.org/2000/svg">
<g clip-path="url(#clip0)">
<mask id="path-1-outside-1" maskUnits="userSpaceOnUse" x="10" y="-1" width="9" height="15" fill="black">
<rect fill="white" x="10" y="-1" width="9" height="15"/>
<path d="M13 7C13 8.5 14.5 9.5 14.5 9.5C14.5 9.5 16 8.5 16 7C15.9999 5.5 14.5 4 14.5 4C14.5 4 13 5.5 13 7Z"/>
</mask>
<path d="M13 7C13 8.5 14.5 9.5 14.5 9.5C14.5 9.5 16 8.5 16 7C15.9999 5.5 14.5 4 14.5 4C14.5 4 13 5.5 13 7Z" stroke="white" stroke-width="6" mask="url(#path-1-outside-1)"/>
<mask id="path-2-outside-2" maskUnits="userSpaceOnUse" x="2.34315" y="4.34316" width="16.9706" height="16.9706" fill="black">
<rect fill="white" x="2.34315" y="4.34316" width="16.9706" height="16.9706"/>
<path d="M10.1213 14.2427C11.182 15.3033 12.9497 14.9498 12.9497 14.9498C12.9497 14.9498 13.3033 13.182 12.2426 12.1214C11.1819 11.0607 9.06066 11.0607 9.06066 11.0607C9.06066 11.0607 9.06066 13.182 10.1213 14.2427Z"/>
</mask>
<path d="M10.1213 14.2427C11.182 15.3033 12.9497 14.9498 12.9497 14.9498C12.9497 14.9498 13.3033 13.182 12.2426 12.1214C11.1819 11.0607 9.06066 11.0607 9.06066 11.0607C9.06066 11.0607 9.06066 13.182 10.1213 14.2427Z" stroke="white" stroke-width="6" mask="url(#path-2-outside-2)"/>
<path d="M14.5 12V27.5" stroke="white" stroke-width="3" stroke-linecap="round" stroke-linejoin="round"/>
<mask id="path-4-outside-3" maskUnits="userSpaceOnUse" x="9.69671" y="4.34315" width="16.9706" height="16.9706" fill="black">
<rect fill="white" x="9.69671" y="4.34315" width="16.9706" height="16.9706"/>
<path d="M16.7678 12.1213C15.7071 13.182 16.0607 14.9497 16.0607 14.9497C16.0607 14.9497 17.8284 15.3033 18.8891 14.2426C19.9497 13.1819 19.9498 11.0607 19.9498 11.0607C19.9498 11.0607 17.8284 11.0607 16.7678 12.1213Z"/>
</mask>
<path d="M16.7678 12.1213C15.7071 13.182 16.0607 14.9497 16.0607 14.9497C16.0607 14.9497 17.8284 15.3033 18.8891 14.2426C19.9497 13.1819 19.9498 11.0607 19.9498 11.0607C19.9498 11.0607 17.8284 11.0607 16.7678 12.1213Z" stroke="white" stroke-width="6" mask="url(#path-4-outside-3)"/>
<mask id="path-5-outside-4" maskUnits="userSpaceOnUse" x="2.34315" y="11.3432" width="16.9706" height="16.9706" fill="black">
<rect fill="white" x="2.34315" y="11.3432" width="16.9706" height="16.9706"/>
<path d="M10.1213 21.2427C11.182 22.3033 12.9497 21.9498 12.9497 21.9498C12.9497 21.9498 13.3033 20.182 12.2426 19.1214C11.1819 18.0607 9.06066 18.0607 9.06066 18.0607C9.06066 18.0607 9.06066 20.182 10.1213 21.2427Z"/>
</mask>
<path d="M10.1213 21.2427C11.182 22.3033 12.9497 21.9498 12.9497 21.9498C12.9497 21.9498 13.3033 20.182 12.2426 19.1214C11.1819 18.0607 9.06066 18.0607 9.06066 18.0607C9.06066 18.0607 9.06066 20.182 10.1213 21.2427Z" stroke="white" stroke-width="6" mask="url(#path-5-outside-4)"/>
<mask id="path-6-outside-5" maskUnits="userSpaceOnUse" x="9.69671" y="11.3431" width="16.9706" height="16.9706" fill="black">
<rect fill="white" x="9.69671" y="11.3431" width="16.9706" height="16.9706"/>
<path d="M16.7678 19.1213C15.7071 20.182 16.0607 21.9497 16.0607 21.9497C16.0607 21.9497 17.8284 22.3033 18.8891 21.2426C19.9497 20.1819 19.9498 18.0607 19.9498 18.0607C19.9498 18.0607 17.8284 18.0607 16.7678 19.1213Z"/>
</mask>
<path d="M16.7678 19.1213C15.7071 20.182 16.0607 21.9497 16.0607 21.9497C16.0607 21.9497 17.8284 22.3033 18.8891 21.2426C19.9497 20.1819 19.9498 18.0607 19.9498 18.0607C19.9498 18.0607 17.8284 18.0607 16.7678 19.1213Z" stroke="white" stroke-width="6" mask="url(#path-6-outside-5)"/>
</g>
<defs>
<clipPath id="clip0">
<rect width="30" height="30" fill="white"/>
</clipPath>
</defs>
</svg>
