<?xml version="1.0" encoding="UTF-8"?>
<svg width="26px" height="26px" viewBox="0 0 26 26" version="1.1" xmlns="http://www.w3.org/2000/svg" xmlns:xlink="http://www.w3.org/1999/xlink">
    <!-- Generator: Sketch 49.1 (51147) - http://www.bohemiancoding.com/sketch -->
    <title>allergens/allergen-1</title>
    <desc>Created with Sketch.</desc>
    <defs></defs>
    <g id="Icons" stroke="none" stroke-width="1" fill="none" fill-rule="evenodd">
        <g id="allergens/allergen-1" fill-rule="nonzero">
            <circle id="Oval" fill="#C69C6D" cx="13" cy="13" r="12.8375"></circle>
            <path d="M18.321875,16.16875 C18.28125,16.859375 18.078125,17.915625 17.346875,18.85 C16.575,19.825 15.4375,20.475 13.853125,20.8 C13.934375,19.9875 14.259375,18.76875 15.1125,17.79375 C15.884375,16.940625 16.940625,16.371875 18.321875,16.16875 Z M19.09375,15.234375 C12.59375,15.68125 13,21.775 13,21.775 C19.90625,20.9625 19.09375,15.234375 19.09375,15.234375 Z" id="Shape" fill="#ffffff"></path>
            <path d="M17.103125,12.309375 C17.103125,12.91875 16.98125,13.771875 16.49375,14.584375 C15.965625,15.478125 15.03125,16.128125 13.771875,16.534375 C13.8125,16.0875 13.853125,15.559375 14.05625,15.03125 C14.54375,13.65 15.559375,12.75625 17.103125,12.309375 Z M17.834375,11.29375 C12.10625,12.228125 13,17.590625 13,17.590625 C19.0125,16.25 17.834375,11.29375 17.834375,11.29375 Z" id="Shape" fill="#ffffff"></path>
            <path d="M16.046875,8.45 C16.16875,9.059375 16.209375,9.9125 15.84375,10.765625 C15.4375,11.7 14.665625,12.5125 13.528125,13.121875 C13.446875,12.43125 13.446875,11.415625 13.89375,10.48125 C14.340625,9.628125 15.03125,8.9375 16.046875,8.45 Z M16.575,7.353125 C11.171875,9.221875 12.959375,14.3 12.959375,14.3 C18.60625,11.94375 16.575,7.353125 16.575,7.353125 Z" id="Shape" fill="#ffffff"></path>
            <path d="M7.71875,16.16875 C11.2125,16.7375 12.025,19.378125 12.1875,20.840625 C10.64375,20.515625 9.465625,19.865625 8.69375,18.890625 C8.003125,17.915625 7.8,16.859375 7.71875,16.16875 Z M6.946875,15.234375 C6.946875,15.234375 6.134375,20.9625 13.08125,21.775 C13.040625,21.775 13.446875,15.68125 6.946875,15.234375 Z" id="Shape" fill="#ffffff"></path>
            <path d="M8.896875,12.309375 C10.440625,12.75625 11.45625,13.65 11.94375,14.990625 C12.146875,15.559375 12.228125,16.0875 12.228125,16.49375 C10.96875,16.0875 10.075,15.4375 9.50625,14.54375 C9.01875,13.771875 8.896875,12.91875 8.896875,12.309375 Z M8.165625,11.29375 C8.165625,11.29375 6.946875,16.25 12.959375,17.55 C13,17.590625 13.89375,12.228125 8.165625,11.29375 Z" id="Shape" fill="#ffffff"></path>
            <path d="M9.953125,8.45 C11.375,9.140625 12.228125,10.196875 12.43125,11.61875 C12.5125,12.1875 12.5125,12.715625 12.43125,13.1625 C11.29375,12.553125 10.521875,11.740625 10.115625,10.80625 C9.790625,9.871875 9.83125,9.01875 9.953125,8.45 Z M9.425,7.353125 C9.425,7.353125 7.39375,11.984375 13.040625,14.3 C13.040625,14.3 14.828125,9.221875 9.425,7.353125 Z" id="Shape" fill="#ffffff"></path>
            <path d="M13.08125,4.428125 C13.446875,4.915625 13.89375,5.646875 13.975,6.58125 C14.05625,7.596875 13.771875,8.653125 13.040625,9.75 C12.634375,9.18125 12.1875,8.2875 12.146875,7.23125 C12.10625,6.296875 12.43125,5.3625 13.08125,4.428125 Z M13.08125,3.25 C9.18125,7.434375 13.121875,11.090625 13.121875,11.090625 C17.021875,6.378125 13.08125,3.25 13.08125,3.25 Z" id="Shape" fill="#ffffff"></path>
        </g>
    </g>
</svg>