<?xml version="1.0" encoding="UTF-8"?>
<svg width="26px" height="26px" viewBox="0 0 26 26" version="1.1" xmlns="http://www.w3.org/2000/svg" xmlns:xlink="http://www.w3.org/1999/xlink">
    <!-- Generator: Sketch 49.1 (51147) - http://www.bohemiancoding.com/sketch -->
    <title>allergens/allergen-6</title>
    <desc>Created with Sketch.</desc>
    <defs></defs>
    <g id="Icons" stroke="none" stroke-width="1" fill="none" fill-rule="evenodd">
        <g id="allergens/allergen-6" fill-rule="nonzero">
            <circle id="Oval" fill="#00BC5E" cx="13" cy="13" r="12.8375"></circle>
            <path d="M7.515625,6.09375 C7.88125,6.09375 8.246875,6.296875 8.409375,6.621875 C8.896875,6.378125 9.425,6.25625 9.99375,6.25625 C11.903125,6.25625 13.446875,7.71875 13.609375,9.5875 C15.35625,9.75 16.778125,11.13125 16.940625,12.91875 C18.809375,13.08125 20.271875,14.625 20.271875,16.534375 C20.271875,17.184375 20.109375,17.79375 19.784375,18.321875 C20.06875,18.484375 20.271875,18.809375 20.271875,19.175 C20.271875,19.74375 19.825,20.15 19.296875,20.15 C18.93125,20.15 18.60625,19.946875 18.44375,19.6625 C17.915625,19.946875 17.30625,20.15 16.65625,20.15 C14.746875,20.15 13.203125,18.6875 13.040625,16.81875 C11.29375,16.65625 9.871875,15.275 9.709375,13.4875 C7.840625,13.325 6.378125,11.78125 6.378125,9.871875 C6.378125,9.140625 6.58125,8.45 6.9875,7.88125 C6.74375,7.71875 6.540625,7.39375 6.540625,7.06875 C6.5,6.540625 6.946875,6.09375 7.515625,6.09375 Z M7.515625,5.28125 C6.5,5.28125 5.6875,6.09375 5.6875,7.109375 C5.6875,7.434375 5.76875,7.759375 5.93125,8.04375 C5.646875,8.653125 5.525,9.2625 5.525,9.953125 C5.525,12.025 6.9875,13.8125 8.978125,14.3 C9.34375,15.925 10.64375,17.225 12.309375,17.63125 C12.796875,19.58125 14.584375,21.084375 16.65625,21.084375 C17.225,21.084375 17.753125,20.9625 18.28125,20.759375 C18.565625,20.9625 18.93125,21.084375 19.296875,21.084375 C20.3125,21.084375 21.125,20.271875 21.125,19.25625 C21.125,18.890625 21.003125,18.525 20.8,18.240625 C21.003125,17.7125 21.125,17.184375 21.125,16.615625 C21.125,14.54375 19.6625,12.75625 17.671875,12.26875 C17.30625,10.64375 16.00625,9.34375 14.340625,8.9375 C13.853125,6.9875 12.065625,5.484375 9.99375,5.484375 C9.50625,5.484375 9.059375,5.565625 8.6125,5.6875 C8.2875,5.44375 7.921875,5.28125 7.515625,5.28125 Z" id="Shape" fill="#ffffff"></path>
            <path d="M9.75,8.53125 C10.4,8.53125 10.928125,9.059375 10.928125,9.709375 C10.928125,10.359375 10.4,10.8875 9.75,10.8875 C9.1,10.8875 8.571875,10.359375 8.571875,9.709375 C8.571875,9.059375 9.1,8.53125 9.75,8.53125 Z M9.75,7.71875 C8.653125,7.71875 7.759375,8.6125 7.759375,9.709375 C7.759375,10.80625 8.653125,11.7 9.75,11.7 C10.846875,11.7 11.740625,10.80625 11.740625,9.709375 C11.740625,8.6125 10.846875,7.71875 9.75,7.71875 Z" id="Shape" fill="#ffffff"></path>
            <path d="M13.08125,11.821875 C13.73125,11.821875 14.259375,12.35 14.259375,13 C14.259375,13.65 13.73125,14.178125 13.08125,14.178125 C12.43125,14.178125 11.903125,13.65 11.903125,13 C11.903125,12.35 12.43125,11.821875 13.08125,11.821875 Z M13.08125,11.009375 C11.984375,11.009375 11.090625,11.903125 11.090625,13 C11.090625,14.096875 11.984375,14.990625 13.08125,14.990625 C14.178125,14.990625 15.071875,14.096875 15.071875,13 C15.071875,11.903125 14.178125,11.009375 13.08125,11.009375 Z" id="Shape" fill="#ffffff"></path>
            <path d="M16.371875,15.153125 C17.021875,15.153125 17.55,15.68125 17.55,16.33125 C17.55,16.98125 17.021875,17.509375 16.371875,17.509375 C15.721875,17.509375 15.19375,16.98125 15.19375,16.33125 C15.19375,15.68125 15.721875,15.153125 16.371875,15.153125 Z M16.371875,14.340625 C15.275,14.340625 14.38125,15.234375 14.38125,16.33125 C14.38125,17.428125 15.275,18.321875 16.371875,18.321875 C17.46875,18.321875 18.3625,17.428125 18.3625,16.33125 C18.3625,15.234375 17.46875,14.340625 16.371875,14.340625 Z" id="Shape" fill="#ffffff"></path>
        </g>
    </g>
</svg>