<svg width="27" height="21" viewBox="0 0 27 21" fill="none" xmlns="http://www.w3.org/2000/svg">
<rect x="7" width="13" height="21" fill="white"/>
<path d="M0 4C0 1.79086 1.79086 0 4 0H8V21H4C1.79086 21 0 19.2091 0 17V4Z" fill="#DE5454"/>
<path d="M19 0H23C25.2091 0 27 1.79086 27 4V17C27 19.2091 25.2091 21 23 21H19V0Z" fill="#DE5454"/>
<rect x="8" width="11" height="1.5" fill="#F2F2F2"/>
<rect x="8" y="19.5" width="11" height="1.5" fill="#F2F2F2"/>
<path d="M13.3396 15.5L13.4654 12.9214L11.0126 13.4245L11.4528 12.4811L9 10.5943C9.35639 10.6782 9.89308 10.4182 9.18868 8.70755C9.75472 8.91719 10.8868 9.1478 10.8868 8.39308C11.2642 8.8543 12.0566 9.75157 12.2075 9.65094C12.3585 9.55031 11.9769 7.72222 11.7673 6.82075C12.0189 6.96751 12.5472 7.26101 12.6478 7.26101C12.744 7.26101 13.269 6.16964 13.5533 5.57883C13.5664 5.55142 13.5791 5.52509 13.5912 5.5C13.6033 5.52509 13.6159 5.55142 13.6291 5.57883C13.9134 6.16964 14.4384 7.26101 14.5346 7.26101C14.6352 7.26101 15.1635 6.96751 15.4151 6.82075C15.2055 7.72222 14.8239 9.55031 14.9748 9.65094C15.1258 9.75157 15.9182 8.8543 16.2956 8.39308C16.2956 9.1478 17.4277 8.91719 17.9937 8.70755C17.2893 10.4182 17.826 10.6782 18.1824 10.5943L15.7296 12.4811L16.1698 13.4245L13.717 12.9214L13.8428 15.5H13.3396Z" fill="#DE5454"/>
</svg>
