<svg width="28" height="25" viewBox="0 0 28 25" fill="none" xmlns="http://www.w3.org/2000/svg">
<path d="M1.5 1.5H5.05848C5.91934 1.5 6.68362 2.05086 6.95585 2.86754L10.5 13.5L10.1213 15.0149C9.80569 16.2772 10.7604 17.5 12.0616 17.5H20.5" stroke="#222222" stroke-width="3" stroke-linecap="round" stroke-linejoin="round"/>
<path d="M8 4.50007L26.5 2.50007L24.5 11.5001L10.5 13.5001" stroke="#222222" stroke-width="3" stroke-linecap="round" stroke-linejoin="round"/>
<path fill-rule="evenodd" clip-rule="evenodd" d="M11.5 25C12.8807 25 14 23.8807 14 22.5C14 21.1193 12.8807 20 11.5 20C10.1193 20 9 21.1193 9 22.5C9 23.8807 10.1193 25 11.5 25Z" fill="#222222"/>
<path fill-rule="evenodd" clip-rule="evenodd" d="M19.5 25C20.8807 25 22 23.8807 22 22.5C22 21.1193 20.8807 20 19.5 20C18.1193 20 17 21.1193 17 22.5C17 23.8807 18.1193 25 19.5 25Z" fill="#222222"/>
<path fill-rule="evenodd" clip-rule="evenodd" d="M8.5 5L10.5 14L24.5 11L26.5 2.5L8.5 5Z" fill="#222222"/>
</svg>
