<?xml version="1.0" encoding="UTF-8"?>
<svg width="31px" height="33px" viewBox="0 0 31 33" version="1.1" xmlns="http://www.w3.org/2000/svg" xmlns:xlink="http://www.w3.org/1999/xlink">
    <!-- Generator: Sketch 50.2 (55047) - http://www.bohemiancoding.com/sketch -->
    <title>icons/child-friendly-dark</title>
    <desc>Created with Sketch.</desc>
    <defs></defs>
    <g id="icons/child-friendly-dark" stroke="none" stroke-width="1" fill="none" fill-rule="evenodd">
        <path d="M18,1 L18,13 L30,13 C30,6.37 24.63,1 18,1 Z M27.48,22.335 C29.055,20.31 30,17.76 30,15 L8.60811924,15 C8.02903069,15 7.50166487,14.6666629 7.25320298,14.1435852 L6.64179702,12.8564148 C6.39333513,12.3333371 5.86596931,12 5.28688076,12 L2.5,12 C1.67157288,12 1,12.6715729 1,13.5 L1,13.5 C1,14.3284271 1.67157288,15 2.5,15 L3.37329346,15.0000264 C3.95651034,15.0000264 4.48685361,15.3380849 4.73305859,15.8667862 C6.37124768,19.3846382 7.29689482,21.3057095 7.51,21.63 C5.86,22.515 4.75,24.255 4.75,26.25 C4.75,29.145 7.105,31.5 10,31.5 C12.64,31.5 14.83,29.55 15.19,27 L18.81,27 C19.17,29.55 21.36,31.5 24,31.5 C26.895,31.5 29.25,29.145 29.25,26.25 C29.25,24.69 28.56,23.295 27.48,22.335 Z M10,28.5 C8.755,28.5 7.75,27.495 7.75,26.25 C7.75,25.005 8.755,24 10,24 C11.245,24 12.25,25.005 12.25,26.25 C12.25,27.495 11.245,28.5 10,28.5 Z M24,28.5 C22.755,28.5 21.75,27.495 21.75,26.25 C21.75,25.005 22.755,24 24,24 C25.245,24 26.25,25.005 26.25,26.25 C26.25,27.495 25.245,28.5 24,28.5 Z" id="Shape" fill="#222222" fill-rule="nonzero"></path>
    </g>
</svg>