<svg width="27" height="21" viewBox="0 0 27 21" fill="none" xmlns="http://www.w3.org/2000/svg">
<path d="M7.75 0.75H23C24.7949 0.75 26.25 2.20507 26.25 4V11.75H7.75V0.75Z" fill="white" stroke="#F2F2F2" stroke-width="1.5"/>
<path d="M0 4C0 1.79086 1.79086 0 4 0H9V11.5H0V4Z" fill="#4B54BF"/>
<path d="M0 10.5H27V17C27 19.2091 25.2091 21 23 21H4C1.79086 21 0 19.2091 0 17V10.5Z" fill="#DE5454"/>
<path d="M4.75 2.5L5.47967 4.74569H7.84093L5.93063 6.13361L6.6603 8.3793L4.75 6.99139L2.8397 8.3793L3.56937 6.13361L1.65907 4.74569H4.02033L4.75 2.5Z" fill="white"/>
</svg>
