<svg width="30" height="30" viewBox="0 0 30 30" fill="none" xmlns="http://www.w3.org/2000/svg">
<path fill-rule="evenodd" clip-rule="evenodd" d="M21.025 13.1931C20.7345 12.7754 20.2562 12.4751 19.7477 12.4916C16.5792 12.5945 13.7033 10.0396 13.5107 6.82644C13.4913 6.50259 13.1997 6.24757 12.8855 6.32811C8.35143 7.49008 5 11.6037 5 16.5C5 22.299 9.70101 27 15.5 27C21.299 27 26 22.299 26 16.5C26 15.8017 25.9318 15.1193 25.8018 14.4591C25.7283 14.0861 25.262 13.9581 24.926 14.136C23.6036 14.8361 21.8826 14.4259 21.025 13.1931ZM11 17C12.1046 17 13 16.1046 13 15C13 13.8954 12.1046 13 11 13C9.89543 13 9 13.8954 9 15C9 16.1046 9.89543 17 11 17ZM22 21C22 22.1046 21.1046 23 20 23C18.8954 23 18 22.1046 18 21C18 19.8954 18.8954 19 20 19C21.1046 19 22 19.8954 22 21ZM12.5 22C13.3284 22 14 21.3284 14 20.5C14 19.6716 13.3284 19 12.5 19C11.6716 19 11 19.6716 11 20.5C11 21.3284 11.6716 22 12.5 22ZM20 15.5C20 16.3284 19.3284 17 18.5 17C17.6716 17 17 16.3284 17 15.5C17 14.6716 17.6716 14 18.5 14C19.3284 14 20 14.6716 20 15.5Z" fill="white"/>
<path d="M18 10C18.5523 10 19 9.55228 19 9C19 8.44772 18.5523 8 18 8C17.4477 8 17 8.44772 17 9C17 9.55228 17.4477 10 18 10Z" fill="white"/>
<path d="M21 7C22.1046 7 23 6.10457 23 5C23 3.89543 22.1046 3 21 3C19.8954 3 19 3.89543 19 5C19 6.10457 19.8954 7 21 7Z" fill="white"/>
<path d="M23 10C23.5523 10 24 9.55228 24 9C24 8.44772 23.5523 8 23 8C22.4477 8 22 8.44772 22 9C22 9.55228 22.4477 10 23 10Z" fill="white"/>
</svg>
