<svg width="145" height="38" viewBox="0 0 145 38" fill="none" xmlns="http://www.w3.org/2000/svg">
<g clip-path="url(#clip0)">
<path d="M39.9997 8.58381H36.3452V6.60967H46.0035L45.7262 8.58381H42.3328V18.1279H39.9997V8.58381Z" fill="#071A57"/>
<path d="M48.9394 9.53002V18.1279H46.7532V9.53002H48.9394ZM48.9394 6.60967V8.3391H46.7532V6.60967H48.9394Z" fill="#071A57"/>
<path d="M56.0036 17.9158C55.4653 18.1605 54.7638 18.291 54.1112 18.291C51.4354 18.291 49.6246 16.5453 49.6246 13.837C49.6246 11.1777 51.4354 9.41577 54.1112 9.41577C55.0737 9.41577 55.8405 9.61154 56.6072 9.98676L55.9384 11.6671C55.5468 11.4224 54.992 11.2266 54.4047 11.2266C52.9201 11.2266 51.9087 12.2219 51.9087 13.837C51.9087 15.387 52.8712 16.5128 54.5517 16.48C55.2206 16.48 55.7752 16.2842 56.1831 16.0723L56.0036 17.9158Z" fill="#071A57"/>
<path d="M59.5271 6.60967V13.0378H59.8208L62.4475 9.53002H64.8458L61.9254 13.1519H62.1375C63.247 13.1519 63.5568 13.6904 63.8831 14.6529L64.34 16.1539C64.5358 16.7412 64.8947 17.6385 65.2047 18.1279H62.839C62.7248 17.8669 62.4964 17.3449 62.3169 16.79L61.9091 15.4849C61.697 14.7997 61.4686 14.5061 60.7998 14.5061H59.5271V18.1279H57.3572V6.60967H59.5271Z" fill="#071A57"/>
<path d="M67.1131 12.8582H71.4855C71.3224 11.6836 70.5228 10.9982 69.3646 10.9982C68.1572 10.9982 67.3578 11.7651 67.1131 12.8582ZM71.8444 17.8832C71.208 18.1605 70.3923 18.291 69.5603 18.291C66.7542 18.291 64.78 16.5616 64.78 13.7719C64.78 11.2592 66.6073 9.41577 69.3156 9.41577C72.3012 9.41577 73.8512 11.3898 73.8021 14.3592H67.1457C67.3415 15.958 68.712 16.6268 70.0334 16.6268C70.7514 16.6268 71.3875 16.4637 71.9912 16.1539L71.8444 17.8832Z" fill="#071A57"/>
<path d="M74.3072 7.52325L76.4771 6.65861V9.53002H78.2228L77.9127 11.2103H76.4771V13.7067C76.4771 15.7786 77.4561 17.2144 78.1249 18.1279H75.7591C75.3351 17.4264 74.2908 16.0396 74.3072 13.6414V7.52325Z" fill="#071A57"/>
<path d="M2.33308 24.3125C2.33308 24.949 2.7083 25.3568 3.65457 25.3568H5.57968C6.86852 25.3568 7.43964 24.5899 7.43964 23.5784C7.43964 22.2242 6.72176 21.7675 5.5471 21.7675H2.33308V24.3125ZM6.31392 19.8585C8.82639 19.8585 9.95211 21.637 9.95211 23.3337C9.95211 25.1773 8.64693 26.5805 7.09698 26.6456C8.77744 27.07 8.98952 28.3424 9.56058 29.7129C9.80528 30.2676 10.1968 31.018 10.4905 31.377H7.76592C7.55384 31.1812 7.24381 30.6428 7.03179 30.0554C6.44436 28.4729 6.21597 27.2168 4.50296 27.2168L3.65457 27.2003C2.61042 27.2003 2.52885 26.7598 2.33308 26.3846V31.377H0V19.8585H6.31392Z" fill="#071A57"/>
<path d="M12.7411 26.1072H17.1134C16.9503 24.9326 16.1509 24.2474 14.9925 24.2474C13.7852 24.2474 12.9858 25.0142 12.7411 26.1072ZM17.4725 31.1322C16.8361 31.4095 16.0204 31.54 15.1884 31.54C12.3821 31.54 10.4081 29.8106 10.4081 27.021C10.4081 24.5082 12.2354 22.6648 14.9437 22.6648C17.9293 22.6648 19.4791 24.6387 19.4302 27.6081H12.7737C12.9695 29.207 14.34 29.876 15.6615 29.876C16.3793 29.876 17.0156 29.7129 17.6192 29.4028L17.4725 31.1322Z" fill="#071A57"/>
<path d="M20.2942 29.1744C21.0772 29.6149 21.9094 29.8922 22.774 29.8922C23.4266 29.8922 23.9649 29.6803 23.9649 29.0113C23.9649 28.3913 23.2961 28.114 22.4478 27.7225L21.8931 27.4614C20.7673 26.9555 19.7069 26.3845 19.7069 25.0305C19.7069 23.3336 21.2242 22.6648 22.9698 22.6648C23.9814 22.6648 25.0581 22.8768 26.0533 23.3336L25.3681 25.0142C24.6666 24.5411 23.8018 24.2963 23.1166 24.2963C22.4967 24.2963 21.942 24.4432 21.942 24.9976C21.942 25.4873 22.6598 25.732 23.4103 26.0746L23.9649 26.3358C25.1723 26.8904 26.2327 27.543 26.2327 28.9949C26.2327 30.7896 24.6177 31.54 22.8067 31.54C21.7789 31.54 20.6694 31.3606 19.6579 30.8875L20.2942 29.1744Z" fill="#071A57"/>
<path d="M26.7543 20.7723L28.9242 19.9076V22.779H30.67L30.36 24.4595H28.9242V26.9556C28.9242 29.0278 29.903 30.4634 30.5719 31.377H28.2062C27.7821 30.6755 26.738 29.2886 26.7543 26.8905V20.7723Z" fill="#071A57"/>
<path d="M35.3029 24.541C33.7857 24.541 32.7904 25.683 32.7904 27.1025C32.7904 28.5871 33.753 29.6639 35.3029 29.6639C36.8203 29.6639 37.8318 28.6198 37.8318 27.1025C37.8318 25.5851 36.8203 24.541 35.3029 24.541ZM40.1322 31.3769H38.0112V30.1696C37.2934 31.018 36.1676 31.5076 34.9277 31.5076C32.4478 31.5076 30.539 29.8106 30.539 27.1514C30.539 24.541 32.4805 22.6647 35.3192 22.6647C38.2885 22.6647 40.1322 24.4921 40.1322 27.2818V31.3769Z" fill="#071A57"/>
<path d="M46.9347 22.779H49.0883V28.0161C49.0883 30.4144 47.408 31.54 45.075 31.54C42.7419 31.54 41.0614 30.4144 41.0614 28.0161V22.779H43.215V27.5593C43.215 28.8646 43.786 29.6639 45.075 29.6639C46.3638 29.6639 46.9347 28.8646 46.9347 27.5593V22.779Z" fill="#071A57"/>
<path d="M54.798 24.753C54.6675 24.6879 54.2434 24.5572 53.819 24.5572C52.5629 24.5572 52.2366 25.3568 52.2366 26.6456V31.377H50.083V26.1888C50.083 23.5784 51.6656 22.6648 53.7701 22.6648C54.3412 22.6648 55.0264 22.8443 55.2385 22.8769L54.798 24.753Z" fill="#071A57"/>
<path d="M59.5615 24.541C58.0443 24.541 57.049 25.683 57.049 27.1025C57.049 28.5871 58.0117 29.6639 59.5615 29.6639C61.0789 29.6639 62.0903 28.6198 62.0903 27.1025C62.0903 25.5851 61.0789 24.541 59.5615 24.541ZM64.3908 31.3769H62.2698V30.1696C61.552 31.018 60.4262 31.5076 59.1863 31.5076C56.7064 31.5076 54.7977 29.8106 54.7977 27.1514C54.7977 24.541 56.7391 22.6647 59.5778 22.6647C62.5471 22.6647 64.3908 24.4921 64.3908 27.2818V31.3769Z" fill="#071A57"/>
<path d="M71.1933 26.6456C71.1933 25.3405 70.6223 24.5411 69.3336 24.5411C68.0448 24.5411 67.4736 25.3405 67.4736 26.6456V31.377H65.3202V26.1888C65.3202 23.7905 67.0005 22.6811 69.3336 22.6811C71.6666 22.6811 73.3471 23.7905 73.3471 26.1888V31.377H71.1933V26.6456Z" fill="#071A57"/>
<path d="M74.3091 20.7723L76.4789 19.9076V22.779H78.2246L77.9147 24.4595H76.4789V26.9556C76.4789 29.0278 77.4577 30.4634 78.1266 31.377H75.7611C75.3367 30.6755 74.2926 29.2886 74.3091 26.8905V20.7723Z" fill="#071A57"/>
<path d="M105.945 16.4661C104.846 16.4661 104.146 17.1824 103.929 18.1321H107.845C107.711 17.0826 106.978 16.4661 105.945 16.4661Z" fill="#D62525"/>
<path d="M95.4823 16.8823C94.0827 16.8823 93.1998 17.8489 93.1998 19.1985C93.1998 20.5314 94.0995 21.5308 95.4823 21.5308C96.865 21.5308 97.7982 20.5813 97.7982 19.1985C97.7982 17.8154 96.865 16.8823 95.4823 16.8823Z" fill="#D62525"/>
<path d="M106.795 21.8144C107.545 21.8144 108.239 21.5979 108.889 21.2979L108.678 23.3138C107.945 23.6138 107.062 23.7304 106.178 23.7304C103.246 23.7304 101.18 22.0142 101.18 19.0984C101.18 16.5659 103.029 14.6664 105.862 14.6664C109.061 14.6664 110.661 16.6991 110.594 19.8316H103.996C104.246 21.2646 105.612 21.8144 106.795 21.8144ZM100.364 18.6819C100.364 21.8641 98.4814 23.7304 95.3656 23.7304C92.4831 23.7304 90.5338 21.7975 90.5338 19.1986C90.5338 16.4827 92.3831 14.6664 95.1491 14.6664C96.4153 14.6664 97.3483 15.1663 97.815 15.6661V11.8007H100.364V18.6819ZM123.737 14.6664C121.636 14.6664 119.999 15.5063 119.732 17.6853C119.712 17.6865 119.744 17.6845 119.725 17.6856C119.064 7.80855 111.272 -8.7258e-05 101.229 -8.7258e-05C93.2912 -8.7258e-05 86.4969 4.8794 83.6713 11.8007H90.4007L90.0509 14.0667H84.7691V16.466H89.551L89.1843 18.6485H84.7691V20.0482C84.7691 20.8978 85.1358 21.2979 85.8355 21.2979H90.3509L89.9845 23.5637H84.9858C84.7422 23.5637 84.5107 23.5415 84.2905 23.5016V23.5032C84.2905 23.5032 83.4248 23.4089 82.8893 22.7123C82.876 22.6961 82.6579 22.4368 82.5504 22.01C82.5224 21.8984 82.5206 21.8909 82.4979 21.8046C82.5333 22.087 82.5938 22.4651 82.6209 22.6059C82.7726 23.3962 82.9661 24.0657 82.9832 24.1128C85.2287 32.0789 92.544 37.9199 101.229 37.9199C110.112 37.9199 117.616 31.8099 119.673 23.5637H117.125V18.9319C117.125 17.6822 116.642 16.8823 115.409 16.8823C114.176 16.8823 113.693 17.6822 113.693 18.9319V23.5637H111.143V18.2986C111.143 15.7828 112.976 14.6664 115.409 14.6664C117.841 14.6664 119.674 15.7828 119.674 18.2986L119.673 23.5637H122.238V18.9319C122.238 17.6822 122.571 16.8823 123.787 16.8823C124.171 16.8823 124.637 16.999 124.804 17.0825L125.287 14.8498C125.004 14.8164 124.287 14.6664 123.737 14.6664Z" fill="#D42B1E"/>
<path d="M127.586 18.132C127.803 17.1824 128.503 16.4661 129.602 16.4661C130.635 16.4661 131.368 17.0826 131.502 18.132H127.586ZM129.519 14.6665C126.686 14.6665 124.837 16.5659 124.837 19.0985C124.837 22.0143 126.903 23.7305 129.836 23.7305C130.718 23.7305 131.602 23.6138 132.335 23.3138L132.546 21.2979C131.897 21.5978 131.202 21.8144 130.452 21.8144C129.269 21.8144 127.903 21.2645 127.653 19.8315H134.251C134.317 16.6992 132.718 14.6665 129.519 14.6665Z" fill="#D42B1E"/>
<path d="M139.482 21.5309C138.099 21.5309 137.199 20.5315 137.199 19.1985C137.199 17.849 138.082 16.8824 139.482 16.8824C140.865 16.8824 141.798 17.8156 141.798 19.1985C141.798 20.5813 140.865 21.5309 139.482 21.5309ZM141.815 11.8008V15.6662C141.348 15.1663 140.415 14.6665 139.149 14.6665C136.383 14.6665 134.533 16.4827 134.533 19.1985C134.533 21.7976 136.483 23.7305 139.365 23.7305C142.481 23.7305 144.364 21.8642 144.364 18.682V11.8008H141.815Z" fill="#D42B1E"/>
</g>
<defs>
<clipPath id="clip0">
<rect width="144.363" height="37.92" fill="white"/>
</clipPath>
</defs>
</svg>
