<svg width="30" height="30" viewBox="0 0 30 30" fill="none" xmlns="http://www.w3.org/2000/svg">
<path fill-rule="evenodd" clip-rule="evenodd" d="M15 4.5C20.799 4.5 25.5 9.20101 25.5 15C25.5 20.799 20.799 25.5 15 25.5C9.20101 25.5 4.5 20.799 4.5 15C4.5 9.20101 9.20101 4.5 15 4.5ZM13.551 9L14.078 16.769H16.186L16.713 9H13.551ZM15.132 21.036C15.5967 21.036 15.9848 20.8858 16.2965 20.5855C16.6082 20.2852 16.764 19.9197 16.764 19.489C16.764 19.0583 16.611 18.6985 16.305 18.4095C15.999 18.1205 15.608 17.976 15.132 17.976C14.656 17.976 14.265 18.1205 13.959 18.4095C13.653 18.6985 13.5 19.0583 13.5 19.489C13.5 19.9197 13.6558 20.2852 13.9675 20.5855C14.2792 20.8858 14.6673 21.036 15.132 21.036Z" fill="#E30000"/>
</svg>
