<svg width="27" height="21" viewBox="0 0 27 21" fill="none" xmlns="http://www.w3.org/2000/svg">
<path d="M0 14H27V17C27 19.2091 25.2091 21 23 21H4C1.79086 21 0 19.2091 0 17V14Z" fill="#DE5454"/>
<path d="M0 4C0 1.79086 1.79086 0 4 0H23C25.2091 0 27 1.79086 27 4V7H0V4Z" fill="#DE5454"/>
<rect y="5" width="27" height="11" fill="#FACF4D"/>
<mask id="mask0" mask-type="alpha" maskUnits="userSpaceOnUse" x="4" y="7" width="6" height="7">
<path d="M4 7H10V11C10 12.6569 8.65685 14 7 14V14C5.34315 14 4 12.6569 4 11V7Z" fill="#C4C4C4"/>
</mask>
<g mask="url(#mask0)">
<rect x="4" y="7" width="3" height="3.5" fill="#DE5454"/>
<rect x="7" y="10.5" width="3" height="4" fill="#DE5454" fill-opacity="0.6"/>
<rect x="4" y="10.5" width="3" height="4" fill="#DE5454" fill-opacity="0.3"/>
<rect x="7" y="7" width="3" height="3.5" fill="white"/>
<rect x="7" y="7" width="3" height="3.5" fill="#DE5454" fill-opacity="0.1"/>
</g>
</svg>
