<?xml version="1.0" encoding="UTF-8"?>
<svg width="24px" height="24px" viewBox="0 0 24 24" version="1.1" xmlns="http://www.w3.org/2000/svg" xmlns:xlink="http://www.w3.org/1999/xlink">
    <!-- Generator: Sketch 49.1 (51147) - http://www.bohemiancoding.com/sketch -->
    <title>icons/social/facebook</title>
    <desc>Created with Sketch.</desc>
    <defs></defs>
    <g id="Icons" stroke="none" stroke-width="1" fill="none" fill-rule="evenodd">
        <g id="icons/social/facebook" fill="#222222">
            <path d="M16.6490551,24 L16.6490551,15.4986746 L19.6078033,15.4986746 L20,11.8802701 L16.6490551,11.8802701 L16.6551514,10.0690798 C16.6551514,9.12537869 16.7465962,8.61972987 18.1304613,8.61972987 L19.9796789,8.61972987 L19.9796789,5 L17.0209307,5 C13.4660977,5 12.2156743,6.75618531 12.2156743,9.70790204 L12.2156743,11.8802701 L10,11.8802701 L10,15.4986746 L12.2156743,15.4986746 L12.2156743,24 L6.409713,24 C4.18091615,24 3.37270056,23.767936 2.55788574,23.3321682 C1.74307093,22.8964005 1.10359949,22.2569291 0.667831759,21.4421143 C0.232064028,20.6272994 1.87666568e-15,19.8190838 1.60371679e-15,17.590287 L1.72640051e-16,6.409713 C-1.00308841e-16,4.18091615 0.232064028,3.37270056 0.667831759,2.55788574 C1.10359949,1.74307093 1.74307093,1.10359949 2.55788574,0.667831759 C3.37270056,0.232064028 4.18091615,1.9268201e-15 6.409713,1.51739676e-15 L17.590287,2.58960077e-16 C19.8190838,-1.50463262e-16 20.6272994,0.232064028 21.4421143,0.667831759 C22.2569291,1.10359949 22.8964005,1.74307093 23.3321682,2.55788574 C23.767936,3.37270056 24,4.18091615 24,6.409713 L24,17.590287 C24,19.8190838 23.767936,20.6272994 23.3321682,21.4421143 C22.8964005,22.2569291 22.2569291,22.8964005 21.4421143,23.3321682 C20.6272994,23.767936 19.8190838,24 17.590287,24 L16.6490551,24 Z" id="Combined-Shape"></path>
        </g>
    </g>
</svg>