<?xml version="1.0" encoding="UTF-8"?>
<svg width="28px" height="27px" viewBox="0 0 28 27" version="1.1" xmlns="http://www.w3.org/2000/svg" xmlns:xlink="http://www.w3.org/1999/xlink">
    <!-- Generator: Sketch 50.2 (55047) - http://www.bohemiancoding.com/sketch -->
    <title>icons/filter-white</title>
    <desc>Created with Sketch.</desc>
    <defs></defs>
    <g id="icons/filter-white" stroke="none" stroke-width="1" fill="none" fill-rule="evenodd">
        <path d="M6.5,8.70924148 L6.5,22 C6.5,22.8284271 5.82842712,23.5 5,23.5 C4.17157288,23.5 3.5,22.8284271 3.5,22 L3.5,8.70924148 C2.03408483,8.1158541 1,6.67868878 1,5 C1,2.790861 2.790861,1 5,1 C7.209139,1 9,2.790861 9,5 C9,6.67868878 7.96591517,8.1158541 6.5,8.70924148 Z M5,6 C5.55228475,6 6,5.55228475 6,5 C6,4.44771525 5.55228475,4 5,4 C4.44771525,4 4,4.44771525 4,5 C4,5.55228475 4.44771525,6 5,6 Z" id="Combined-Shape" fill="#ffffff" fill-rule="nonzero"></path>
        <path d="M15.5,10.2907585 C16.9659152,10.8841459 18,12.3213112 18,14 C18,15.6786888 16.9659152,17.1158541 15.5,17.7092415 L15.5,22 C15.5,22.8284271 14.8284271,23.5 14,23.5 C13.1715729,23.5 12.5,22.8284271 12.5,22 L12.5,17.7092415 C11.0340848,17.1158541 10,15.6786888 10,14 C10,12.3213112 11.0340848,10.8841459 12.5,10.2907585 L12.5,5 C12.5,4.17157288 13.1715729,3.5 14,3.5 C14.8284271,3.5 15.5,4.17157288 15.5,5 L15.5,10.2907585 Z M14,15 C14.5522847,15 15,14.5522847 15,14 C15,13.4477153 14.5522847,13 14,13 C13.4477153,13 13,13.4477153 13,14 C13,14.5522847 13.4477153,15 14,15 Z" id="Combined-Shape" fill="#ffffff" fill-rule="nonzero"></path>
        <path d="M24.5,18.2907585 C25.9659152,18.8841459 27,20.3213112 27,22 C27,24.209139 25.209139,26 23,26 C20.790861,26 19,24.209139 19,22 C19,20.3213112 20.0340848,18.8841459 21.5,18.2907585 L21.5,5 C21.5,4.17157288 22.1715729,3.5 23,3.5 C23.8284271,3.5 24.5,4.17157288 24.5,5 L24.5,18.2907585 Z M23,23 C23.5522847,23 24,22.5522847 24,22 C24,21.4477153 23.5522847,21 23,21 C22.4477153,21 22,21.4477153 22,22 C22,22.5522847 22.4477153,23 23,23 Z" id="Combined-Shape" fill="#ffffff" fill-rule="nonzero"></path>
    </g>
</svg>