<svg width="30" height="30" viewBox="0 0 30 30" fill="none" xmlns="http://www.w3.org/2000/svg">
<path fill-rule="evenodd" clip-rule="evenodd" d="M6.5 1C5.67157 1 5 1.67157 5 2.5V25.5C5 26.3284 5.67157 27 6.5 27H7V28C7 28.5523 7.44772 29 8 29H9C9.55228 29 10 28.5523 10 28V27H20V28C20 28.5523 20.4477 29 21 29H22C22.5523 29 23 28.5523 23 28V27H23.5C24.3284 27 25 26.3284 25 25.5V2.5C25 1.67157 24.3284 1 23.5 1H6.5ZM20.5 4C20.2239 4 20 4.22386 20 4.5V9.5C20 9.77614 20.2239 10 20.5 10H22.5C22.7761 10 23 9.77614 23 9.5V4.5C23 4.22386 22.7761 4 22.5 4H20.5ZM20 13.5C20 13.2239 20.2239 13 20.5 13H22.5C22.7761 13 23 13.2239 23 13.5V15.5C23 15.7761 22.7761 16 22.5 16H20.5C20.2239 16 20 15.7761 20 15.5V13.5ZM9.5 4C8.67157 4 8 4.67157 8 5.5V16.5C8 17.3284 8.67157 18 9.5 18H15.5C16.3284 18 17 17.3284 17 16.5V5.5C17 4.67157 16.3284 4 15.5 4H9.5ZM8 21.5C8 21.2239 8.22386 21 8.5 21H17.5C17.7761 21 18 21.2239 18 21.5V23.5C18 23.7761 17.7761 24 17.5 24H8.5C8.22386 24 8 23.7761 8 23.5V21.5Z" fill="#222222"/>
</svg>
