<svg width="30" height="30" viewBox="0 0 30 30" fill="none" xmlns="http://www.w3.org/2000/svg">
<path d="M19.2426 6.51464C21.1952 4.56202 24.3611 4.56202 26.3137 6.51464L26.6672 6.8682C28.6199 8.82082 28.6199 11.9866 26.6672 13.9393L21.0104 19.5961C19.0578 21.5487 15.8919 21.5487 13.9393 19.5961L13.5858 19.2426C12.0548 17.7116 11.7242 15.4349 12.5939 13.5819" stroke="#222222" stroke-width="3" stroke-linecap="round"/>
<path d="M11.1109 23.1318C9.15827 25.0845 5.99245 25.0845 4.03983 23.1318L3.68627 22.7783C1.73365 20.8257 1.73365 17.6598 3.68627 15.7072L9.34313 10.0504C11.2958 8.09774 14.4616 8.09774 16.4142 10.0504L16.7677 10.4039C18.2987 11.9349 18.6293 14.2116 17.7596 16.0646" stroke="#222222" stroke-width="3" stroke-linecap="round"/>
</svg>
