<svg width="30" height="30" viewBox="0 0 30 30" fill="none" xmlns="http://www.w3.org/2000/svg">
<path d="M9 18V10C9 6.68629 11.6863 4 15 4V4V4C18.3137 4 21 6.68629 21 10V18" stroke="white" stroke-width="3"/>
<path fill-rule="evenodd" clip-rule="evenodd" d="M5.5 15C5.5 13.3431 6.84315 12 8.5 12H21.5C23.1569 12 24.5 13.3431 24.5 15V24C24.5 25.6569 23.1569 27 21.5 27H8.5C6.84315 27 5.5 25.6569 5.5 24V15ZM16.5 20.5002C17.1072 20.0441 17.5 19.3179 17.5 18.5C17.5 17.1193 16.3807 16 15 16C13.6193 16 12.5 17.1193 12.5 18.5C12.5 19.3179 12.8928 20.0441 13.5 20.5002V22.5C13.5 23.3284 14.1716 24 15 24C15.8284 24 16.5 23.3284 16.5 22.5V20.5002Z" fill="white"/>
</svg>
