<svg width="30" height="30" viewBox="0 0 30 30" fill="none" xmlns="http://www.w3.org/2000/svg">
<path d="M22 8.5L10 18.5H3.4176C2.4185 18.5 2.03703 17.1963 2.87855 16.6577L24.1814 3.02394C24.5239 2.80467 24.9711 3.06446 24.9502 3.47068L24.0622 20.7863C24.03 21.4151 23.4318 21.8579 22.821 21.7053L16 20L22 8.5Z" fill="#222222"/>
<path d="M10.8742 16.8988C10.5422 16.1398 9.65774 15.7937 8.89877 16.1258C8.1398 16.4578 7.79371 17.3423 8.12576 18.1012L10.8742 16.8988ZM24.2828 9.77745C24.7122 9.06898 24.4859 8.14658 23.7775 7.7172C23.069 7.28783 22.1466 7.51408 21.7172 8.22255L24.2828 9.77745ZM13.4994 24.6759L14.7822 25.4534L13.4994 24.6759ZM8.12576 18.1012L11.2395 25.2184L13.988 24.0159L10.8742 16.8988L8.12576 18.1012ZM14.7822 25.4534L24.2828 9.77745L21.7172 8.22255L12.2166 23.8985L14.7822 25.4534ZM11.2395 25.2184C11.8891 26.7031 13.9423 26.8393 14.7822 25.4534L12.2166 23.8985C12.6366 23.2055 13.6632 23.2736 13.988 24.0159L11.2395 25.2184Z" fill="#222222"/>
</svg>
