<svg width="25" height="16" viewBox="0 0 25 16" fill="none" xmlns="http://www.w3.org/2000/svg">
<path d="M8.81747 1.61563H15.3537V13.4947H8.81747V1.61563Z" fill="#FF5F00"/>
<path d="M9.23258 7.55688C9.23013 5.23845 10.2823 3.04773 12.0857 1.61629C9.02296 -0.817849 4.62477 -0.463295 1.98205 2.43078C-0.660682 5.32486 -0.660682 9.7868 1.98205 12.6809C4.62477 15.575 9.02296 15.9295 12.0857 13.4954C10.2829 12.0644 9.23077 9.87457 9.23258 7.55688V7.55688Z" fill="#EB001B"/>
<path d="M24.1724 7.55622C24.1723 10.4485 22.5392 13.0869 19.9667 14.3508C17.3942 15.6148 14.3339 15.2823 12.0856 13.4947C13.8876 12.0625 14.9398 9.87299 14.9398 7.55517C14.9398 5.23736 13.8876 3.04783 12.0856 1.61563C14.3339 -0.171981 17.3942 -0.50442 19.9667 0.759502C22.5392 2.02342 24.1723 4.66181 24.1724 7.55412V7.55622Z" fill="#F79E1B"/>
<path fill-rule="evenodd" clip-rule="evenodd" d="M23.9381 11.9419V12.2358L23.8945 12.2379V12.0154L23.8135 12.2064H23.7575L23.6765 12.0154V12.2358H23.6226V11.9419H23.689L23.7762 12.1518L23.8633 11.9419H23.9381ZM23.4586 11.9923V12.2358H23.415V11.9923H23.3091V11.9419H23.5561V11.9923H23.4586Z" fill="#F79E1B"/>
</svg>
