<svg width="27" height="21" viewBox="0 0 27 21" fill="none" xmlns="http://www.w3.org/2000/svg">
<rect x="7" width="13" height="21" fill="#FACF4D"/>
<path d="M19 0H23C25.2091 0 27 1.79086 27 4V17C27 19.2091 25.2091 21 23 21H19V0Z" fill="#DE5454"/>
<path d="M0 4C0 1.79086 1.79086 0 4 0H8V21H4C1.79086 21 0 19.2091 0 17V4Z" fill="#4B54BF"/>
<path d="M12.5548 6.00002C12.4903 6.00002 12.4341 6.01645 12.4013 6.04199C12.4534 6.05719 12.4913 6.10528 12.4913 6.16376V6.31213H12.343C12.2849 6.31213 12.2367 6.27476 12.2212 6.22311C12.1956 6.25593 12.1792 6.31219 12.1792 6.3766C12.1792 6.44102 12.1956 6.4973 12.2212 6.53008C12.2364 6.47792 12.2845 6.44002 12.343 6.44002H12.4913V7.15321C12.4913 7.20928 12.4563 7.25579 12.4074 7.27292C12.4782 7.28256 12.5391 7.37754 12.5558 7.42949C12.5725 7.37766 12.6334 7.28256 12.7042 7.27292C12.6548 7.25609 12.6192 7.20964 12.6192 7.15321V6.43998H12.7676C12.8257 6.43998 12.8738 6.47736 12.8894 6.52905C12.9149 6.49622 12.9313 6.43992 12.9313 6.37554C12.9313 6.31111 12.9149 6.25485 12.8894 6.22205C12.8742 6.2742 12.8261 6.31207 12.7676 6.31207H12.6192V6.16372C12.6192 6.1056 12.6566 6.05749 12.7083 6.04194C12.6755 6.01643 12.6192 6 12.5548 6V6.00002Z" fill="black"/>
<path d="M12.5548 6.03078C12.5212 6.03078 12.4917 6.03706 12.4668 6.04509C12.5 6.07402 12.522 6.11593 12.522 6.1638V6.31217C12.522 6.31429 12.5214 6.31631 12.521 6.31833V6.34186H12.4974C12.4954 6.34228 12.4934 6.34288 12.4913 6.3429H12.3429C12.2956 6.3429 12.2542 6.32125 12.2253 6.28867C12.217 6.31383 12.2099 6.34258 12.2099 6.37668C12.2099 6.41022 12.2162 6.43976 12.2242 6.46466C12.2531 6.4314 12.295 6.40944 12.3429 6.40944H12.522C12.5218 6.41251 12.521 6.41549 12.521 6.41861V6.43396C12.5214 6.43596 12.522 6.43798 12.522 6.4401V7.15329C12.522 7.19961 12.4981 7.23602 12.4667 7.26483C12.4892 7.27868 12.5085 7.29611 12.525 7.31602C12.5398 7.33371 12.5456 7.35102 12.5557 7.36921C12.5659 7.35106 12.5717 7.33371 12.5865 7.31602C12.6027 7.29647 12.6218 7.27964 12.6438 7.26587C12.6121 7.23714 12.5885 7.19981 12.5885 7.15331V6.4104H12.6131C12.6151 6.41 12.6171 6.4094 12.6192 6.4094H12.7676C12.8149 6.4094 12.8563 6.43104 12.8852 6.4636C12.8935 6.43846 12.9006 6.40974 12.9006 6.37562C12.9006 6.3421 12.8943 6.31253 12.8863 6.28763C12.8573 6.32089 12.8154 6.34286 12.7676 6.34286H12.6192C12.6171 6.34286 12.6151 6.34224 12.6131 6.34182H12.5895V6.31829C12.5891 6.31631 12.5885 6.31427 12.5885 6.31213V6.16378C12.5885 6.11647 12.6101 6.07508 12.6427 6.04611C12.6175 6.03784 12.5888 6.03076 12.5547 6.03076" fill="#F5D402"/>
<path d="M14.4121 8.61346C14.3214 8.54907 14.247 8.4763 14.1941 8.39139C14.0667 8.18705 14.013 7.9362 14.013 7.68127C14.013 7.57352 14.1337 7.45221 14.1337 7.36506C14.1337 7.23334 14.1214 7.1543 14.1214 7.1543C14.1643 7.16014 14.2391 7.23616 14.2391 7.23616C14.2391 7.23616 14.2365 7.01753 14.1675 6.97933C14.1675 6.97933 14.1954 6.95059 14.2964 6.94761C14.268 6.87573 14.1276 6.78798 14.1276 6.78798C14.1346 6.77541 14.1476 6.76454 14.1644 6.75524C14.1997 6.73573 14.2493 6.72286 14.2872 6.71533C14.2468 6.70695 14.2002 6.69412 14.1491 6.67745C14.0323 6.63941 13.8948 6.58356 13.7664 6.52194C13.5319 6.40945 13.3532 6.40221 13.2547 6.40222C13.1833 6.40223 13.078 6.40419 13.0163 6.44523C12.9599 6.4827 12.9645 6.53145 12.9447 6.54856C12.8981 6.58886 12.8184 6.58744 12.7799 6.58744C12.5313 6.58744 12.5221 6.8535 12.5221 6.8535C12.5221 6.8535 12.5857 6.7573 12.6981 6.7573C12.885 6.7573 13.0265 6.85912 13.0265 6.89748C13.0265 6.91301 13.0073 6.91589 13.0061 6.91589C12.884 6.91589 12.6998 6.84561 12.6019 6.84221V6.8903C12.8204 6.96632 13.0419 7.07393 13.0419 7.54825C13.0419 7.84693 13.0061 8.15169 12.8567 8.39141C12.8038 8.4763 12.7284 8.54893 12.6377 8.61348L13.5249 8.77337L14.4121 8.61346Z" fill="black"/>
<path d="M13.5248 8.41352L12.6377 8.61341C12.5973 8.60122 12.4076 8.54225 12.2744 8.46812C12.04 8.33755 11.9185 8.20765 11.64 8.1949V7.98306C11.64 7.86989 11.681 7.76793 11.681 7.65972C11.5636 7.62824 11.2377 7.22977 10.937 7.05292C10.4947 7.33943 10.1522 7.80977 10.1522 8.02606C10.1522 8.02606 10.1655 12.6735 10.1522 14.2925C10.1522 14.3858 10.0959 14.5177 10.0959 14.5177C10.2574 14.4493 10.5534 14.0443 10.6158 13.8904V13.9641C10.8596 13.8529 11.0382 13.5606 11.1182 13.4095C11.1196 13.4313 11.1233 13.4862 11.1233 13.4862C11.3412 13.2952 11.6185 12.1662 11.6185 12.1662L12.0807 12.6205C12.0807 12.6205 11.9136 12.9598 11.8485 13.0205C11.8485 13.0205 11.8921 13.0261 11.9416 13.0256C11.9111 13.0694 11.6788 13.4039 11.6059 13.5301C11.5378 13.6482 11.4897 13.5956 11.3849 13.5956C11.298 13.5956 11.1011 13.734 11.0687 13.79C11.0347 13.8489 11.0094 13.9204 11.0094 13.9793C11.0094 14.0441 11.078 14.1328 11.078 14.1328C11.0854 14.1018 11.0984 14.0909 11.0984 14.0909C11.0984 14.0909 11.2786 14.3153 11.3051 14.3446C11.3258 14.3675 11.418 14.3823 11.4504 14.3528C11.5317 14.2789 11.6104 14.2273 11.6827 14.1206C11.72 14.0656 11.7228 14.0025 11.7656 13.9435C11.9087 13.746 12.1936 13.3679 12.2588 13.2815C12.2632 13.3055 12.2669 13.3255 12.271 13.35C12.3449 13.201 12.6998 12.9162 12.6998 12.9162L13.0711 13.0871C13.0711 13.0871 12.3778 14.6808 11.7624 14.9259C11.7624 14.9259 12.0301 15.0396 12.3589 15.2103C12.4069 15.2353 12.4563 15.262 12.5063 15.2892C12.5477 15.2393 12.5913 15.1839 12.6342 15.1264C12.8308 14.8634 13.0231 14.5585 13.0231 14.5585C13.0365 14.6377 12.9326 14.8822 12.757 15.1838C12.7225 15.243 12.6865 15.305 12.6465 15.3679C12.6911 15.3934 12.7353 15.4191 12.7795 15.4457C13.1052 15.6417 13.4111 15.867 13.5244 16.074L13.6044 15.8739L13.5244 15.6739V8.67889L13.5644 8.57895L13.5248 8.41352Z" fill="black"/>
<path d="M13.5245 15.674C13.4096 15.5494 13.1693 15.3971 12.8993 15.2565C13.2258 14.6706 13.3875 13.7443 13.3116 13.5599C13.3116 13.5599 13.1776 14.0403 13.0139 14.3141C12.8622 14.5676 12.6756 14.8528 12.4951 15.0641C12.3466 15.0008 12.2026 14.9477 12.0796 14.9106C12.6205 14.494 13.1735 13.1169 13.1735 13.1169L12.6016 12.8518C12.6016 12.8518 12.3876 13.1013 12.3182 13.1476C12.3182 13.1476 12.2885 13.0235 12.2711 12.9797C12.2711 12.9797 12.1891 13.0418 12.1442 13.0432C12.1442 13.0432 12.1308 12.959 12.1207 12.904C12.0642 12.9417 11.9703 12.9337 11.9703 12.9337C12.0528 12.8947 12.1504 12.6554 12.1504 12.6554L11.6043 11.929C11.6043 11.929 11.4124 12.8507 11.194 13.0402V9.07097L11.3669 9.2316L11.6288 8.98704V8.80081L11.3966 9.01773V8.45596C11.4316 8.40301 11.4548 8.36349 11.4723 8.33215C11.5099 8.39769 11.6314 8.59857 11.7741 8.72202C11.7976 8.62652 11.9522 8.53577 11.9522 8.53577C11.9522 8.53577 12.0076 8.68584 12.0923 8.72302C12.1221 8.67049 12.3001 8.5542 12.3001 8.5542C12.3001 8.5542 12.1478 8.57733 12.0862 8.63505C12.0333 8.6232 12.0197 8.41402 12.0197 8.41402C12.0197 8.41402 11.7957 8.52314 11.7567 8.60127C11.714 8.58972 11.6475 8.42162 11.6216 8.35262C11.6607 8.34836 11.7159 8.34343 11.7884 8.34343C11.8523 8.34343 11.934 8.37369 12.0197 8.41402C12.1137 8.45832 12.2122 8.5144 12.3001 8.55422C12.4126 8.60519 12.5829 8.61554 12.6326 8.61766C12.5757 8.65764 12.5132 8.69414 12.4454 8.72818C12.4454 8.72818 12.7134 8.7257 12.9017 8.63197C12.9689 8.58876 13.0386 8.54571 13.0982 8.49486C13.0724 8.56667 13.0321 8.65154 12.9692 8.72406C13.2458 8.70065 13.3835 8.54273 13.4225 8.48974C13.4409 8.53721 13.4736 8.61341 13.5249 8.67903H13.6248V15.475L13.5245 15.674Z" fill="#B07F55"/>
<path d="M11.4866 7.68028L11.4917 7.80716V8.18068C11.3914 8.14616 11.2653 7.98134 11.2042 7.89417V7.843C11.2042 7.79487 11.2325 7.75971 11.2533 7.74068L11.1929 7.71922C11.1699 7.74546 11.1448 7.78444 11.1448 7.83483V7.86451L10.9648 8.05792L10.7877 7.78981V7.72433C10.7877 7.6802 10.8217 7.63099 10.8502 7.59745L10.7908 7.57596C10.7608 7.61478 10.7294 7.66709 10.7294 7.71614V7.76933C10.6878 7.81242 10.5258 7.97912 10.5258 7.97912C10.5258 7.97912 10.4445 7.80449 10.4224 7.75707C10.5465 7.58528 10.7476 7.39291 10.9371 7.25488C10.9371 7.25488 11.3481 7.63227 11.4866 7.68028Z" fill="#B07F55"/>
<path d="M10.4448 8.04258V8.35062L10.3015 8.48362V8.02623C10.3015 7.98244 10.3199 7.92967 10.3506 7.8717L10.4448 8.04258Z" fill="#B07F55"/>
<path d="M10.8909 8.16119V8.35152L10.7262 8.50605V7.91052L10.8909 8.16119Z" fill="#B07F55"/>
<path d="M10.6679 8.50492L10.5031 8.35143V8.12838L10.6679 7.95544V8.50492Z" fill="#B07F55"/>
<path d="M11.4199 8.27375C11.3817 8.32781 11.2815 8.46006 11.1733 8.51832V7.99542C11.1981 8.03669 11.3119 8.22078 11.4199 8.27375Z" fill="#B07F55"/>
<path d="M11.115 8.02197V8.50495L10.9502 8.35146V8.18058L11.115 8.02197Z" fill="#B07F55"/>
<path d="M10.4448 8.53674V9.01872L10.3015 8.88466V8.67078L10.4448 8.53674Z" fill="#B07F55"/>
<path d="M10.6677 8.69128V8.8642L10.5029 9.01767V8.53778L10.6677 8.69128Z" fill="#B07F55"/>
<path d="M10.8907 8.53778V9.01769L10.726 8.86317V8.69229L10.8907 8.53778Z" fill="#B07F55"/>
<path d="M11.1149 8.6923V8.86318L10.9501 9.01769V8.53778L11.1149 8.6923Z" fill="#B07F55"/>
<path d="M11.3379 9.0187L11.1732 8.86418V8.70355C11.23 8.66887 11.2871 8.60513 11.3379 8.53778L11.3379 9.0187Z" fill="#B07F55"/>
<path d="M10.9205 9.23159L11.0945 9.06991V13.0401C11.0945 13.0401 11.1066 13.2371 11.1149 13.3655C11.0376 13.4437 10.7466 13.738 10.7466 13.738V9.06885L10.9205 9.23159Z" fill="#B07F55"/>
<path d="M10.6472 13.5895C10.6472 13.7171 10.4142 14.0147 10.3013 14.0827V9.07089L10.4732 9.23152L10.6472 9.06982V13.5895Z" fill="#B07F55"/>
<path d="M12.0919 13.1587L12.2188 13.0718C12.2188 13.0718 12.2273 13.1137 12.2383 13.171C12.1839 13.2453 11.8719 13.6712 11.7174 13.8791C11.679 13.9308 11.6468 14.0623 11.6468 14.0623C11.6468 14.0623 11.5905 14.0357 11.5905 13.9876C11.5905 13.9404 11.5967 13.8842 11.5967 13.8842C11.5967 13.8842 11.5547 13.9323 11.4821 13.9323C11.4821 13.8743 11.5943 13.8114 11.5987 13.7287C11.5132 13.7922 11.4388 13.7596 11.3399 13.7901C11.2321 13.8233 11.202 13.8686 11.169 13.8669C11.1495 13.8658 11.1319 13.8322 11.1393 13.8116C11.1522 13.7759 11.2855 13.677 11.3787 13.6592C11.401 13.6549 11.5767 13.6974 11.612 13.6428C11.7578 13.4179 11.9944 13.0528 12.0172 13.0176C12.0323 13.014 12.0461 13.0102 12.0571 13.0032C12.0571 13.0032 12.0558 13.1182 12.0919 13.1587V13.1587Z" fill="#D10429"/>
<path d="M11.2762 13.8595C11.2832 13.8677 11.2826 13.8796 11.2751 13.8861L11.2178 13.9363C11.2103 13.9427 11.1983 13.9413 11.1912 13.9332C11.1842 13.925 11.1848 13.9131 11.1923 13.9066L11.2496 13.8564C11.2533 13.8532 11.2581 13.8518 11.2629 13.8524C11.2676 13.8529 11.2726 13.8554 11.2762 13.8595V13.8595Z" fill="#D10429"/>
<path d="M11.3631 13.92C11.3803 13.9397 11.3792 13.9677 11.3611 13.9834L11.2219 14.1052C11.2038 14.1209 11.1746 14.1178 11.1574 14.0981C11.1403 14.0783 11.1414 14.0493 11.1595 14.0336L11.2986 13.9128C11.3054 13.9069 11.3147 13.9033 11.3232 13.9026C11.3374 13.9014 11.3524 13.9077 11.3631 13.92V13.92Z" fill="#D10429"/>
<path d="M11.4429 14.0141C11.46 14.0338 11.459 14.0618 11.4408 14.0775L11.3007 14.1993C11.2826 14.215 11.2544 14.2119 11.2372 14.1922C11.2201 14.1724 11.2212 14.1434 11.2393 14.1277L11.3784 14.007C11.3852 14.0011 11.3934 13.9975 11.402 13.9967C11.4162 13.9956 11.4322 14.0017 11.4429 14.0141V14.0141Z" fill="#D10429"/>
<path d="M11.4909 14.0887C11.5052 14.0876 11.5201 14.0927 11.5308 14.1051C11.548 14.1248 11.5469 14.1538 11.5288 14.1696L11.3896 14.2903C11.3715 14.3061 11.3433 14.3029 11.3262 14.2831C11.309 14.2634 11.3091 14.2354 11.3272 14.2197L11.4674 14.0979C11.4741 14.092 11.4824 14.0894 11.4909 14.0887V14.0887Z" fill="#D10429"/>
<path d="M13.4967 8.41334L14.3839 8.61323C14.4242 8.60103 14.614 8.54207 14.7471 8.46793C14.9815 8.33737 15.103 8.20747 15.3815 8.19472V7.98288C15.3815 7.86971 15.3406 7.76775 15.3406 7.65953C15.458 7.62805 15.7839 7.22959 16.0845 7.05273C16.5268 7.33924 16.8693 7.80958 16.8693 8.02588C16.8693 8.02588 16.856 12.6733 16.8693 14.2923C16.8693 14.3857 16.9256 14.5175 16.9256 14.5175C16.7641 14.4492 16.4681 14.0442 16.4058 13.8902V13.9639C16.1619 13.8527 15.9833 13.5605 15.9034 13.4093C15.9019 13.4311 15.8982 13.486 15.8982 13.486C15.6804 13.295 15.403 12.166 15.403 12.166L14.9408 12.6203C14.9408 12.6203 15.108 12.9596 15.1731 13.0203C15.1731 13.0203 15.1294 13.0259 15.08 13.0255C15.1104 13.0692 15.3428 13.4037 15.4156 13.5299C15.4838 13.648 15.5318 13.5954 15.6366 13.5954C15.7235 13.5954 15.9205 13.7338 15.9528 13.7898C15.9868 13.8487 16.0121 13.9202 16.0121 13.9792C16.0121 14.0439 15.9436 14.1326 15.9436 14.1326C15.9362 14.1016 15.9231 14.0907 15.9231 14.0907C15.9231 14.0907 15.743 14.3151 15.7164 14.3444C15.6957 14.3673 15.6036 14.3821 15.5711 14.3527C15.4898 14.2788 15.4112 14.2271 15.3388 14.1204C15.3016 14.0654 15.2987 14.0024 15.256 13.9433C15.1128 13.7458 14.8279 13.3677 14.7627 13.2813C14.7584 13.3053 14.7547 13.3254 14.7505 13.3498C14.6767 13.2008 14.3217 12.916 14.3217 12.916L13.9504 13.0869C13.9504 13.0869 14.6437 14.6806 15.2592 14.9257C15.2592 14.9257 14.9914 15.0394 14.6626 15.2102C14.6146 15.2351 14.5652 15.2618 14.5153 15.289C14.4739 15.2391 14.4303 15.1837 14.3873 15.1263C14.1907 14.8632 13.9985 14.5584 13.9985 14.5584C13.9851 14.6375 14.0889 14.882 14.2645 15.1836C14.2991 15.2428 14.3351 15.3048 14.375 15.3677C14.3305 15.3932 14.2863 15.4189 14.242 15.4455C13.9163 15.6415 13.6104 15.8668 13.4971 16.0738L13.4172 15.8737L13.4971 15.6737V8.67871L13.4571 8.57877L13.4967 8.41334Z" fill="black"/>
<path d="M13.4971 15.6738C13.612 15.5491 13.8522 15.3968 14.1222 15.2563C13.7958 14.6703 13.634 13.7441 13.7099 13.5597C13.7099 13.5597 13.8439 14.0401 14.0077 14.3138C14.1593 14.5674 14.346 14.8525 14.5264 15.0639C14.6749 15.0006 14.8189 14.9474 14.9419 14.9104C14.4011 14.4938 13.848 13.1166 13.848 13.1166L14.4199 12.8516C14.4199 12.8516 14.6339 13.101 14.7034 13.1473C14.7034 13.1473 14.733 13.0233 14.7504 12.9795C14.7504 12.9795 14.8324 13.0415 14.8773 13.043C14.8773 13.043 14.8907 12.9588 14.9008 12.9038C14.9573 12.9414 15.0512 12.9335 15.0512 12.9335C14.9687 12.8944 14.8711 12.6551 14.8711 12.6551L15.4173 11.9287C15.4173 11.9287 15.6091 12.8505 15.8276 13.04V9.07073L15.6546 9.23135L15.3927 8.9868V8.80057L15.625 9.01748V8.45572C15.59 8.40277 15.5668 8.36325 15.5493 8.33191C15.5117 8.39745 15.3902 8.59833 15.2474 8.72178C15.2239 8.62627 15.0694 8.53553 15.0694 8.53553C15.0694 8.53553 15.014 8.6856 14.9292 8.72278C14.8994 8.67025 14.7215 8.55396 14.7215 8.55396C14.7215 8.55396 14.8737 8.57708 14.9353 8.63481C14.9883 8.62296 15.0018 8.41378 15.0018 8.41378C15.0018 8.41378 15.2259 8.5229 15.2648 8.60103C15.3075 8.58948 15.374 8.42138 15.3999 8.35238C15.3608 8.34812 15.3056 8.34318 15.2331 8.34318C15.1692 8.34318 15.0875 8.37344 15.0019 8.41378C14.9078 8.45807 14.8094 8.51416 14.7215 8.55398C14.6089 8.60495 14.4386 8.6153 14.3889 8.61742C14.4458 8.6574 14.5083 8.69389 14.5762 8.72793C14.5762 8.72793 14.3081 8.72546 14.1198 8.63173C14.0526 8.58852 13.9829 8.54546 13.9233 8.49461C13.9492 8.56643 13.9894 8.6513 14.0523 8.72382C13.7757 8.70041 13.638 8.54248 13.599 8.4895C13.5806 8.53697 13.548 8.61316 13.4967 8.67878H13.3967V15.4747L13.4971 15.6738Z" fill="#B07F55"/>
<path d="M15.5349 7.6801L15.5298 7.80698V8.1805C15.6302 8.14598 15.7562 7.98116 15.8173 7.89399V7.84282C15.8173 7.79469 15.789 7.75953 15.7682 7.7405L15.8286 7.71903C15.8516 7.74528 15.8767 7.78425 15.8767 7.83464V7.86433L16.0568 8.05773L16.2338 7.78963V7.72415C16.2338 7.68002 16.1998 7.63081 16.1714 7.59727L16.2307 7.57578C16.2607 7.6146 16.2921 7.6669 16.2921 7.71596V7.76914C16.3338 7.81224 16.4957 7.97894 16.4957 7.97894C16.4957 7.97894 16.577 7.8043 16.5991 7.75689C16.475 7.58509 16.2739 7.39273 16.0844 7.2547C16.0844 7.2547 15.6734 7.63209 15.5349 7.6801Z" fill="#B07F55"/>
<path d="M16.5767 8.04234V8.35037L16.72 8.48338V8.02599C16.72 7.98219 16.7016 7.92943 16.6709 7.87146L16.5767 8.04234Z" fill="#B07F55"/>
<path d="M16.1306 8.16101V8.35134L16.2953 8.50587V7.91034L16.1306 8.16101Z" fill="#B07F55"/>
<path d="M16.3537 8.50486L16.5184 8.35137V8.12832L16.3537 7.95538V8.50486Z" fill="#B07F55"/>
<path d="M15.6016 8.27356C15.6398 8.32763 15.74 8.45987 15.8482 8.51814V7.99524C15.8234 8.0365 15.7096 8.2206 15.6016 8.27356Z" fill="#B07F55"/>
<path d="M15.9065 8.02185V8.50482L16.0713 8.35133V8.18046L15.9065 8.02185Z" fill="#B07F55"/>
<path d="M16.5767 8.5365V9.01847L16.72 8.88441V8.67054L16.5767 8.5365Z" fill="#B07F55"/>
<path d="M16.3538 8.6911V8.86401L16.5186 9.01748V8.5376L16.3538 8.6911Z" fill="#B07F55"/>
<path d="M16.1308 8.53772V9.01763L16.2955 8.86311V8.69223L16.1308 8.53772Z" fill="#B07F55"/>
<path d="M15.9066 8.69212V8.86299L16.0714 9.0175V8.5376L15.9066 8.69212Z" fill="#B07F55"/>
<path d="M15.6836 9.01852L15.8484 8.86399V8.70337C15.7916 8.66869 15.7344 8.60495 15.6836 8.5376L15.6836 9.01852Z" fill="#B07F55"/>
<path d="M16.101 9.23141L15.9271 9.06972V13.04C15.9271 13.04 15.915 13.237 15.9066 13.3653C15.984 13.4435 16.275 13.7378 16.275 13.7378V9.06866L16.101 9.23141Z" fill="#B07F55"/>
<path d="M16.3743 13.5894C16.3743 13.717 16.6074 14.0146 16.7202 14.0826V9.07077L16.5483 9.2314L16.3743 9.0697V13.5894Z" fill="#B07F55"/>
<path d="M14.9296 13.1586L14.8027 13.0716C14.8027 13.0716 14.7942 13.1135 14.7833 13.1709C14.8376 13.2451 15.1497 13.671 15.3041 13.8789C15.3425 13.9306 15.3747 14.0621 15.3747 14.0621C15.3747 14.0621 15.431 14.0355 15.431 13.9874C15.431 13.9402 15.4248 13.884 15.4248 13.884C15.4248 13.884 15.4668 13.9321 15.5394 13.9321C15.5394 13.8741 15.4272 13.8112 15.4228 13.7285C15.5084 13.792 15.5827 13.7594 15.6817 13.7899C15.7895 13.8231 15.8195 13.8684 15.8525 13.8667C15.872 13.8656 15.8896 13.8321 15.8822 13.8114C15.8693 13.7757 15.736 13.6769 15.6428 13.659C15.6205 13.6547 15.4449 13.6972 15.4095 13.6426C15.2637 13.4177 15.0271 13.0526 15.0043 13.0174C14.9893 13.0138 14.9754 13.01 14.9644 13.0031C14.9644 13.0031 14.9657 13.118 14.9296 13.1586V13.1586Z" fill="#D10429"/>
<path d="M15.7454 13.8594C15.7383 13.8675 15.7389 13.8795 15.7464 13.8859L15.8037 13.9361C15.8112 13.9425 15.8232 13.9412 15.8303 13.933C15.8374 13.9248 15.8368 13.9129 15.8293 13.9064L15.772 13.8563C15.7682 13.853 15.7634 13.8516 15.7587 13.8522C15.7539 13.8527 15.7489 13.8553 15.7454 13.8594V13.8594Z" fill="#D10429"/>
<path d="M15.6584 13.9199C15.6413 13.9396 15.6424 13.9676 15.6604 13.9833L15.7996 14.1051C15.8177 14.1208 15.8469 14.1177 15.8641 14.0979C15.8812 14.0782 15.8801 14.0492 15.862 14.0335L15.7229 13.9127C15.7161 13.9068 15.7068 13.9032 15.6983 13.9025C15.6841 13.9013 15.6691 13.9076 15.6584 13.9199V13.9199Z" fill="#D10429"/>
<path d="M15.5786 14.0139C15.5615 14.0337 15.5626 14.0616 15.5807 14.0774L15.7209 14.1991C15.739 14.2149 15.7672 14.2117 15.7843 14.192C15.8015 14.1722 15.8004 14.1432 15.7822 14.1275L15.6431 14.0068C15.6363 14.0009 15.6281 13.9973 15.6196 13.9965C15.6053 13.9954 15.5894 14.0016 15.5786 14.0139V14.0139Z" fill="#D10429"/>
<path d="M15.5306 14.0887C15.5164 14.0875 15.5014 14.0927 15.4907 14.105C15.4736 14.1248 15.4747 14.1538 15.4927 14.1695L15.6319 14.2903C15.65 14.306 15.6782 14.3028 15.6954 14.2831C15.7125 14.2633 15.7124 14.2354 15.6943 14.2196L15.5541 14.0979C15.5474 14.092 15.5392 14.0893 15.5306 14.0887V14.0887Z" fill="#D10429"/>
<path d="M13.3192 6.46774C13.5482 6.46774 13.7093 6.57216 13.926 6.66828C13.9828 6.69346 14.035 6.71387 14.0815 6.72966C14.0523 6.75551 14.0297 6.78147 14.0232 6.80336C14.0232 6.80336 14.1203 6.82135 14.1644 6.90264C14.1644 6.90264 14.072 6.91311 14.0569 6.96708C14.1087 6.97098 14.1601 7.03618 14.1603 7.0991L14.0293 7.05815C14.0293 7.05815 14.061 7.20522 14.061 7.36512C14.061 7.4468 13.9434 7.5429 13.9434 7.68132C13.9434 8.11574 14.0528 8.28272 14.1307 8.41702C14.1611 8.46957 14.1858 8.53003 14.2371 8.57562C14.0128 8.45624 13.8462 8.307 13.8462 8.16839V7.64346H13.7879V8.16839C13.7879 8.26891 13.8124 8.31574 13.8124 8.31574C13.8476 8.42695 13.9188 8.59861 13.9628 8.66773C13.7565 8.55624 13.6517 8.41662 13.6517 8.36485V7.64344H13.5934V8.37506L13.6047 8.42519C13.5797 8.46277 13.5472 8.50727 13.5249 8.5224C13.5026 8.50729 13.4711 8.46271 13.446 8.42519L13.4573 8.37506V7.64344H13.399V8.36485C13.399 8.4166 13.2942 8.55624 13.0879 8.66773C13.132 8.59859 13.2031 8.42695 13.2383 8.31574C13.2383 8.31574 13.2629 8.26893 13.2629 8.16839V7.64346H13.2046V8.16839C13.2046 8.30684 13.0385 8.45632 12.8147 8.57562C12.8654 8.52999 12.8898 8.46927 12.9201 8.41702C13.0052 8.27015 13.1104 8.08356 13.1104 7.55237C13.1104 7.35301 13.0809 7.21747 13.0296 7.12261C13.0139 7.09131 12.9929 7.008 13.1124 7.008C13.1743 7.008 13.3161 7.11749 13.3161 7.11749C13.3161 7.11749 13.3102 7.03012 13.2383 6.98037C13.2264 6.97212 13.2066 6.94615 13.2066 6.92203C13.2066 6.90396 13.2376 6.85937 13.2618 6.84835C13.2785 6.8408 13.0183 6.79546 13.0183 6.67747C13.0183 6.65291 13.0338 6.63654 13.0878 6.63654C13.1587 6.63654 13.274 6.72147 13.3764 6.72147C13.4522 6.72147 13.482 6.70304 13.5596 6.70304C13.6544 6.70304 13.8521 6.88251 13.9197 6.87596C13.8441 6.82848 13.722 6.64879 13.5371 6.64879C13.4729 6.64879 13.4148 6.66312 13.3549 6.66312C13.2781 6.66312 13.2025 6.5925 13.1196 6.5925C13.064 6.5925 13.0019 6.5956 12.9927 6.58123C12.9766 6.55615 12.9911 6.54159 13.006 6.52087C13.0341 6.48175 13.1132 6.4704 13.1912 6.46768C13.2146 6.46686 13.2379 6.46646 13.2598 6.46667C13.2816 6.4669 13.3018 6.46774 13.3192 6.46774V6.46774Z" fill="#B07F55"/>
<path d="M12.5756 6.74861C12.5756 6.74861 12.6239 6.65704 12.7461 6.65704C12.7972 6.65704 12.9658 6.6535 12.9658 6.6535C12.9883 6.71189 13.0907 6.80945 13.0907 6.91091C13.0907 6.91091 12.9868 6.72348 12.6965 6.72348C12.6236 6.72348 12.5755 6.74859 12.5755 6.74859L12.5756 6.74861Z" fill="#CC092F"/>
<path d="M13.0475 6.94665C13.0475 6.94665 12.9857 7.01177 12.9722 7.04653C12.911 7.02335 12.8044 6.91339 12.8044 6.91339C12.8044 6.91339 12.8948 6.9662 13.0475 6.94665H13.0475Z" fill="#D10429"/>
<path d="M12.9495 6.77422C12.9495 6.77422 12.8782 6.75136 12.8782 6.72741C12.8782 6.69691 12.9128 6.69691 12.9336 6.72067C12.9478 6.73704 12.9495 6.77424 12.9495 6.77424L12.9495 6.77422Z" fill="black"/>
<path d="M13.2565 6.85675C13.3129 6.85675 13.3587 6.82057 13.3587 6.77594C13.3587 6.73131 13.3129 6.69513 13.2565 6.69513C13.2001 6.69513 13.1543 6.73131 13.1543 6.77594C13.1543 6.82057 13.2001 6.85675 13.2565 6.85675Z" fill="black"/>
<path d="M13.2565 6.84721C13.2958 6.84721 13.3277 6.81535 13.3277 6.77605C13.3277 6.73675 13.2958 6.7049 13.2565 6.7049C13.2172 6.7049 13.1854 6.73675 13.1854 6.77605C13.1854 6.81535 13.2172 6.84721 13.2565 6.84721Z" fill="#F5D402"/>
<path d="M13.2565 6.80613C13.2732 6.80613 13.2867 6.79261 13.2867 6.77593C13.2867 6.75925 13.2732 6.74573 13.2565 6.74573C13.2398 6.74573 13.2263 6.75925 13.2263 6.77593C13.2263 6.79261 13.2398 6.80613 13.2565 6.80613Z" fill="black"/>
<path d="M11.9528 14.346L11.629 14.1693L11.5504 14.5297L11.8743 14.7063L11.9528 14.346Z" fill="black"/>
<path d="M10.1204 10.707L10.0037 10.7603L11.3217 13.6469H11.4619L10.1204 10.707ZM11.6747 14.1114L11.5796 14.2096L11.6389 14.3406L11.7545 14.2874L11.6747 14.1114Z" fill="black"/>
<path d="M10.53 12.9831C10.53 12.9831 10.641 13.2124 10.7253 13.2438C10.6817 13.2319 10.54 13.2839 10.54 13.2839C10.54 13.2839 10.7899 13.5071 11.0018 13.5218C11.1815 13.5341 11.2687 13.4444 11.2687 13.4444L11.2327 13.2541C11.2327 13.2541 11.1228 13.1213 10.9468 13.06C10.7691 12.9981 10.5299 12.9831 10.5299 12.9831L10.53 12.9831Z" fill="black"/>
<path d="M11.3669 12.5723C11.3669 12.5723 11.2136 12.7035 11.1716 12.8555C11.1296 13.0075 11.199 13.1802 11.199 13.1802L11.3278 13.4205C11.3278 13.4205 11.5063 13.3255 11.5822 13.1834C11.6581 13.0414 11.6303 12.8497 11.6303 12.8497C11.6303 12.8497 11.4889 12.9023 11.4709 12.9256C11.5007 12.768 11.3668 12.5723 11.3668 12.5723H11.3669Z" fill="black"/>
<path d="M10.8742 12.5109C10.8742 12.5109 10.6998 12.5698 10.5305 12.5596C10.3693 12.5499 10.2352 12.4145 10.2352 12.4145C10.2352 12.4145 10.3688 12.324 10.4348 12.3361C10.3623 12.3096 10.257 12.1277 10.257 12.1277C10.257 12.1277 10.4066 12.0826 10.5392 12.1325C10.6718 12.1826 10.7874 12.3278 10.7874 12.3278L10.8742 12.5109H10.8742Z" fill="black"/>
<path d="M10.9341 11.6595C10.9341 11.6595 11.0213 11.84 11.0006 11.9028C11.0277 11.861 11.13 11.7959 11.13 11.7959C11.13 11.7959 11.1919 12.0882 11.1327 12.2688C11.0736 12.4493 10.8934 12.518 10.8934 12.518L10.6947 12.1315C10.6947 12.1315 10.6651 11.9883 10.727 11.8749C10.789 11.7615 10.9341 11.6595 10.9341 11.6595V11.6595Z" fill="black"/>
<path d="M9.79979 11.1815C9.79979 11.1815 9.98822 11.1617 10.1606 11.2332C10.3047 11.293 10.3489 11.4017 10.3489 11.4017L10.4199 11.592C10.4199 11.592 10.2148 11.6689 10.0527 11.6101C9.89066 11.5513 9.77159 11.3567 9.77159 11.3567C9.77159 11.3567 9.88484 11.3137 9.92796 11.3298C9.86516 11.302 9.79983 11.1815 9.79983 11.1815V11.1816L9.79979 11.1815Z" fill="black"/>
<path d="M10.3925 10.8283C10.3925 10.8283 10.4751 10.9345 10.4776 11.0566C10.4997 10.9917 10.6029 10.9199 10.6029 10.9199C10.6029 10.9199 10.7091 11.1769 10.6858 11.3593C10.6625 11.5417 10.5097 11.6497 10.5097 11.6497L10.3192 11.288C10.3192 11.288 10.2571 11.1398 10.2754 11.0249C10.2937 10.9099 10.3925 10.8282 10.3925 10.8282V10.8283Z" fill="black"/>
<path d="M9.73981 10.1367C9.73981 10.1367 9.70565 10.3337 9.76378 10.4471C9.81571 10.5484 9.84877 10.5706 9.84877 10.5706C9.74975 10.5052 9.60004 10.4996 9.60004 10.4996C9.60004 10.4996 9.65332 10.7139 9.78067 10.8117C9.90801 10.9094 10.1044 10.8866 10.1044 10.8866C10.1044 10.8866 10.2335 10.7147 10.2245 10.5295C10.2155 10.3443 10.0684 10.1458 10.0684 10.1458C10.0684 10.1458 10.0104 10.2661 10.0053 10.3559C9.96778 10.2633 9.73977 10.1367 9.73977 10.1367L9.73981 10.1367Z" fill="black"/>
<path d="M11.2789 13.4362L11.2842 13.5069C11.4017 13.508 11.4191 13.4963 11.4492 13.5333C11.4693 13.5579 11.517 13.5795 11.5649 13.5576C11.6129 13.5357 11.6344 13.4781 11.6125 13.4301C11.5906 13.3822 11.546 13.3718 11.5031 13.3802C11.4767 13.3854 11.4593 13.4065 11.437 13.418C11.3944 13.4401 11.2789 13.4362 11.2789 13.4362L11.2789 13.4362Z" fill="black"/>
<path d="M11.2687 13.3822L11.3259 13.4241C11.2646 13.5243 11.2454 13.533 11.2609 13.5781C11.2712 13.6082 11.2642 13.66 11.2202 13.6891C11.1762 13.7182 11.116 13.7059 11.0869 13.662C11.0579 13.618 11.0726 13.5747 11.1026 13.5427C11.121 13.5231 11.1479 13.5195 11.1696 13.5067C11.2108 13.4822 11.2687 13.3822 11.2687 13.3822L11.2687 13.3822Z" fill="black"/>
<path d="M10.871 12.5427L10.8762 12.6134C10.9937 12.6144 11.0111 12.6028 11.0412 12.6398C11.0613 12.6644 11.109 12.686 11.1569 12.6641C11.2049 12.6422 11.2264 12.5846 11.2045 12.5366C11.1826 12.4887 11.138 12.4783 11.0951 12.4867C11.0687 12.492 11.0513 12.513 11.029 12.5245C10.9864 12.5465 10.8709 12.5427 10.8709 12.5427L10.871 12.5427Z" fill="black"/>
<path d="M10.8947 12.5677L10.9447 12.6181C10.8686 12.7075 10.8483 12.7131 10.8566 12.7601C10.8621 12.7914 10.8471 12.8415 10.7991 12.8634C10.7512 12.8853 10.6936 12.8638 10.6717 12.8158C10.6498 12.7679 10.6711 12.7274 10.7057 12.7005C10.7269 12.684 10.7541 12.6846 10.7775 12.6753C10.822 12.6576 10.8947 12.5678 10.8947 12.5678V12.5677Z" fill="black"/>
<path d="M10.4756 11.7062L10.4809 11.7769C10.5984 11.778 10.6158 11.7663 10.6459 11.8033C10.666 11.8279 10.7137 11.8495 10.7616 11.8276C10.8096 11.8057 10.8311 11.7481 10.8092 11.7001C10.7873 11.6522 10.7427 11.6418 10.6997 11.6503C10.6733 11.6555 10.656 11.6765 10.6337 11.6881C10.5911 11.7101 10.4756 11.7062 10.4756 11.7062L10.4756 11.7062Z" fill="black"/>
<path d="M10.5082 11.6914L10.5581 11.7417C10.482 11.8311 10.4617 11.8367 10.4699 11.8837C10.4755 11.915 10.4605 11.9651 10.4125 11.987C10.3646 12.0089 10.307 11.9874 10.2851 11.9395C10.2632 11.8915 10.2845 11.851 10.3191 11.8241C10.3403 11.8076 10.3675 11.8083 10.3909 11.7989C10.4354 11.7812 10.5082 11.6914 10.5082 11.6914V11.6914Z" fill="black"/>
<path d="M10.0544 10.8232L10.0597 10.8938C10.1772 10.8949 10.1947 10.8832 10.2247 10.9202C10.2448 10.9449 10.2925 10.9664 10.3404 10.9446C10.3884 10.9226 10.4099 10.8651 10.388 10.8171C10.3661 10.7691 10.3215 10.7587 10.2785 10.7672C10.2522 10.7724 10.2349 10.7935 10.2125 10.805C10.1699 10.827 10.0544 10.8232 10.0544 10.8232H10.0544Z" fill="black"/>
<path d="M10.087 10.8083L10.137 10.8586C10.0609 10.948 10.0406 10.9536 10.0488 11.0006C10.0543 11.0319 10.0394 11.082 9.9914 11.1039C9.94343 11.1258 9.88586 11.1044 9.86398 11.0564C9.84207 11.0084 9.86342 10.9679 9.89794 10.941C9.91916 10.9245 9.94641 10.9252 9.96977 10.9158C10.0143 10.8981 10.087 10.8083 10.087 10.8083L10.087 10.8083Z" fill="black"/>
<path d="M11.8765 14.3811L11.6756 14.2715L11.6269 14.495L11.8278 14.6046L11.8765 14.3811Z" fill="#F5D402"/>
<path d="M10.7964 12.3332C10.7543 12.3507 10.6918 12.1674 10.646 12.067C10.599 11.964 10.5035 11.8052 10.5306 11.7928C10.5603 11.7792 10.5996 11.8626 10.6477 11.968C10.6958 12.0734 10.8358 12.3168 10.7964 12.3332V12.3332Z" fill="#F5D402"/>
<path d="M10.3641 11.3679C10.322 11.3854 10.2759 11.2654 10.2301 11.165C10.183 11.062 10.1372 10.9892 10.1644 10.9768C10.1941 10.9632 10.2381 11.0535 10.2766 11.1378C10.3139 11.2195 10.4035 11.3515 10.364 11.3679L10.3641 11.3679Z" fill="#F5D402"/>
<path d="M11.3642 13.5565C11.3312 13.5654 11.187 13.2635 11.0704 13.008C10.9538 12.7526 10.8669 12.5459 10.8941 12.5336C10.9238 12.52 11.0182 12.7613 11.1349 13.0167C11.2515 13.2722 11.389 13.5499 11.3643 13.5565H11.3642Z" fill="#F5D402"/>
<path d="M9.79783 10.2565C9.79783 10.2565 9.79273 10.4004 9.84034 10.482C9.88797 10.5637 9.99433 10.5963 9.99433 10.5963C9.99433 10.5963 9.99941 10.4524 9.9518 10.3707C9.90416 10.2891 9.79783 10.2565 9.79783 10.2565V10.2565Z" fill="#097754"/>
<path d="M9.69824 10.5822C9.69824 10.5822 9.82327 10.5895 9.89548 10.6448C9.96764 10.7002 9.9956 10.8154 9.9956 10.8154C9.9956 10.8154 9.91273 10.8238 9.84058 10.7685C9.7684 10.7132 9.69824 10.5822 9.69824 10.5822V10.5822Z" fill="#097754"/>
<path d="M10.0906 10.2915C10.0906 10.2915 10.0491 10.3868 10.0539 10.4896C10.0586 10.5924 10.1186 10.7082 10.1186 10.7082C10.1186 10.7082 10.1728 10.5848 10.1681 10.482C10.1633 10.3792 10.1052 10.3206 10.0906 10.2915Z" fill="#097754"/>
<path d="M9.88016 11.2181C9.88016 11.2181 9.94154 11.3038 10.036 11.3505C10.1305 11.3972 10.2714 11.399 10.2714 11.399C10.2714 11.399 10.2011 11.3078 10.1066 11.261C10.0121 11.2143 9.88016 11.218 9.88016 11.218V11.2181Z" fill="#097754"/>
<path d="M9.91053 11.4172C9.91053 11.4172 9.95564 11.5055 10.0381 11.5434C10.1207 11.5813 10.2895 11.5782 10.2895 11.5782C10.2895 11.5782 10.2247 11.4956 10.1422 11.4577C10.0597 11.4198 9.91051 11.4172 9.91051 11.4172H9.91053Z" fill="#097754"/>
<path d="M10.3857 10.9459C10.3857 10.9459 10.3358 11.0283 10.3407 11.1191C10.3456 11.21 10.4052 11.3092 10.4052 11.3092C10.4052 11.3092 10.4471 11.1955 10.4422 11.1046C10.4373 11.0138 10.3856 10.9459 10.3856 10.9459H10.3857Z" fill="#097754"/>
<path d="M10.5694 11.0624C10.5694 11.0624 10.484 11.1769 10.4718 11.2947C10.4595 11.4124 10.5203 11.5334 10.5203 11.5334C10.5203 11.5334 10.6234 11.4299 10.6356 11.3121C10.6479 11.1944 10.5694 11.0624 10.5694 11.0624V11.0624Z" fill="#097754"/>
<path d="M10.3341 12.1499C10.3341 12.1499 10.3443 12.1922 10.38 12.2372C10.4156 12.2821 10.4767 12.3297 10.4767 12.3297C10.4767 12.3297 10.5356 12.3108 10.6089 12.3266C10.6821 12.3425 10.7796 12.4078 10.7796 12.4078C10.7796 12.4078 10.6747 12.2513 10.5658 12.1904C10.4569 12.1296 10.3341 12.1498 10.3341 12.1498L10.3341 12.1499Z" fill="#097754"/>
<path d="M10.3233 12.4187C10.3233 12.4187 10.4591 12.3607 10.5709 12.3757C10.6827 12.3907 10.7835 12.4791 10.7835 12.4791C10.7835 12.4791 10.6324 12.5313 10.5206 12.5164C10.4087 12.5014 10.3233 12.4187 10.3233 12.4187H10.3233Z" fill="#097754"/>
<path d="M10.8972 11.7876C10.8972 11.7876 10.7771 11.9148 10.767 12.0252C10.757 12.1356 10.8644 12.2384 10.8644 12.2384C10.8644 12.2384 10.8591 12.1677 10.8776 12.121C10.8961 12.0744 10.9354 12.0247 10.9354 12.0247C10.9354 12.0247 10.9522 11.9678 10.9457 11.9223C10.9366 11.8586 10.8972 11.7876 10.8972 11.7876V11.7876Z" fill="#097754"/>
<path d="M11.0695 11.9349C11.0695 11.9349 10.9563 12.0494 10.9264 12.1721C10.8965 12.2947 10.9498 12.4254 10.9498 12.4254C10.9498 12.4254 11.0527 12.3443 11.0826 12.2216C11.1125 12.099 11.0694 11.9349 11.0694 11.9349H11.0695Z" fill="#097754"/>
<path d="M11.3529 12.674C11.3529 12.674 11.4041 12.7811 11.4171 12.8706C11.4302 12.9601 11.4181 12.991 11.4181 12.991C11.4181 12.991 11.3651 13.0432 11.3413 13.0738C11.3108 13.1132 11.3063 13.1852 11.3063 13.1852C11.3063 13.1852 11.1999 13.027 11.2163 12.9114C11.2327 12.7957 11.3529 12.674 11.3529 12.674V12.674Z" fill="#097754"/>
<path d="M11.5771 12.9217C11.5771 12.9217 11.4409 13.0117 11.3868 13.1041C11.3327 13.1963 11.3607 13.2909 11.3607 13.2909C11.3607 13.2909 11.4578 13.2824 11.512 13.1901C11.566 13.0978 11.5771 12.9217 11.5771 12.9217L11.5771 12.9217Z" fill="#097754"/>
<path d="M10.6817 13.3018C10.6817 13.3018 10.8781 13.2965 10.9981 13.326C11.1182 13.3555 11.1619 13.4198 11.1619 13.4198C11.1619 13.4198 11.0269 13.483 10.9069 13.4535C10.7868 13.4241 10.6817 13.3018 10.6817 13.3018L10.6817 13.3018Z" fill="#097754"/>
<path d="M10.6485 13.0688C10.6485 13.0688 10.7371 13.2062 10.8517 13.256C11.0095 13.3247 11.1923 13.2914 11.1923 13.2914C11.1923 13.2914 11.093 13.1697 10.9564 13.1159C10.8197 13.0622 10.6485 13.0688 10.6485 13.0688V13.0688Z" fill="#097754"/>
<path d="M17.3729 10.3715L17.3985 10.4257C17.3985 10.4257 17.3569 10.4399 17.3381 10.4768C17.3193 10.5137 17.3504 10.5659 17.3504 10.5659C17.3504 10.5659 17.1344 10.547 17.1007 10.569C17.0702 10.5887 17.1136 10.7383 17.0935 10.8647C17.0655 11.0408 16.9961 11.026 16.9933 11.0601C16.9905 11.0933 17.0199 11.145 17.0199 11.145C17.0199 11.145 16.9794 11.1578 16.9707 11.1747C16.9568 11.2019 16.9804 11.2522 16.9636 11.2852C16.8696 11.4696 16.7309 11.7417 16.6392 11.9217C16.6264 11.9468 16.592 11.9564 16.5747 11.9902C16.5588 12.0215 16.5717 12.067 16.5717 12.067C16.5717 12.067 16.5109 12.0706 16.4898 12.112C16.4674 12.156 16.4806 12.2154 16.4806 12.2154C16.4806 12.2154 16.4421 12.2203 16.4233 12.2573C16.4031 12.2969 16.4373 12.3177 16.4284 12.3351C16.3051 12.577 16.1599 12.8621 16.0713 13.036C16.0387 13.1 15.9246 13.1128 15.8584 13.2427C15.7942 13.3688 15.8861 13.4617 15.8861 13.4617C15.8861 13.4617 15.7907 13.4703 15.7653 13.52C15.7395 13.5707 15.7599 13.6476 15.8288 13.6827C15.8976 13.7178 15.9728 13.6894 15.9987 13.6387C16.024 13.589 15.9731 13.5067 15.9731 13.5067C15.9731 13.5067 16.1022 13.5253 16.1665 13.3993C16.2327 13.2693 16.1768 13.1706 16.2094 13.1066C16.2981 12.9327 16.4433 12.6476 16.5666 12.4057C16.5754 12.3883 16.6119 12.4033 16.632 12.3637C16.6509 12.3267 16.632 12.2931 16.632 12.2931C16.632 12.2931 16.6884 12.2686 16.7108 12.2246C16.732 12.1832 16.6996 12.1315 16.6996 12.1315C16.6996 12.1315 16.744 12.1156 16.76 12.0844C16.7772 12.0506 16.7645 12.0175 16.7773 11.9923C16.8691 11.8123 17.0078 11.5402 17.1017 11.3558C17.1186 11.3228 17.1728 11.3115 17.1866 11.2842C17.1953 11.2673 17.1815 11.2269 17.1815 11.2269C17.1815 11.2269 17.2413 11.221 17.2665 11.1993C17.2924 11.1769 17.2397 11.129 17.3657 11.0028C17.4561 10.9123 17.6019 10.859 17.6 10.8227C17.5979 10.7825 17.4558 10.6191 17.4558 10.6191C17.4558 10.6191 17.5157 10.614 17.5346 10.5771C17.5534 10.5402 17.5407 10.4973 17.5407 10.4973L17.6 10.4871L17.6 10.2057L17.3729 10.3715ZM15.4113 14.2906C15.4024 14.3081 15.4007 14.3321 15.4113 14.353C15.4113 14.353 15.3397 14.3306 15.3152 14.3428C15.292 14.3542 15.3152 14.6917 15.3152 14.6917C15.3152 14.6917 15.6009 14.5115 15.5965 14.486C15.5919 14.459 15.5321 14.4134 15.5321 14.4134C15.5552 14.4097 15.5733 14.3952 15.5822 14.3776C15.5916 14.3591 15.5929 14.3063 15.528 14.2732C15.5037 14.2608 15.482 14.2571 15.4645 14.2589C15.4354 14.2618 15.4172 14.2791 15.4113 14.2906Z" fill="black"/>
<path d="M17.4249 10.3827L17.5599 10.4513L17.5579 10.2886L17.4249 10.3827Z" fill="#F5D402"/>
<path d="M17.3727 10.481C17.3553 10.5151 17.3722 10.5587 17.4105 10.5782C17.4489 10.5977 17.4934 10.5857 17.5108 10.5516C17.5282 10.5176 17.5113 10.474 17.4729 10.4544C17.4586 10.4471 17.4434 10.4442 17.4289 10.4452C17.4048 10.4468 17.3835 10.4597 17.3727 10.481V10.481Z" fill="#F5D402"/>
<path d="M17.1404 10.6048C17.1262 10.614 17.1456 10.7357 17.1415 10.8391C17.1376 10.9367 17.1064 10.9642 17.0893 10.9978C17.0735 11.0287 17.0166 11.0653 17.0166 11.0653L17.0637 11.1124C17.0637 11.1124 17.0943 11.0647 17.1425 10.9701C17.1993 10.8586 17.1975 10.6565 17.2141 10.6457C17.2286 10.6364 17.3472 10.6068 17.3472 10.6068C17.3471 10.6068 17.2384 10.601 17.1783 10.6018C17.1583 10.602 17.1437 10.6027 17.1404 10.6048Z" fill="#F5D402"/>
<path d="M17.1528 11.1666C17.1528 11.1666 17.1685 11.1229 17.2234 11.0152C17.2896 10.8853 17.4309 10.791 17.4342 10.7675C17.4376 10.7433 17.3851 10.6294 17.3851 10.6294C17.3851 10.6294 17.2604 10.6533 17.2428 10.6703C17.2258 10.6868 17.2333 10.8556 17.1671 10.9855C17.1122 11.0932 17.0853 11.1328 17.0853 11.1328L17.1528 11.1666Z" fill="#F5D402"/>
<path d="M17.471 10.7767C17.4721 10.7964 17.3079 10.9138 17.251 11.0253C17.2029 11.1199 17.1825 11.1727 17.1825 11.1727L17.248 11.1829C17.248 11.1829 17.2435 11.1156 17.2592 11.0847C17.2763 11.0511 17.2808 11.0101 17.3575 10.9496C17.4388 10.8855 17.5487 10.8294 17.5478 10.8125C17.547 10.7968 17.425 10.6457 17.425 10.6457C17.425 10.6457 17.4701 10.7595 17.471 10.7767Z" fill="#F5D402"/>
<path d="M16.9901 11.5064C17.0888 11.3127 17.1189 11.2995 17.1313 11.2751C17.1447 11.2489 17.1415 11.2136 17.0976 11.1912C17.0811 11.1828 17.067 11.1807 17.0546 11.182C17.034 11.1842 17.0189 11.1973 17.0106 11.2137C16.9982 11.2381 17.0049 11.2708 16.9062 11.4644L16.6821 11.9034C16.6821 11.9034 16.6586 11.9465 16.7026 11.9689C16.7465 11.9912 16.766 11.9464 16.766 11.9464L16.9901 11.5064Z" fill="#F5D402"/>
<path d="M16.5942 12.0098C16.582 12.0338 16.6029 12.0691 16.6412 12.0886C16.6796 12.1081 16.7211 12.1044 16.7333 12.0804C16.7455 12.0565 16.7236 12.0212 16.6852 12.0016C16.6661 11.9919 16.6466 11.9879 16.63 11.9894C16.6134 11.9908 16.6003 11.9979 16.5942 12.0098Z" fill="#F5D402"/>
<path d="M16.5112 12.1345C16.4954 12.1655 16.5201 12.2101 16.5665 12.2338C16.6129 12.2574 16.6632 12.2515 16.679 12.2205C16.6949 12.1894 16.6702 12.1449 16.6238 12.1212C16.6064 12.1123 16.5891 12.1076 16.5726 12.1069C16.5451 12.1056 16.5211 12.1151 16.5112 12.1345V12.1345Z" fill="#F5D402"/>
<path d="M16.459 12.2738C16.4468 12.2978 16.4678 12.3331 16.5061 12.3526C16.5445 12.3722 16.586 12.3684 16.5982 12.3444C16.6104 12.3204 16.5895 12.2852 16.5512 12.2656C16.532 12.2558 16.5115 12.2519 16.4949 12.2533C16.4783 12.2548 16.4652 12.2618 16.459 12.2738V12.2738Z" fill="#F5D402"/>
<path d="M16.4252 12.4068C16.4252 12.4068 16.1764 12.8965 16.0886 13.0688C16.0606 13.1238 15.9425 13.1581 15.8963 13.2489C15.8497 13.3402 15.8825 13.4257 15.9433 13.4566C16.0041 13.4876 16.0933 13.4651 16.1398 13.3738C16.186 13.283 16.1445 13.1668 16.1725 13.1118C16.2603 12.9394 16.5092 12.4497 16.5092 12.4497C16.5092 12.4497 16.5337 12.4066 16.4897 12.3843C16.4787 12.3787 16.4692 12.3781 16.4611 12.3792C16.4369 12.3823 16.4252 12.4068 16.4252 12.4068V12.4068Z" fill="#F5D402"/>
<path d="M15.7958 13.5436C15.7772 13.5802 15.7985 13.6289 15.8439 13.652C15.8893 13.6752 15.9419 13.664 15.9605 13.6275C15.9792 13.5909 15.9568 13.5421 15.9114 13.519C15.8944 13.5103 15.877 13.5063 15.8603 13.5068C15.8323 13.5075 15.8074 13.5207 15.7958 13.5436Z" fill="#F5D402"/>
<path d="M15.4644 14.2916C15.4502 14.2921 15.4384 14.2965 15.4337 14.3059C15.4241 14.3246 15.4438 14.3541 15.4777 14.3714C15.5115 14.3886 15.5469 14.387 15.5565 14.3683C15.566 14.3496 15.5463 14.3201 15.5125 14.3028C15.4955 14.2942 15.4786 14.2911 15.4644 14.2916V14.2916Z" fill="#F5D402"/>
<path d="M15.3477 14.3837V14.6252L15.5442 14.4839C15.5442 14.4839 15.5176 14.4369 15.4593 14.4072C15.401 14.3775 15.3477 14.3836 15.3477 14.3836V14.3837Z" fill="#F5D402"/>
<path d="M15.4721 9.00535C15.4721 8.87291 15.646 8.74237 15.646 8.74237H11.4036C11.4036 8.74237 11.5776 8.87289 11.5776 9.00535V12.1632C11.5776 12.2464 11.6033 12.3006 11.6441 12.3535C11.6849 12.4105 11.7718 12.4893 11.862 12.5479C12.1407 12.7289 12.6065 12.9197 12.959 13.08C13.2527 13.2136 13.3722 13.2675 13.5248 13.4566C13.6775 13.2675 13.798 13.2137 14.0917 13.08C14.4441 12.9197 14.91 12.7289 15.1886 12.5479C15.2789 12.4893 15.3658 12.4105 15.4066 12.3535C15.4474 12.3006 15.4721 12.2464 15.4721 12.1632V9.00535Z" fill="#F5D402"/>
<path d="M11.6778 10.792V9.00533C11.6778 8.90421 11.6267 8.84265 11.6267 8.84265H15.423C15.423 8.84265 15.3718 8.90423 15.3718 9.00533L15.3729 10.792L13.5254 11.3516L11.6778 10.792Z" fill="#D10429"/>
<path d="M15.3729 10.792L14.2289 10.7705H12.8219L11.6779 10.792V12.1632C11.6779 12.2321 11.7494 12.3936 12.1619 12.5991C12.8437 12.9388 13.3678 13.0975 13.5248 13.2908C13.6819 13.0975 14.206 12.9388 14.8878 12.5991C15.3003 12.3936 15.3718 12.2321 15.3718 12.1632L15.3729 10.792Z" fill="#0B45BB"/>
<path d="M14.2012 10.7205C14.2012 10.7205 14.8612 10.5541 14.8612 9.84866C14.8612 9.29772 14.1995 9.02441 14.1807 8.89294C14.1161 9.12043 14.4018 9.43462 14.4018 9.8067C14.4018 10.2881 14.0467 10.3112 14.0467 10.3112C13.9636 10.3112 13.9299 10.3705 13.8973 10.3705C13.8274 10.3632 13.7945 10.2743 13.7254 10.2743C13.6605 10.2743 13.6106 10.3746 13.5248 10.3746C13.439 10.3746 13.3902 10.2743 13.3253 10.2743C13.2562 10.2743 13.2233 10.3632 13.1534 10.3705C13.1207 10.3705 13.087 10.3112 13.0039 10.3112C13.0039 10.3112 12.6489 10.2881 12.6489 9.8067C12.6489 9.43462 12.9346 9.12039 12.8699 8.89294C12.8512 9.02441 12.1895 9.2977 12.1895 9.84866C12.1895 10.5541 12.8495 10.7205 12.8495 10.7205L12.6612 11.0633C12.6612 11.0633 12.934 11.0769 13.0787 11.2004C13.2533 11.3493 13.2363 11.6647 13.2363 11.8942C13.2363 12.075 13.2134 12.2657 13.1207 12.3444C12.9961 12.45 12.9119 12.4578 12.9119 12.5818C12.9119 12.6852 12.9914 12.7059 13.1207 12.7742C13.2863 12.8616 13.2786 12.9788 13.5248 12.9788C13.7711 12.9788 13.7644 12.8616 13.93 12.7742C14.0593 12.7059 14.1388 12.6852 14.1388 12.5818C14.1388 12.4578 14.0546 12.45 13.93 12.3444C13.8373 12.2657 13.8144 12.0749 13.8144 11.8942C13.8144 11.6647 13.7975 11.3493 13.972 11.2004C14.1168 11.0769 14.3895 11.0633 14.3895 11.0633L14.2012 10.7205Z" fill="black"/>
<path d="M13.5248 8.94177L13.4101 9.2672L13.098 9.11881L13.2464 9.43092L12.921 9.54653L13.2464 9.66216L13.098 9.97324L13.4101 9.82487L13.5248 10.1503L13.6404 9.82487L13.9525 9.97324L13.8041 9.66216L14.1295 9.54653L13.8041 9.43092L13.9525 9.11881L13.6404 9.2672L13.5248 8.94177Z" fill="black"/>
<path d="M12.8218 10.7707C12.8218 10.7707 12.4143 10.6711 12.2621 10.4698C11.996 10.7092 11.6778 10.7922 11.6778 10.7922C11.6778 10.7922 12.0097 10.942 12.2621 11.1329C12.3784 10.9663 12.8218 10.7707 12.8218 10.7707Z" fill="black"/>
<path d="M14.2287 10.7707C14.2287 10.7707 14.6722 10.9663 14.7885 11.1329C15.0408 10.942 15.3727 10.7922 15.3727 10.7922C15.3727 10.7922 15.0546 10.7092 14.7885 10.4698C14.6363 10.671 14.2287 10.7707 14.2287 10.7707Z" fill="black"/>
<path d="M12.9887 11.2044L12.8301 11.363L12.9887 11.5216L13.1473 11.363L12.9887 11.2044Z" fill="black"/>
<path d="M14.062 11.2044L13.9034 11.363L14.062 11.5216L14.2206 11.363L14.062 11.2044Z" fill="black"/>
<path d="M12.9487 12.1303C12.9487 12.3307 12.9293 12.4363 12.9293 12.4363C12.9293 12.4363 13.1529 12.3705 13.1974 12.1436C13.2183 12.0373 13.2416 11.6456 13.134 11.5788L12.8424 11.5215C12.8739 11.5994 12.9487 11.8408 12.9487 12.1303V12.1303Z" fill="black"/>
<path d="M13.9167 11.5788C13.8091 11.6456 13.8324 12.0373 13.8532 12.1436C13.8978 12.3705 14.1213 12.4363 14.1213 12.4363C14.1213 12.4363 14.1019 12.3307 14.1019 12.1303C14.1019 11.8408 14.1768 11.5994 14.2083 11.5215L13.9167 11.5788Z" fill="black"/>
<path d="M12.2612 11.5902C12.1606 11.6155 12.0999 11.7179 12.1251 11.8184C12.129 11.8338 12.1353 11.848 12.1425 11.8614C12.1278 11.8565 12.1126 11.8533 12.0964 11.8522C12.09 11.8517 12.0834 11.852 12.077 11.8522C11.9819 11.8554 11.9025 11.9302 11.8959 12.0272C11.8888 12.1306 11.9674 12.2196 12.0709 12.2267C12.0863 12.2278 12.1013 12.2272 12.1159 12.2247C12.107 12.2369 12.0993 12.2499 12.0934 12.2645C12.0547 12.3608 12.1016 12.4714 12.1978 12.5102C12.294 12.5488 12.4036 12.5009 12.4423 12.4048C12.4482 12.3901 12.4515 12.3757 12.4536 12.3608C12.4624 12.373 12.4731 12.3843 12.4853 12.3945C12.5648 12.461 12.6838 12.4505 12.7503 12.371C12.8169 12.2915 12.8063 12.1735 12.7268 12.107C12.7147 12.0969 12.7014 12.089 12.6879 12.0824C12.7023 12.0778 12.7164 12.0714 12.7298 12.063C12.8177 12.0079 12.8443 11.8909 12.7892 11.8031C12.7513 11.7427 12.6848 11.7117 12.6183 11.7161C12.5881 11.7181 12.5578 11.7275 12.5303 11.7448C12.5169 11.7532 12.505 11.7625 12.4945 11.7734C12.4945 11.7583 12.4932 11.7428 12.4894 11.7274C12.4673 11.6394 12.3864 11.5814 12.2991 11.5851C12.2866 11.5857 12.2738 11.5871 12.2612 11.5902V11.5902Z" fill="black"/>
<path d="M14.2564 12.1366C14.2767 12.3282 14.4325 12.4888 14.6248 12.5347C14.5919 12.4809 14.5701 12.4211 14.5634 12.3576C14.5393 12.1304 14.715 11.9463 14.9553 11.9463C14.9931 11.9463 15.0298 11.9509 15.0658 11.9596C14.9811 11.8207 14.8216 11.7242 14.6483 11.7242C14.408 11.7243 14.2323 11.9094 14.2564 12.1366V12.1366Z" fill="black"/>
<path d="M12.5528 9.80666C12.5528 10.169 12.746 10.3827 13.004 10.3827C13.0532 10.3827 13.107 10.4493 13.1534 10.4493C13.229 10.4493 13.2793 10.3653 13.3253 10.3653C13.3838 10.3653 13.4233 10.4574 13.5249 10.4574C13.6265 10.4574 13.6669 10.3653 13.7254 10.3653C13.7714 10.3653 13.8217 10.4493 13.8973 10.4493C13.9437 10.4493 13.9975 10.3827 14.0467 10.3827C14.3048 10.3827 14.498 10.169 14.498 9.80666C14.498 9.51116 14.2498 9.15085 14.277 9.09241C14.277 9.09241 14.761 9.43958 14.761 9.8486C14.761 10.5075 14.0928 10.6703 14.0928 10.6703L14.2432 11.009C14.2432 11.009 14.0361 11.04 13.9096 11.142C13.7409 11.278 13.7387 11.6455 13.7387 11.8941C13.7387 12.1869 13.7496 12.3109 13.8554 12.3904C13.9669 12.4742 14.0508 12.4922 14.0508 12.5776C14.0508 12.652 13.964 12.6825 13.8513 12.7321C13.7231 12.7886 13.7103 12.8867 13.5249 12.8867C13.3394 12.8867 13.3276 12.7886 13.1994 12.7321C13.0868 12.6825 12.9999 12.6521 12.9999 12.5776C12.9999 12.4922 13.0838 12.4742 13.1953 12.3904C13.3011 12.3109 13.312 12.1869 13.312 11.8941C13.312 11.6455 13.3098 11.278 13.1411 11.142C13.0146 11.04 12.8075 11.009 12.8075 11.009L12.9579 10.6703C12.9579 10.6703 12.2897 10.5075 12.2897 9.8486C12.2897 9.43958 12.7738 9.09241 12.7738 9.09241C12.8009 9.15085 12.5528 9.51116 12.5528 9.80666V9.80666ZM13.2721 12.5276C13.1408 12.5276 13.0572 12.5553 13.0572 12.5951C13.0572 12.635 13.1408 12.6616 13.2721 12.6616C13.3071 12.6616 13.3468 12.6413 13.3468 12.5951C13.3468 12.549 13.307 12.5276 13.2721 12.5276ZM13.7786 12.5276C13.7436 12.5276 13.7039 12.549 13.7039 12.5951C13.7039 12.6413 13.7436 12.6616 13.7786 12.6616C13.9099 12.6616 13.9935 12.635 13.9935 12.5951C13.9935 12.5552 13.9098 12.5276 13.7786 12.5276Z" fill="#FFD200"/>
<path d="M13.5259 9.16095L13.5996 9.36871L13.7981 9.27354L13.704 9.47306L13.9107 9.54676L13.704 9.62044L13.7981 9.81894L13.5996 9.72479L13.5249 9.93149L13.4513 9.72479L13.2528 9.81894L13.3469 9.62044L13.1402 9.54676L13.3469 9.47306L13.2528 9.27354L13.4513 9.36871L13.5259 9.16095V9.16095Z" fill="#FFD200"/>
<path d="M12.6038 10.7829C12.6038 10.7829 12.262 11.0366 12.262 11.0366L12.2579 11.0417L12.2508 11.0356L11.8722 10.7982C11.8722 10.7982 12.1138 10.7149 12.2559 10.57C12.3904 10.724 12.6038 10.7829 12.6038 10.7829Z" fill="#FFD200"/>
<path d="M15.1783 10.7983C15.1783 10.7983 14.9263 10.9238 14.7997 11.0357L14.7926 11.0418L14.7885 11.0367C14.6688 10.8994 14.4467 10.783 14.4467 10.783C14.4467 10.783 14.6601 10.7241 14.7946 10.5701C14.9367 10.715 15.1783 10.7983 15.1783 10.7983V10.7983Z" fill="#FFD200"/>
<path d="M12.9886 11.2801L13.0715 11.3629L12.9886 11.4469L12.9047 11.3629L12.9886 11.2801Z" fill="#FFD200"/>
<path d="M14.062 11.2801L14.1459 11.3629L14.062 11.4469L13.9791 11.3629L14.062 11.2801Z" fill="#FFD200"/>
<path d="M13.1012 11.6422C13.1591 11.7222 13.1493 11.8514 13.1493 12.0311C13.1493 12.2123 13.0132 12.2818 13.0132 12.2818C13.0132 11.8462 12.9683 11.7414 12.9447 11.6095L13.1012 11.6422Z" fill="#FFD200"/>
<path d="M14.106 11.6095C14.0823 11.7415 14.0374 11.8462 14.0374 12.2818C14.0374 12.2818 13.9013 12.2123 13.9013 12.0311C13.9013 11.8514 13.8915 11.7222 13.9494 11.6423L14.106 11.6095Z" fill="#FFD200"/>
<path d="M12.4576 11.7743C12.4617 11.7906 12.4621 11.8067 12.4607 11.8224C12.4595 11.8355 12.456 11.8474 12.4515 11.8593C12.4288 11.851 12.4043 11.847 12.3788 11.847C12.3157 11.847 12.2592 11.8748 12.2202 11.9186C12.21 11.9096 12.2011 11.8996 12.1936 11.8879C12.1852 11.875 12.1781 11.8608 12.1742 11.845C12.1546 11.7667 12.2024 11.6875 12.2806 11.6679C12.2904 11.6654 12.3006 11.6642 12.3103 11.6638C12.3781 11.6609 12.4404 11.7059 12.4576 11.7743Z" fill="#FFD200"/>
<path d="M12.3788 12.2022C12.4568 12.2022 12.52 12.1389 12.52 12.061C12.52 11.983 12.4568 11.9197 12.3788 11.9197C12.3008 11.9197 12.2376 11.983 12.2376 12.061C12.2376 12.1389 12.3008 12.2022 12.3788 12.2022Z" fill="#FFD200"/>
<path d="M14.858 11.8706C14.6236 11.9159 14.4549 12.123 14.4794 12.3649C14.4047 12.303 14.35 12.2196 14.3402 12.1275C14.3212 11.948 14.4516 11.8092 14.6483 11.8092C14.7234 11.8092 14.7957 11.8322 14.858 11.8706V11.8706Z" fill="#FFD200"/>
</svg>
