<?xml version="1.0" encoding="UTF-8"?>
<svg width="17px" height="16px" viewBox="0 0 17 16" version="1.1" xmlns="http://www.w3.org/2000/svg" xmlns:xlink="http://www.w3.org/1999/xlink">
    <!-- Generator: Sketch 52.4 (67378) - http://www.bohemiancoding.com/sketch -->
    <title>icons/dark/offer</title>
    <desc>Created with Sketch.</desc>
    <g id="Website-assets" stroke="none" stroke-width="1" fill="none" fill-rule="evenodd">
        <g id="icons/dark/offer" transform="translate(-6.000000, -8.000000)" fill="#222222">
            <g id="Group" transform="translate(5.500000, 4.000000)">
                <path d="M1.41421356,11.3137085 L8.07270187,4.6552202 C8.33807021,4.38985186 8.69327291,4.23359758 9.0682062,4.21729613 L14.4372505,3.98385942 C15.5407774,3.93587999 16.4742578,4.79157033 16.5222372,5.89509729 C16.5247541,5.95298624 16.5247541,6.01095723 16.5222372,6.06884619 L16.2888005,11.4378905 C16.2724991,11.8128237 16.1162448,12.1680264 15.8508765,12.4333948 L9.19238816,19.0918831 C8.41133957,19.8729317 7.14500961,19.8729317 6.36396103,19.0918831 L1.41421356,14.1421356 C0.633164979,13.361087 0.633164979,12.0947571 1.41421356,11.3137085 Z M12.722265,9.90512134 C13.3049271,9.31622752 13.3049271,8.36144201 12.722265,7.77254819 C12.1396029,7.18365438 11.1949209,7.18365438 10.6122588,7.77254819 C10.0295966,8.36144201 10.0295966,9.31622752 10.6122588,9.90512134 C11.1949209,10.4940152 12.1396029,10.4940152 12.722265,9.90512134 Z" id="Combined-Shape"></path>
            </g>
        </g>
    </g>
</svg>