<?xml version="1.0" encoding="UTF-8"?>
<svg width="17px" height="16px" viewBox="0 0 17 16" version="1.1" xmlns="http://www.w3.org/2000/svg" xmlns:xlink="http://www.w3.org/1999/xlink">
    <!-- Generator: Sketch 52.5 (67469) - http://www.bohemiancoding.com/sketch -->
    <title>icons/secundary/offer</title>
    <desc>Created with Sketch.</desc>
    <g id="Website-assets" stroke="none" stroke-width="1" fill="none" fill-rule="evenodd">
        <g id="icons/color/offer" transform="translate(-6.000000, -8.000000)" fill="#C80000">
            <g id="Group" transform="translate(5.500000, 7.000000)">
                <path d="M1.41421356,8.3137085 L8.07270187,1.6552202 C8.33807021,1.38985186 8.69327291,1.23359758 9.0682062,1.21729613 L14.4372505,0.983859422 C15.5407774,0.935879989 16.4742578,1.79157033 16.5222372,2.89509729 C16.5247541,2.95298624 16.5247541,3.01095723 16.5222372,3.06884619 L16.2888005,8.43789045 C16.2724991,8.81282375 16.1162448,9.16802645 15.8508765,9.43339479 L9.19238816,16.0918831 C8.41133957,16.8729317 7.14500961,16.8729317 6.36396103,16.0918831 L1.41421356,11.1421356 C0.633164979,10.361087 0.633164979,9.09475708 1.41421356,8.3137085 Z M12.722265,6.90512134 C13.3049271,6.31622752 13.3049271,5.36144201 12.722265,4.77254819 C12.1396029,4.18365438 11.1949209,4.18365438 10.6122588,4.77254819 C10.0295966,5.36144201 10.0295966,6.31622752 10.6122588,6.90512134 C11.1949209,7.49401515 12.1396029,7.49401515 12.722265,6.90512134 Z" id="Combined-Shape"></path>
            </g>
        </g>
    </g>
</svg>