<?xml version="1.0" encoding="UTF-8"?>
<svg width="26px" height="26px" viewBox="0 0 26 26" version="1.1" xmlns="http://www.w3.org/2000/svg" xmlns:xlink="http://www.w3.org/1999/xlink">
    <!-- Generator: Sketch 50.2 (55047) - http://www.bohemiancoding.com/sketch -->
    <title>icons/pencil-dark</title>
    <desc>Created with Sketch.</desc>
    <defs></defs>
    <g id="icons/pencil-dark" stroke="none" stroke-width="1" fill="none" fill-rule="evenodd">
        <path d="M5,12 L5,15 L15,15 L15,12 L5,12 Z M18,9 L18,18 L3.33333333,18 C3.11696312,18 2.9064295,17.9298221 2.73333333,17.8 L-3,13.5 L2.73333333,9.2 C2.9064295,9.07017787 3.11696312,9 3.33333333,9 L18,9 Z M21,18 L21,9 L24,9 C25.6568542,9 27,10.3431458 27,12 L27,15 C27,16.6568542 25.6568542,18 24,18 L21,18 Z" id="Combined-Shape" fill="#222222" fill-rule="nonzero" transform="translate(12.000000, 13.500000) rotate(-45.000000) translate(-12.000000, -13.500000) "></path>
    </g>
</svg>