<?xml version="1.0" encoding="UTF-8"?>
<svg width="27px" height="26px" viewBox="0 0 27 26" version="1.1" xmlns="http://www.w3.org/2000/svg" xmlns:xlink="http://www.w3.org/1999/xlink">
    <!-- Generator: Sketch 50.2 (55047) - http://www.bohemiancoding.com/sketch -->
    <title>icons/pets-dark</title>
    <desc>Created with Sketch.</desc>
    <defs></defs>
    <g id="icons/pets-dark" stroke="none" stroke-width="1" fill="none" fill-rule="evenodd">
        <g id="ic_pets_black_24px" transform="translate(1.000000, 1.000000)" fill="#222222" fill-rule="nonzero">
            <circle id="Oval" cx="3.125" cy="8.125" r="3.125"></circle>
            <circle id="Oval" cx="8.75" cy="3.125" r="3.125"></circle>
            <circle id="Oval" cx="16.25" cy="3.125" r="3.125"></circle>
            <circle id="Oval" cx="21.875" cy="8.125" r="3.125"></circle>
            <path d="M19.175,14.825 C18.0875,13.55 17.175,12.4625 16.075,11.1875 C15.5,10.5125 14.7625,9.8375 13.8875,9.5375 C13.75,9.4875 13.6125,9.45 13.475,9.425 C13.1625,9.375 12.825,9.375 12.5,9.375 C12.175,9.375 11.8375,9.375 11.5125,9.4375 C11.375,9.4625 11.2375,9.5 11.1,9.55 C10.225,9.85 9.5,10.525 8.9125,11.2 C7.825,12.475 6.9125,13.5625 5.8125,14.8375 C4.175,16.475 2.1625,18.2875 2.5375,20.825 C2.9,22.1 3.8125,23.3625 5.45,23.725 C6.3625,23.9125 9.275,23.175 12.375,23.175 L12.6,23.175 C15.7,23.175 18.6125,23.9 19.525,23.725 C21.1625,23.3625 22.075,22.0875 22.4375,20.825 C22.825,18.275 20.8125,16.4625 19.175,14.825 Z" id="Shape"></path>
        </g>
    </g>
</svg>