<svg width="27" height="21" viewBox="0 0 27 21" fill="none" xmlns="http://www.w3.org/2000/svg">
<path d="M4 0.75H11C12.7949 0.75 14.25 2.20507 14.25 4V17C14.25 18.7949 12.7949 20.25 11 20.25H4C2.20507 20.25 0.75 18.7949 0.75 17V4C0.75 2.20507 2.20507 0.75 4 0.75Z" fill="white" stroke="#F2F2F2" stroke-width="1.5"/>
<path fill-rule="evenodd" clip-rule="evenodd" d="M4.00001 21H23C25.2091 21 27 19.2091 27 17V10.5H13.5L1.3223 19.9716C2.03128 20.6108 2.9702 21 4.00001 21Z" fill="#DE5454"/>
<path fill-rule="evenodd" clip-rule="evenodd" d="M27 10.5V4C27 3.99137 27 3.98275 26.9999 3.97413C26.986 1.7769 25.2005 0 23 0H4.00001C2.9702 0 2.03128 0.389162 1.3223 1.02845L13.5 10.5H27Z" fill="#4B54BF"/>
<path d="M4.5 6.5L5.26537 8.65224L7.32843 7.67157L6.34776 9.73463L8.5 10.5L6.34776 11.2654L7.32843 13.3284L5.26537 12.3478L4.5 14.5L3.73463 12.3478L1.67157 13.3284L2.65224 11.2654L0.5 10.5L2.65224 9.73463L1.67157 7.67157L3.73463 8.65224L4.5 6.5Z" fill="#FFC93F"/>
<circle cx="2" cy="3.95221" r="1" fill="#FFC93F"/>
<circle cx="11.0189" cy="10.5" r="1" fill="#FFC93F"/>
<circle cx="2" cy="17.2563" r="1" fill="#FFC93F"/>
</svg>
