<svg width="30" height="30" viewBox="0 0 30 30" fill="none" xmlns="http://www.w3.org/2000/svg">
<path fill-rule="evenodd" clip-rule="evenodd" d="M13.0715 10.3859C12.6934 10.5737 12.4741 10.9787 12.5233 11.398C12.6522 12.496 13.1893 13.8638 14.1347 15.5013C15.0799 17.1384 15.9953 18.2867 16.881 18.9463C17.2194 19.1984 17.6797 19.2108 18.0313 18.9774L19.4579 18.0304C19.8426 17.7751 20.3516 17.8164 20.6826 18.1383C21.9011 19.3235 24.6123 22.0893 24.0986 22.7592C20.1461 27.9133 15.6699 26.1602 10.6699 17.5C5.66988 8.83973 6.38962 4.08636 12.8291 3.23988C13.6652 3.12998 14.7256 6.842 15.1534 8.48817C15.2702 8.93733 15.0516 9.40193 14.636 9.60846L13.0715 10.3859Z" fill="#222222"/>
</svg>
