<?xml version="1.0" encoding="UTF-8"?>
<svg width="20px" height="26px" viewBox="0 0 20 26" version="1.1" xmlns="http://www.w3.org/2000/svg" xmlns:xlink="http://www.w3.org/1999/xlink">
    <!-- Generator: Sketch 49.1 (51147) - http://www.bohemiancoding.com/sketch -->
    <title>icons/social/pinterest</title>
    <desc>Created with Sketch.</desc>
    <defs></defs>
    <g id="Icons" stroke="none" stroke-width="1" fill="none" fill-rule="evenodd">
        <path d="M0,9.32918169 C0,11.8981938 0.96693979,14.18331 3.03941951,15.0349978 C3.3793975,15.1744843 3.68350251,15.0399209 3.78215319,14.6608459 C3.85063797,14.3991037 4.01288166,13.7377739 4.08462761,13.462083 C4.1840936,13.0879311 4.14577473,12.9566498 3.87102034,12.6300874 C3.27422445,11.9203475 2.89185113,11.0021985 2.89185113,9.70087204 C2.89185113,5.92735343 5.69728099,2.54849941 10.1985243,2.54849941 C14.1836859,2.54849941 16.3727528,4.99935831 16.3727528,8.27154622 C16.3727528,12.5775749 14.4788227,16.2124275 11.6685011,16.2124275 C10.1153642,16.2124275 8.95356895,14.9201266 9.32615874,13.3357247 C9.77212507,11.4436321 10.6355224,9.40138643 10.6355224,8.03606028 C10.6355224,6.81350261 9.98328645,5.79443105 8.63478863,5.79443105 C7.0482247,5.79443105 5.77228813,7.44611467 5.77228813,9.6590261 C5.77228813,11.0694802 6.24597448,12.0220906 6.24597448,12.0220906 C6.24597448,12.0220906 4.62190697,18.9480029 4.33736904,20.1607144 C3.77073906,22.5762915 4.25257837,25.5366862 4.29334312,25.8353513 C4.31698667,26.0125811 4.54282337,26.0552475 4.64555053,25.9215046 C4.79230362,25.7286851 6.68134198,23.3803898 7.32542497,21.034556 C7.50642045,20.3699441 8.36818719,16.929552 8.36818719,16.929552 C8.88426888,17.9190852 10.3909339,18.7904652 11.9929885,18.7904652 C16.7640944,18.7904652 20,14.4138729 20,8.55544217 C20,4.12551676 16.2716563,0 10.6053565,0 C3.5555012,0 0,5.08715272 0,9.32918169 Z" id="icons/social/pinterest" fill="#222222"></path>
    </g>
</svg>