<?xml version="1.0" encoding="UTF-8"?>
<svg width="38px" height="38px" viewBox="0 0 38 38" version="1.1" xmlns="http://www.w3.org/2000/svg" xmlns:xlink="http://www.w3.org/1999/xlink">
    <!-- Generator: Sketch 52.2 (67145) - http://www.bohemiancoding.com/sketch -->
    <title>icons/radio-checked</title>
    <desc>Created with Sketch.</desc>
    <g id="icons/radio-checked" stroke="none" stroke-width="1" fill="none" fill-rule="evenodd">
        <g id="Group-3" fill="#3181e2">
            <g id="Group">
                <path d="M18.8,0 L19.2,0 C29.5829533,-1.90731758e-15 38,8.4170467 38,18.8 L38,19.2 C38,29.5829533 29.5829533,38 19.2,38 L18.8,38 C8.4170467,38 1.27154505e-15,29.5829533 0,19.2 L0,18.8 C-1.27154505e-15,8.4170467 8.4170467,1.90731758e-15 18.8,0 Z M24.2680851,13.6531915 L18.1207934,21.8495804 L14.8897603,18.0310866 C14.3546442,17.3986767 13.4081774,17.3198045 12.7757675,17.8549206 C12.1433576,18.3900366 12.0644853,19.3365035 12.5996014,19.9689134 L17.0464099,25.2242325 C17.6688029,25.9597878 18.8133637,25.9261533 19.3914894,25.1553191 L26.6680851,15.4531915 C27.1651414,14.7904498 27.0308268,13.8502478 26.3680851,13.3531915 C25.7053434,12.8561352 24.7651414,12.9904498 24.2680851,13.6531915 Z" id="Combined-Shape"></path>
            </g>
        </g>
    </g>
</svg>