<?xml version="1.0" encoding="UTF-8"?>
<svg width="22px" height="21px" viewBox="0 0 22 21" version="1.1" xmlns="http://www.w3.org/2000/svg" xmlns:xlink="http://www.w3.org/1999/xlink">
    <!-- Generator: Sketch 49.1 (51147) - http://www.bohemiancoding.com/sketch -->
    <title>icons/social/snapchat</title>
    <desc>Created with Sketch.</desc>
    <defs></defs>
    <g id="Icons" stroke="none" stroke-width="1" fill="none" fill-rule="evenodd">
        <path d="M10.778565,0.00405174101 C10.2901823,0.00405174101 9.31301777,0.0740889784 8.26338836,0.544438227 C7.66325803,0.81318442 7.12344862,1.17656771 6.65901183,1.62451662 C6.10529098,2.15824667 5.65419549,2.81630729 5.31849653,3.58069718 C4.82686402,4.69990381 4.94357186,6.58506313 5.03730303,8.1000091 C5.04767959,8.26462554 5.0582272,8.4340462 5.06786258,8.59912571 C4.99573976,8.63275516 4.87880386,8.66823683 4.70645026,8.66823683 C4.42913372,8.66823683 4.09936422,8.5782303 3.72654908,8.40087981 C3.61685397,8.34901752 3.49165102,8.32279697 3.35350588,8.32279697 C3.13155002,8.32279697 2.89756419,8.38912976 2.69459403,8.51027681 C2.43922792,8.66250651 2.27422914,8.87765396 2.22941606,9.11618574 C2.19988276,9.27397211 2.20130811,9.58584041 2.54253745,9.90210773 C2.73022784,10.0762168 3.00594798,10.2367815 3.36182994,10.3795765 C3.45521902,10.4169104 3.56605441,10.4525657 3.68344642,10.4903626 C4.0908121,10.6218127 4.70736248,10.8204059 4.86814222,11.2045688 C4.94961536,11.3993418 4.91455169,11.6556434 4.76420553,11.9654279 C4.71517341,12.0799185 4.36465078,12.8859835 3.64564608,13.7360966 C3.23708311,14.2195272 2.78707088,14.6235436 2.30883669,14.9372642 C1.72512643,15.3202695 1.09352433,15.570667 0.431761771,15.6813375 C0.171891544,15.7246332 -0.0136893222,15.9596921 0.000792256945,16.2268176 C0.00523935604,16.3038006 0.0230277524,16.3805522 0.0538723757,16.4548148 C0.159690529,16.7056755 0.40331174,16.9176394 0.79938863,17.1045983 C1.28338125,17.3328271 2.00723215,17.5248217 2.95064431,17.6750256 C2.99830809,17.767058 3.04779632,17.9983545 3.08206179,18.1567197 C3.11792366,18.3250406 3.1553249,18.4981078 3.20863307,18.6819411 C3.26616029,18.8811131 3.41536617,19.1191239 3.7986719,19.1191239 C3.94394381,19.1191239 4.11099509,19.0858997 4.3044439,19.0478133 C4.58774692,18.9913783 4.97515767,18.9143953 5.45869418,18.9143953 C5.72677443,18.9143953 6.0046041,18.9383584 6.28425821,18.9855323 C6.82332644,19.0766385 7.2880483,19.4099232 7.82574819,19.7958805 C8.6127707,20.3606932 9.50361588,21 10.8647133,21 C10.9018294,21 10.9390596,20.9987845 10.9758337,20.9961798 C11.0208179,20.9983214 11.0765776,21 11.1354162,21 C12.4969127,21 13.3875298,20.3604616 14.1736971,19.796112 C14.7127653,19.4094601 15.176974,19.0766385 15.7158712,18.9855323 C15.9954113,18.9384163 16.273184,18.9143953 16.5413783,18.9143953 C17.0033064,18.9143953 17.3690518,18.9741874 17.6956285,19.0388416 C17.9087472,19.0814428 18.0743731,19.101933 18.2014575,19.101933 C18.5071101,19.1021645 18.713102,18.945941 18.7917244,18.6725642 C18.8439493,18.492609 18.8812366,18.3235935 18.9180106,18.1524364 C18.9500526,18.0040269 19.0012512,17.7661319 19.048915,17.6731155 C19.9929543,17.5226222 20.7165201,17.3310328 21.2005698,17.1028619 C21.5957344,16.9167712 21.8390706,16.7050388 21.9447747,16.4565513 C21.9764745,16.3820571 21.9950041,16.3048425 21.9991661,16.2262387 C22.0140468,15.9595763 21.8281809,15.7240544 21.5681396,15.6807586 C18.6270677,15.1886458 17.3021173,12.1206675 17.2473267,11.9903172 C17.0852927,11.6550645 17.0505711,11.3990524 17.1321013,11.2039321 C17.2925389,10.8201165 17.9086902,10.6215233 18.3163409,10.4901311 C18.4343601,10.452392 18.5455946,10.4165052 18.6382425,10.3793449 C19.0395647,10.2184329 19.3264026,10.0438608 19.5156323,9.84561489 C19.7416362,9.60928262 19.7856511,9.38284818 19.7829144,9.23467022 C19.7760157,8.87614903 19.506054,8.55756642 19.0766238,8.40157439 C18.93158,8.34068251 18.7661821,8.30855799 18.5977625,8.30855799 C18.4831072,8.30855799 18.3133192,8.32453343 18.1525965,8.40070616 C17.8085164,8.56416497 17.5002983,8.6535348 17.2356959,8.66626884 C17.0949851,8.65903359 16.9962937,8.62806671 16.9323809,8.598489 C16.9404199,8.45864606 16.9493141,8.3149829 16.9584933,8.16518424 L16.9623133,8.10105097 C17.0565576,6.58512101 17.1736645,4.69851464 16.681804,3.57849766 C16.3446796,2.81138732 15.8919878,2.15164812 15.3360434,1.61676043 C14.8697821,1.16852211 14.3281483,0.805196702 13.7258514,0.536624156 C12.6777044,0.0697478274 11.7005969,0 11.21153,0 C11.021274,0.0016206964 10.7985769,0.00382021295 10.778565,0.00405174101 Z" id="icons/social/snapchat" fill="#222222"></path>
    </g>
</svg>