<?xml version="1.0" encoding="UTF-8"?>
<svg width="18px" height="18px" viewBox="0 0 18 18" version="1.1" xmlns="http://www.w3.org/2000/svg" xmlns:xlink="http://www.w3.org/1999/xlink">
    <!-- Generator: Sketch 52.3 (67297) - http://www.bohemiancoding.com/sketch -->
    <title>icons/dark/star-outlined</title>
    <desc>Created with Sketch.</desc>
    <g id="Website-assets" stroke="none" stroke-width="1" fill="none" fill-rule="evenodd">
        <g id="icons/dark/star-outlined" transform="translate(-6.000000, -6.000000)" fill="#222222" fill-rule="nonzero">
            <path d="M15,17.6234679 L18.7082039,20.1428571 L17.4,15.9209908 L21,13.2561927 L16.4832816,13.1663251 L15,9 L13.5167184,13.1663251 L9,13.2561927 L12.6,15.9209908 L11.2917961,20.1428571 L15,17.6234679 Z M12.9777241,22.6243177 C10.6305645,24.2190004 7.58633021,21.9654086 8.4262138,19.2549167 L9.10447905,17.0660032 L7.21512557,15.6674628 C4.9144425,13.9644472 6.07847586,10.3137275 8.94032181,10.2567863 L11.3854315,10.2081368 L12.1737676,7.99381388 C13.1202092,5.33539537 16.8797908,5.33539537 17.8262324,7.99381388 L18.6145685,10.2081368 L21.0596782,10.2567863 C23.9215241,10.3137275 25.0855575,13.9644472 22.7848744,15.6674628 L20.8955209,17.0660032 L21.5737862,19.2549167 C22.4136698,21.9654086 19.3694355,24.2190004 17.0222759,22.6243177 L15,21.2503641 L12.9777241,22.6243177 Z" id="Star"></path>
        </g>
    </g>
</svg>