<svg width="30" height="30" viewBox="0 0 30 30" fill="none" xmlns="http://www.w3.org/2000/svg">
<path fill-rule="evenodd" clip-rule="evenodd" d="M15 0C6.71573 0 0 6.71573 0 15C0 23.2843 6.71573 30 15 30C23.2843 30 30 23.2843 30 15C30 6.71573 23.2843 0 15 0ZM21.3064 12.3894C21.8034 11.7266 21.6691 10.7864 21.0064 10.2894C20.3436 9.7923 19.4034 9.92662 18.9064 10.5894L14.291 16.7432L11.9961 14.0311C11.461 13.3987 10.5146 13.3198 9.88215 13.8549C9.24974 14.39 9.17087 15.3365 9.70598 15.9689L13.2166 20.1179C13.5116 20.4665 13.9493 20.6617 14.4058 20.6483C14.8622 20.6349 15.2877 20.4143 15.5617 20.0489L21.3064 12.3894Z" fill="#00FF75"/>
</svg>
