<svg width="33" height="30" viewBox="0 0 33 30" fill="none" xmlns="http://www.w3.org/2000/svg">
<path d="M29.5 19.5V16.2643C29.5 16.0894 29.4694 15.916 29.4097 15.7516L27.859 11.4874C27.6435 10.8946 27.0801 10.5 26.4494 10.5H21.5" stroke="#222222" stroke-width="3" stroke-linecap="round" stroke-linejoin="round"/>
<path fill-rule="evenodd" clip-rule="evenodd" d="M5 4C3.34315 4 2 5.34315 2 7V20.5C2 21.3284 2.67157 22 3.5 22H4C4 24.4853 6.01472 26.5 8.5 26.5C10.9853 26.5 13 24.4853 13 22H18C18 24.4853 20.0147 26.5 22.5 26.5C24.9853 26.5 27 24.4853 27 22H29.5C30.3284 22 31 21.3284 31 20.5V17.5C31 16.6716 30.3284 16 29.5 16H22V7C22 5.34315 20.6569 4 19 4H5ZM8.5 20.5C7.67157 20.5 7 21.1716 7 22C7 22.8284 7.67157 23.5 8.5 23.5C9.32843 23.5 10 22.8284 10 22C10 21.1716 9.32843 20.5 8.5 20.5ZM21 22C21 21.1716 21.6716 20.5 22.5 20.5C23.3284 20.5 24 21.1716 24 22C24 22.8284 23.3284 23.5 22.5 23.5C21.6716 23.5 21 22.8284 21 22Z" fill="#222222"/>
</svg>
