<svg width="47" height="16" viewBox="0 0 47 16" fill="none" xmlns="http://www.w3.org/2000/svg">
<path fill-rule="evenodd" clip-rule="evenodd" d="M24.3073 4.87164C24.2805 6.9943 26.1914 8.17891 27.631 8.88315C29.11 9.60582 29.6068 10.0692 29.6012 10.7153C29.5899 11.7044 28.4213 12.1408 27.3275 12.1578C25.4194 12.1876 24.3101 11.6406 23.428 11.2269L22.7407 14.4562C23.6256 14.8657 25.2642 15.2228 26.9634 15.2384C30.9518 15.2384 33.5613 13.2617 33.5755 10.1967C33.591 6.30706 28.2167 6.09167 28.2533 4.35302C28.266 3.8259 28.7671 3.26335 29.8651 3.12024C30.4084 3.04797 31.9087 2.99271 33.6093 3.77914L34.2769 0.654666C33.3623 0.320255 32.1867 1.47659e-05 30.7232 1.47659e-05C26.969 1.47659e-05 24.3284 2.00364 24.3073 4.87164M40.6914 0.269245C39.9631 0.269245 39.3492 0.695761 39.0754 1.35041L33.3779 15.0088L37.3635 15.0088L38.1566 12.8082H43.0271L43.4872 15.0088H47L43.9346 0.269245H40.6914M41.2488 4.25099L42.3991 9.78577L39.249 9.78577L41.2488 4.25099M19.4749 0.269245L16.3333 15.0088H20.1312L23.2714 0.269245L19.4749 0.269245M13.8564 0.269245L9.90328 10.3016L8.30425 1.77126C8.11654 0.81904 7.37559 0.269245 6.55279 0.269245H0.0903249L0 0.697177C1.32665 0.986244 2.83394 1.45244 3.74707 1.95122C4.30596 2.25587 4.46544 2.52227 4.64891 3.24635L7.67762 15.0088H11.6914L17.8448 0.269245H13.8564" fill="url(#paint0_linear)"/>
<mask id="mask0" mask-type="alpha" maskUnits="userSpaceOnUse" x="0" y="0" width="47" height="16">
<path fill-rule="evenodd" clip-rule="evenodd" d="M24.3073 4.87164C24.2805 6.9943 26.1914 8.17891 27.631 8.88315C29.11 9.60582 29.6068 10.0692 29.6012 10.7153C29.5899 11.7044 28.4213 12.1408 27.3275 12.1578C25.4194 12.1876 24.3101 11.6406 23.428 11.2269L22.7407 14.4562C23.6256 14.8657 25.2642 15.2228 26.9634 15.2384C30.9518 15.2384 33.5613 13.2617 33.5755 10.1967C33.591 6.30706 28.2167 6.09167 28.2533 4.35302C28.266 3.8259 28.7671 3.26335 29.8651 3.12024C30.4084 3.04797 31.9087 2.99271 33.6093 3.77914L34.2769 0.654666C33.3623 0.320255 32.1867 1.47659e-05 30.7232 1.47659e-05C26.969 1.47659e-05 24.3284 2.00364 24.3073 4.87164M40.6914 0.269245C39.9631 0.269245 39.3492 0.695761 39.0754 1.35041L33.3779 15.0088L37.3635 15.0088L38.1566 12.8082H43.0271L43.4872 15.0088H47L43.9346 0.269245H40.6914M41.2488 4.25099L42.3991 9.78577L39.249 9.78577L41.2488 4.25099M19.4749 0.269245L16.3333 15.0088H20.1312L23.2714 0.269245L19.4749 0.269245M13.8564 0.269245L9.90328 10.3016L8.30425 1.77126C8.11654 0.81904 7.37559 0.269245 6.55279 0.269245H0.0903249L0 0.697177C1.32665 0.986244 2.83394 1.45244 3.74707 1.95122C4.30596 2.25587 4.46544 2.52227 4.64891 3.24635L7.67762 15.0088H11.6914L17.8448 0.269245H13.8564" fill="white"/>
</mask>
<g mask="url(#mask0)">
</g>
<defs>
<linearGradient id="paint0_linear" x1="0.0819201" y1="4.68692" x2="13.2956" y2="-13.9981" gradientUnits="userSpaceOnUse">
<stop stop-color="#222357"/>
<stop offset="1" stop-color="#254AA5"/>
</linearGradient>
</defs>
</svg>
