<svg width="30" height="30" viewBox="0 0 30 30" fill="none" xmlns="http://www.w3.org/2000/svg">
<path fill-rule="evenodd" clip-rule="evenodd" d="M16.7321 4.5C15.9623 3.16667 14.0378 3.16667 13.268 4.5L2.00964 24C1.23984 25.3333 2.20209 27 3.74169 27H26.2584C27.798 27 28.7602 25.3333 27.9904 24L16.7321 4.5ZM13.551 11.5L14.078 19.269H16.186L16.713 11.5H13.551ZM15.132 23.536C15.5967 23.536 15.9848 23.3858 16.2965 23.0855C16.6082 22.7852 16.764 22.4197 16.764 21.989C16.764 21.5583 16.611 21.1985 16.305 20.9095C15.999 20.6205 15.608 20.476 15.132 20.476C14.656 20.476 14.265 20.6205 13.959 20.9095C13.653 21.1985 13.5 21.5583 13.5 21.989C13.5 22.4197 13.6558 22.7852 13.9675 23.0855C14.2792 23.3858 14.6673 23.536 15.132 23.536Z" fill="#FFB500"/>
</svg>
