<svg width="30" height="30" viewBox="0 0 30 30" fill="none" xmlns="http://www.w3.org/2000/svg">
<path fill-rule="evenodd" clip-rule="evenodd" d="M16.7316 4.5C15.9618 3.16667 14.0373 3.16667 13.2675 4.5L2.00921 24C1.23941 25.3333 2.20166 27 3.74126 27H26.2579C27.7975 27 28.7598 25.3333 27.99 24L16.7316 4.5ZM13.5506 11.5L14.0776 19.269H16.1856L16.7126 11.5H13.5506ZM15.1316 23.536C15.5962 23.536 15.9844 23.3858 16.2961 23.0855C16.6077 22.7852 16.7636 22.4197 16.7636 21.989C16.7636 21.5583 16.6106 21.1985 16.3046 20.9095C15.9986 20.6205 15.6076 20.476 15.1316 20.476C14.6556 20.476 14.2646 20.6205 13.9586 20.9095C13.6526 21.1985 13.4996 21.5583 13.4996 21.989C13.4996 22.4197 13.6554 22.7852 13.9671 23.0855C14.2787 23.3858 14.6669 23.536 15.1316 23.536Z" fill="#3181e2"/>
</svg>
