<?xml version="1.0" encoding="UTF-8"?>
<svg width="26px" height="26px" viewBox="0 0 26 26" version="1.1" xmlns="http://www.w3.org/2000/svg" xmlns:xlink="http://www.w3.org/1999/xlink">
    <!-- Generator: Sketch 49.1 (51147) - http://www.bohemiancoding.com/sketch -->
    <title>icons/social/website</title>
    <desc>Created with Sketch.</desc>
    <defs></defs>
    <g id="Icons" stroke="none" stroke-width="1" fill="none" fill-rule="evenodd">
        <g id="icons/social/website" transform="translate(2.000000, 2.000000)">
            <path d="M11,0 C4.923875,0 0,4.92525 0,11 C0,17.07475 4.923875,22 11,22 C17.07475,22 22,17.07475 22,11 C22,4.92525 17.07475,0 11,0 L11,0 Z M11,20.625 C9.647,20.625 8.358625,20.345875 7.19125,19.84125 L12.200375,14.2065 C12.31175,14.08 12.375,13.91775 12.375,13.75 L12.375,11.6875 C12.375,11.309375 12.065625,11 11.6875,11 C9.25925,11 6.697625,8.476875 6.672875,8.452125 C6.545,8.3215 6.370375,8.25 6.1875,8.25 L3.4375,8.25 C3.058,8.25 2.75,8.559375 2.75,8.9375 L2.75,13.0625 C2.75,13.322375 2.89575,13.561625 3.128125,13.677125 L5.5,14.862375 L5.5,18.899375 C3.00575,17.161375 1.375,14.271125 1.375,11 C1.375,9.52325 1.706375,8.124875 2.30175,6.875 L4.8125,6.875 C4.995375,6.875 5.17,6.802125 5.297875,6.67425 L8.047875,3.92425 C8.177125,3.795 8.25,3.620375 8.25,3.4375 L8.25,1.77375 C9.12175,1.51525 10.044375,1.375 11,1.375 C12.5125,1.375 13.943875,1.72425 15.21575,2.34575 C15.12775,2.421375 15.03975,2.49975 14.958625,2.58225 C14.177625,3.361875 13.75,4.39725 13.75,5.498625 C13.75,6.6 14.177625,7.638125 14.958625,8.415 C15.739625,9.197375 16.790125,9.623625 17.870875,9.623625 C17.939625,9.623625 18.008375,9.62225 18.077125,9.618125 C18.37275,10.731875 18.909,13.629 17.897,17.6165 C17.887375,17.655 17.881875,17.6935 17.879125,17.730625 C16.130125,19.515375 13.696375,20.623625 11.001375,20.623625 L11,20.625 L11,20.625 Z" id="Shape" fill="#222222"></path>
            <path d="M11,0 C4.923875,0 0,4.92525 0,11 C0,17.07475 4.923875,22 11,22 C17.07475,22 22,17.07475 22,11 C22,4.92525 17.07475,0 11,0 L11,0 Z" id="Path" stroke="#222222" stroke-width="3"></path>
        </g>
    </g>
</svg>