<?xml version="1.0" encoding="UTF-8"?>
<svg width="21px" height="17px" viewBox="0 0 21 17" version="1.1" xmlns="http://www.w3.org/2000/svg" xmlns:xlink="http://www.w3.org/1999/xlink">
    <!-- Generator: Sketch 49.1 (51147) - http://www.bohemiancoding.com/sketch -->
    <title>icons/social/youtube</title>
    <desc>Created with Sketch.</desc>
    <defs></defs>
    <g id="Icons" stroke="none" stroke-width="1" fill="none" fill-rule="evenodd">
        <path d="M3.98158576,0.254330378 C6.66305126,0.0847767926 8.83585601,1.64980031e-16 10.5,0 C12.1636524,0 14.335665,0.0847267104 17.0160379,0.254180131 C19.016735,0.380663888 20.6148051,1.96860574 20.7540069,3.9684582 C20.9180023,6.32450833 21,7.83502226 21,8.5 C21,9.16497754 20.9180024,10.6754908 20.7540071,13.0315397 C20.6148072,15.0313931 19.0167365,16.6193355 17.0160387,16.7458198 C14.3356654,16.9152733 12.1636525,17 10.5,17 C8.8358563,17 6.66305202,16.9152232 3.98158715,16.7456697 C1.98143287,16.6191992 0.383613726,15.0320372 0.243758355,13.0327742 C0.0812527852,10.7097217 0,9.19879696 0,8.5 C0,7.80120211 0.0812529997,6.29027431 0.243758999,3.96721659 C0.383623357,1.96796032 1.98143769,0.380803113 3.98158576,0.254330378 Z M14.5,8.50061153 L7.5,4.5 L7.5,12.5 L14.5,8.50061153 Z" id="icons/social/youtube" fill="#222222"></path>
    </g>
</svg>